<?xml version="1.0" encoding="utf-8"?>
<!-- Generator: Adobe Illustrator 24.0.0, SVG Export Plug-In . SVG Version: 6.00 Build 0)  -->
<svg version="1.1" id="Layer_1" xmlns="http://www.w3.org/2000/svg" xmlns:xlink="http://www.w3.org/1999/xlink" x="0px" y="0px"
	 viewBox="0 0 1080 1080" style="enable-background:new 0 0 1080 1080;" xml:space="preserve">
<style type="text/css">
	.st0{fill:#3F3D56;}
	.st1{fill:#6C63FF;}
	.st2{fill:#F2F2F2;}
	.st3{opacity:0.7;}
	.st4{fill:url(#SVGID_1_);}
	.st5{opacity:0.1;enable-background:new    ;}
	.st6{fill:#E0E0E0;}
	.st7{fill:url(#SVGID_2_);}
	.st8{fill:#72351C;}
	.st9{fill:#FDA57D;}
	.st10{fill:url(#SVGID_3_);}
	.st11{fill:#535461;}
	.st12{fill:#FFFFFF;}
	.st13{fill:#EEEEEE;}
	.st14{fill:#2F2E41;}
	.st15{fill:#A0616A;}
	.st16{fill:#D0CDE1;}
	.st17{fill:#E6E6E6;}
	.st18{opacity:0.1;fill:#6C63FF;enable-background:new    ;}
	.st19{fill:none;stroke:#535461;stroke-width:2;stroke-miterlimit:10;}
	.st20{opacity:0.25;enable-background:new    ;}
	.st21{fill:#495464;}
	.st22{fill:#464353;}
	.st23{fill:#514E7F;}
	.st24{opacity:0.5;fill:#6C63FF;enable-background:new    ;}
	.st25{fill:url(#SVGID_4_);}
	.st26{fill:#A1616A;}
	.st27{opacity:0.05;enable-background:new    ;}
	.st28{opacity:0.1;}
	.st29{opacity:0.2;enable-background:new    ;}
	.st30{fill:#E6E8EC;}
	.st31{fill:none;stroke:#3F3D56;stroke-miterlimit:10;}
	.st32{fill:#FFB6B6;}
	.st33{fill:#F86D70;}
	.st34{fill:#444053;}
	.st35{opacity:0.1;fill:#FFFFFF;enable-background:new    ;}
	.st36{fill:none;stroke:#444053;stroke-miterlimit:10;}
	.st37{fill:url(#SVGID_5_);}
	.st38{fill:#2D293D;}
	.st39{opacity:0.05;}
	.st40{fill:#FFCDD3;}
	.st41{fill:#DCE6F2;}
	.st42{fill:#DC9BA3;}
	.st43{fill:#FFD2D9;}
	.st44{fill:#E9E9EF;}
	.st45{fill:#CEDAD5;}
	.st46{fill:#FFD037;}
	.st47{fill:#A8A8A8;}
	.st48{fill:#844F6E;}
	.st49{opacity:0.2;fill:#FFFFFF;enable-background:new    ;}
	.st50{opacity:0.05;fill:#00FF00;enable-background:new    ;}
	.st51{fill:#7679B4;}
	.st52{fill:#565388;}
	.st53{opacity:0.2;fill:#6C63FF;enable-background:new    ;}
	.st54{opacity:0.2;}
	.st55{opacity:0.1;fill:#252223;enable-background:new    ;}
	.st56{opacity:0.3;fill:#6C63FF;enable-background:new    ;}
	.st57{fill:url(#SVGID_6_);}
	.st58{fill:url(#SVGID_7_);}
	.st59{fill:#F9D5C6;}
	.st60{fill:#353535;}
	.st61{fill:#409CD6;}
	.st62{fill:#2F302F;}
	.st63{fill:none;stroke:#535461;stroke-miterlimit:10;}
</style>
<g>
	<path class="st17" d="M341.55,533.99c-22.41,10.36-43.08,24.59-66.44,32.56c-28.43,9.7-59.14,9.6-89.19,9.38l-121.24-0.85
		c24.55,44.1,67.93,77.31,116.92,89.49c19.22,4.79,39.75,6.66,56.7,16.94c21.12,12.81,33.64,36.9,55.11,49.1
		c23.67,13.43,53.08,9.81,79.46,16.47c34.38,8.63,63.15,34.59,98.22,39.69c33.92,4.93,66.98-10.39,99.86-20.06
		c117.42-34.56,244.27,2.35,365.47-14.73c4.66-0.66,9.62-1.55,12.99-4.82c4.33-4.2,4.69-10.98,3.83-17
		c-4.32-29.96-31.27-51.98-59.53-62.85c-60.21-23.14-127.85-8.6-191.81-16.93c-43.93-5.73-85.72-22.22-126.94-38.58
		c-43.16-17.12-87-33.93-127.9-56.08C405.47,533.17,391.99,510.71,341.55,533.99z"/>
	<path class="st42" d="M721.08,693.05c0,0,1.83,27.46-1.83,32.03c0,0,80.54,14.64,90.6,10.07c10.07-4.58,5.49-11.9,0-14.64
		s-32.95-12.81-36.61-32.03c0,0,11.9-5.49-26.54,1.83S721.08,693.05,721.08,693.05z"/>
	<path class="st27" d="M721.08,693.05c0,0,1.83,27.46-1.83,32.03c0,0,80.54,14.64,90.6,10.07c10.07-4.58,5.49-11.9,0-14.64
		s-32.95-12.81-36.61-32.03c0,0,11.9-5.49-26.54,1.83S721.08,693.05,721.08,693.05z"/>
	<path class="st1" d="M407,310.72l-0.35,0.16c-16.61,7.84-31.06,19.61-42.1,34.29c-6.24,8.24-13.91,16.09-21.2,17.39
		c-16.2,2.86-135.31,126.74-106.72,242.03s195.38,120.05,195.38,120.05s35.47,6.01,55.83,18.04c9.62,5.69,21.27,6.81,31.8,3.06
		c24.23-8.62,64.06-21.12,82.02-17.28C628.34,734.19,857,638.9,857,638.9s-95.29-91.52-235.36-89.57
		c0,0-221.06-154.37-213.44-218.21L407,310.72z"/>
	<path class="st5" d="M407,310.72l-0.35,0.16c-16.61,7.84-31.06,19.61-42.1,34.29c-6.24,8.24-13.91,16.09-21.2,17.39
		c-16.2,2.86-135.31,126.74-106.72,242.03s195.38,120.05,195.38,120.05s35.47,6.01,55.83,18.04c9.62,5.69,21.27,6.81,31.8,3.06
		c24.23-8.62,64.06-21.12,82.02-17.28C628.34,734.19,857,638.9,857,638.9s-95.29-91.52-235.36-89.57
		c0,0-221.06-154.37-213.44-218.21L407,310.72z"/>
	<path class="st1" d="M407.17,310.5l-22.88,21.96c0,0-17.39,33.86-32.95,36.61s-129.96,121.72-102.5,232.46
		s187.61,115.31,187.61,115.31s33.33,5.65,52.94,16.95c9.62,5.63,21.23,6.77,31.77,3.1c23.33-8.24,61.12-20.05,78.18-16.39
		c25.63,5.49,245.27-86.03,245.27-86.03s-91.52-87.86-226.05-86.03c0,0-212.32-148.26-205-209.58L407.17,310.5z"/>
	
		<ellipse transform="matrix(0.7071 -0.7071 0.7071 0.7071 -265.356 497.0936)" class="st5" cx="467.37" cy="568.86" rx="72.17" ry="131.38"/>
	<path class="st43" d="M407.17,426.73c0,0,10.07,16.47,3.66,48.51s16.47,32.03,16.47,32.03h45.76L488.63,467l-21.96,1.83
		c0,0-14.64-3.66-8.24-37.52L407.17,426.73z"/>
	<path class="st43" d="M544.45,388.29c-7,22.28-15.78,49.42-20.46,63.9l-3.33,10.23l-30.2-31.12c0,0,1.33-3.08,3.31-7.4
		c4.42-9.57,12.12-25.2,15.91-26.46c0,0-42.1-2.75-54.91,7.32c-12.81,10.07-9.15-27.46-9.15-27.46s24.71-1.83,33.86-7.32
		c9.15-5.49,58.57-10.98,58.57-10.98S554.52,356.26,544.45,388.29z"/>
	<path class="st5" d="M378.8,664.68c0,0,77.79-35.69,105.25-30.2"/>
	<path class="st5" d="M299.18,580.48c0,0,94.26-3.66,145.52,29.29"/>
	<path class="st5" d="M345.86,618.01c0,0,74.13-18.3,113.48-11.9"/>
	<path class="st43" d="M819.01,657.36l-6.41,46.67l-16.47-1.83c0,0-1-0.92-2.69-2.45c-4.44-3.91-13.67-11.57-22.51-15.74
		c-2.99-1.53-6.23-2.49-9.57-2.86l18.3-27.46c4.45,1.67,9.02,3.02,13.66,4.05c4.82,1.13,9.76,1.71,14.72,1.74
		C811.8,659.55,815.54,658.83,819.01,657.36z"/>
	<path class="st44" d="M773.25,690.31c-8.24,7.32-45.76-8.24-52.17,15.56l-5.89-22.57l-18.15-69.45l-2.5-9.56l-15.12-0.65
		l-173.5-7.4l-9.85-0.4l-5.18-0.22l6.87-3.4l45.76-22.68c0,0,16.47-1.15,39.22-4.27l0,0c34.47-4.72,83.28-13.96,110.85-30.49
		c45.76-27.46,63.15,64.98,63.15,64.98s6.96,23.46,12.26,46.56c2.53,10.98,4.68,21.96,5.49,30.26
		C775.27,683.59,775.03,688.72,773.25,690.31z"/>
	<path class="st27" d="M773.25,690.31c-8.24,7.32-45.76-8.24-52.17,15.56l-5.89-22.57l-18.15-69.45l-2.5-9.56l-15.56-0.92
		l-167.66-10.35l-10.35-0.64l-3.18-0.19l-4.13-0.26l49.88-22.42c0,0,16.47-1.15,39.22-4.27l0,0c34.47-4.72,83.28-13.96,110.85-30.49
		c45.76-27.46,63.15,64.98,63.15,64.98s6.96,23.46,12.26,46.56c2.53,10.98,4.68,21.96,5.49,30.26
		C775.27,683.59,775.03,688.72,773.25,690.31z"/>
	<path class="st5" d="M793.32,657.74l-16.02,18.78l-6.41,7.49c-2.99-1.53-6.23-2.49-9.57-2.86l18.3-27.46
		C784.09,655.37,788.67,656.72,793.32,657.74z"/>
	<path class="st44" d="M792.47,655.53l-17.91,20.99l-8.63,10.12v2.75c-10.56,2.43-43.48-4.5-50.74-6.1
		c-0.92-0.19-1.43-0.31-1.43-0.31c-21.05,0.92-98.84-44.84-98.84-44.84s-85.11,14.64-126.3,10.98c-23-2.05-29.44-10.37-30.65-17.32
		c-0.53-3.44-0.06-6.96,1.36-10.13l36.74-25.84l4.88-3.43l7.79-5.49c0,0,13.54-3.07,30.73-6.86l0,0
		c26.86-5.92,62.66-13.62,69.91-14.18c11.9-0.92,42.1,9.15,59.49,29.29c2.99,3.16,6.38,5.93,10.07,8.24l0.48,0.31
		c4.89,3.24,10.91,6.69,17.62,10.21c22.16,11.67,51.69,24.2,72,32.43C782.91,651.9,792.47,655.53,792.47,655.53z"/>
	<path class="st5" d="M819.01,657.36l-6.41,46.67l-16.47-1.83c0,0-1-0.92-2.69-2.45c3.66,0.08,9.66-0.97,10.93-8.53
		c0,0-6.34-22.19,3.66-31.74C811.8,659.55,815.54,658.83,819.01,657.36z"/>
	<path class="st42" d="M806.2,691.22c0,0-9.15-32.03,11.9-35.69l34.78,13.73l40.27,2.75c0,0,10.52,17.17-6.34,36.39
		c-9.33,10.53-22.55,16.81-36.61,17.39l-44,2.06l-13.73-28.37C792.46,699.47,804.37,702.2,806.2,691.22z"/>
	<path class="st5" d="M582.75,565.23c-4.58,1.35-23.69,7.05-43.23,14.79l0,0c-9.66,3.72-19.07,8.06-28.17,12.99
		c-1.89,1.06-3.66,2.13-5.4,3.21c-5.13,3.25-9.25,6.58-11.81,9.88c-11.29,14.64-27.89,22.48-36.14,25.69
		c-0.53-3.44-0.06-6.96,1.36-10.13l36.71-25.84l-5.18-0.22l6.87-3.4l-4.13-0.26l49.88-22.42
		C543.52,569.52,560.02,568.37,582.75,565.23z"/>
	<path class="st5" d="M523.99,452.19l-3.33,10.23l-30.2-31.12c0,0,1.33-3.08,3.31-7.4C497.59,432,515.82,446.12,523.99,452.19z"/>
	<path class="st45" d="M415.03,467.39c-1.08-3.1-1.87-6.3-2.36-9.55l-39.35,13.73c0,0-27,20.59-24.25,65.44
		c0,0,33.4-12.36,48.05,2.29l0.3,2.58c3.1,25.59,14.42,49.47,32.26,68.07c7.32,7.64,14.14,16.26,17.77,24.53
		c0,0,25.63-7.32,41.18-27.46c15.56-20.13,89.69-41.18,89.69-41.18s-39.35,0.92-44.84-12.81c-5.49-13.73-23.79-43.01-17.39-65.89
		c6.41-22.88,10.07-30.2,10.07-30.2s-37.52-26.54-34.78-34.78l-23.79,27.46l-10.98,3.66c0.86,2.12,1.3,4.4,1.29,6.69
		C458.47,484.85,423.36,490.83,415.03,467.39z"/>
	<path class="st1" d="M196.3,582.09c0,0,7.67,10.07-3.54,25.17c-11.21,15.1-20.45,27.92-16.71,37.37c0,0,16.91-28.12,30.68-28.52
		C220.49,615.72,211.45,599.03,196.3,582.09z"/>
	<path class="st5" d="M196.3,582.09c0.67,0.97,1.2,2.03,1.56,3.15c13.43,15.78,20.58,30.5,7.68,30.88
		c-12.03,0.35-26.45,21.85-29.91,27.28c0.11,0.42,0.25,0.83,0.41,1.24c0,0,16.91-28.12,30.68-28.52
		C220.49,615.73,211.45,599.03,196.3,582.09z"/>
	<path class="st46" d="M210.54,594.91c0,3.53-0.39,6.41-0.92,6.41s-0.92-2.86-0.92-6.41s0.49-1.83,0.98-1.83
		S210.54,591.37,210.54,594.91z"/>
	<path class="st46" d="M215.45,599.13c-3.1,1.69-5.8,2.75-6.03,2.28c-0.23-0.47,2.09-2.15,5.19-3.83c3.1-1.68,1.88-0.46,2.11,0
		C216.96,598.03,218.55,597.43,215.45,599.13z"/>
	<path class="st1" d="M155.79,582.09c0,0-7.67,10.07,3.54,25.17c11.21,15.1,20.45,27.92,16.71,37.37c0,0-16.91-28.12-30.68-28.52
		C131.6,615.72,140.65,599.03,155.79,582.09z"/>
	<path class="st5" d="M155.79,582.09c-0.67,0.97-1.2,2.03-1.56,3.15c-13.43,15.78-20.58,30.5-7.68,30.88
		c12.03,0.35,26.45,21.85,29.91,27.28c-0.11,0.42-0.25,0.83-0.41,1.24c0,0-16.91-28.12-30.68-28.52
		C131.6,615.73,140.65,599.03,155.79,582.09z"/>
	<path class="st46" d="M141.53,594.91c0,3.53,0.39,6.41,0.92,6.41c0.52,0,0.92-2.86,0.92-6.41s-0.49-1.83-0.98-1.83
		S141.53,591.37,141.53,594.91z"/>
	<path class="st46" d="M136.64,599.13c3.1,1.69,5.8,2.75,6.03,2.28c0.23-0.47-2.09-2.15-5.19-3.83c-3.1-1.68-1.88-0.46-2.11,0
		C135.13,598.03,133.54,597.43,136.64,599.13z"/>
	<path class="st47" d="M143.97,643.35c0,0,21.44-0.66,27.9-5.26c6.46-4.6,32.95-10.07,34.59-2.75s32.22,36.71,8.02,36.9
		c-24.21,0.19-56.25-3.77-62.7-7.7C145.33,660.62,143.97,643.35,143.97,643.35z"/>
	<path class="st29" d="M214.92,669.71c-24.21,0.19-56.25-3.77-62.7-7.7c-4.91-2.99-6.87-13.73-7.52-18.68h-0.71
		c0,0,1.35,17.3,7.81,21.22c6.45,3.93,38.49,7.9,62.7,7.7c6.99-0.05,9.4-2.54,9.27-6.22C222.78,668.27,220.12,669.66,214.92,669.71z
		"/>
	<path class="st1" d="M315.38,764.39c1.68-1.37,2.9-3.21,3.51-5.29c0.46-2.1-0.44-4.62-2.45-5.39c-2.25-0.86-4.66,0.7-6.48,2.28
		s-3.92,3.38-6.31,3.04c2.5-2.26,3.62-5.67,2.97-8.98c-0.1-0.67-0.39-1.31-0.82-1.83c-1.25-1.34-3.51-0.76-5.02,0.29
		c-4.76,3.35-6.09,9.81-6.11,15.63c-0.48-2.1-0.07-4.28-0.09-6.41c-0.02-2.12-0.6-4.58-2.42-5.69c-1.12-0.6-2.39-0.9-3.66-0.87
		c-2.14-0.08-4.52,0.14-5.99,1.7c-1.83,1.94-1.35,5.21,0.24,7.32c1.58,2.11,3.98,3.48,6.2,4.96c1.78,1.06,3.29,2.5,4.43,4.22
		c0.13,0.24,0.24,0.49,0.33,0.75h13.39C310.1,768.6,312.89,766.67,315.38,764.39z"/>
	<path class="st1" d="M374.87,793.5c1.68-1.37,2.9-3.21,3.51-5.29c0.46-2.1-0.44-4.62-2.45-5.39c-2.25-0.86-4.66,0.7-6.48,2.28
		c-1.82,1.58-3.92,3.38-6.31,3.04c2.5-2.26,3.62-5.67,2.97-8.98c-0.1-0.67-0.39-1.31-0.82-1.83c-1.25-1.34-3.51-0.76-5.02,0.29
		c-4.76,3.35-6.09,9.81-6.11,15.63c-0.48-2.1-0.07-4.28-0.09-6.41c-0.02-2.12-0.6-4.58-2.42-5.69c-1.12-0.6-2.39-0.9-3.66-0.87
		c-2.14-0.08-4.52,0.14-5.99,1.7c-1.83,1.94-1.35,5.21,0.24,7.32s3.98,3.48,6.2,4.96c1.78,1.06,3.29,2.5,4.43,4.22
		c0.13,0.24,0.24,0.49,0.33,0.75h13.39C369.59,797.71,372.38,795.78,374.87,793.5z"/>
	<path class="st1" d="M447.9,655.07c0,0,88.77-36.61,161.07-1.83l-17.39,36.61l-83.28,1.83L447.9,655.07z"/>
	<path class="st5" d="M457.03,443.33c0.28-3.42,0.74-6.82,1.39-10.2l-51.25-4.58c0,0,3.55,3.07,5.1,14.51
		c6.01,3.57,13.03,8.37,20.53,8.37C441.55,451.46,450.06,448.61,457.03,443.33z"/>
	<circle class="st43" cx="433.26" cy="409.8" r="40.27"/>
	<path class="st48" d="M403.51,420.33H409v-15.56l5.49-16.47c0,0,27.46-12.81,40.27-10.07l10.07,9.15c0,0,2.75-21.96-13.73-30.2
		c-16.47-8.24-45.76-4.58-53.08,1.83c-7.32,6.41-19.22,17.39-10.07,47.59l2.75,7.32C390.7,413.92,401.68,410.26,403.51,420.33z"/>
	<g class="st39">
		<path d="M474.64,441.47l3-1l13.86-15.95c-0.27-0.76-0.3-1.58-0.09-2.35L474.64,441.47z"/>
		<path d="M455.38,470.98c7.26-3.2,12.81-10.16,12.57-20.13c0-0.54,0-1.05-0.09-1.54l-0.29,0.33l-10.98,3.66
			c0.86,2.12,1.3,4.4,1.29,6.69C458.01,463.81,457.15,467.6,455.38,470.98z"/>
		<path d="M562.13,565.09c-22.93,7.98-54,20.55-63.44,32.78c-0.23,0.3-0.47,0.59-0.7,0.92c25.13-17.23,80.33-32.95,80.33-32.95
			C572.91,565.9,567.51,565.65,562.13,565.09z"/>
		<path d="M457.51,625.33c-3.66-8.24-10.5-16.89-17.77-24.53c-17.84-18.6-29.16-42.49-32.26-68.07l-0.3-2.58
			c-14.64-14.64-48.05-2.29-48.05-2.29c-1.74-28.44,8.48-47.12,16.19-56.99l-2,0.7c0,0-27,20.59-24.25,65.44
			c0,0,33.4-12.36,48.05,2.29l0.3,2.58c3.1,25.59,14.42,49.47,32.26,68.07c7.32,7.64,14.14,16.26,17.77,24.53
			c0,0,22.3-6.41,37.93-23.58C476.95,617.23,467.53,622.1,457.51,625.33z"/>
	</g>
	<path class="st43" d="M447.44,518.25c0,0-43.93,63.15-66.81,81.45c-22.88,18.3-29.29-8.24-29.29-8.24v-58.57l40.27-4.58l0.43,5.56
		l0.49,6.34l37.52-40.27c0,0,37.52-33.86,44.84-13.73C482.22,506.35,447.44,518.25,447.44,518.25z"/>
	<path class="st5" d="M392.05,533.87c-5.5,3.2-11.33,5.79-17.39,7.72c-8.65,2.66-18.56-0.14-23.34-1.83v-6.84l40.27-4.58
		L392.05,533.87z"/>
	<path class="st45" d="M350.89,526.94l-2.41,9.8c0,0,14.3,6.67,26.2,3.01c11.9-3.66,21.05-10.07,22.88-10.98
		c1.83-0.92-7.32-10.98-7.32-10.98L350.89,526.94z"/>
	<path class="st5" d="M614.46,638.6c6.1-4.68,12.9-8.39,20.13-10.98c6.88-2.36,13.36-5.76,19.22-10.07"/>
	<path class="st49" d="M893.14,672l-1.5-0.1c2.18,5.49,5.33,19.03-7.59,33.77c-9.33,10.53-22.55,16.81-36.61,17.39l-42.62,2
		l1.36,2.81l44.01-2.09c14.06-0.58,27.27-6.86,36.61-17.39C903.66,689.17,893.14,672,893.14,672z"/>
	<path class="st50" d="M685.61,719.13h-0.14c0.12,2.16,0.33,6.62,0.37,11.51C685.88,726.35,685.74,722.12,685.61,719.13z"/>
	<path class="st50" d="M737.74,711.23c0.13,0.56,0.27,1.1,0.43,1.64C739.07,712.35,740.36,711.38,737.74,711.23z"/>
	<path class="st49" d="M809.86,732.41c-9.38,4.26-79.92-8.15-89.51-9.87c-0.19,0.91-0.56,1.78-1.09,2.55c0,0,80.54,14.64,90.6,10.07
		c5.18-2.35,6.48-5.44,5.77-8.24C815.1,728.86,813.38,730.8,809.86,732.41z"/>
	<path class="st50" d="M685.47,719.14c-0.05-0.92-0.08-1.38-0.08-1.38S680.73,719.43,685.47,719.14z"/>
	<path class="st5" d="M413.2,389.67h55.68c2.06,0,3.73,1.67,3.73,3.73v23.65c0,2.06-1.67,3.73-3.73,3.73H413.2
		c-2.06,0-3.73-1.67-3.73-3.73V393.4C409.46,391.34,411.13,389.67,413.2,389.67z"/>
	<path class="st5" d="M387.9,399.73h22.07c1.23,0,2.23,1,2.23,2.23v7.43c0,1.23-1,2.23-2.23,2.23H387.9c-1.23,0-2.23-1-2.23-2.23
		v-7.43C385.67,400.73,386.67,399.73,387.9,399.73z"/>
	<path class="st51" d="M413.2,388.75h55.68c2.06,0,3.73,1.67,3.73,3.73v23.65c0,2.06-1.67,3.73-3.73,3.73H413.2
		c-2.06,0-3.73-1.67-3.73-3.73v-23.65C409.46,390.42,411.13,388.75,413.2,388.75z"/>
	<path class="st52" d="M420.56,390.58h48.25c2.06,0,3.73,1.67,3.73,3.73v19.99c0,2.06-1.67,3.73-3.73,3.73h-48.25
		c-2.06,0-3.73-1.67-3.73-3.73v-19.99C416.83,392.25,418.5,390.58,420.56,390.58z"/>
	<path class="st52" d="M387.9,398.82h22.07c1.23,0,2.23,1,2.23,2.23v7.43c0,1.23-1,2.23-2.23,2.23H387.9c-1.23,0-2.23-1-2.23-2.23
		v-7.43C385.67,399.82,386.67,398.82,387.9,398.82z"/>
	<path class="st5" d="M458.85,390.56c9.9-5.99,17.95-14.61,23.23-24.91c0.61-1.2,1.2-2.54,0.86-3.84c-0.65-2.49-3.9-2.93-6.24-4
		c-4.37-2-6.21-7.07-9.07-10.92c-4.99-6.55-13.25-9.74-21.35-8.24c-4.17,0.84-8.04,2.91-12.25,3.53c-9.08,1.33-18.98-4.17-27.14,0
		c-3.72,1.91-6.23,5.49-8.45,9.06c-5.56,8.89-12.52,18.3-7.47,28.73c2.9,5.96,7.53,10.9,14.04,12.64
		c6.51,1.74,14.04,0.29,20.66-0.43c5.45-0.59,11.15-1.83,16.63-1.25C448.71,391.62,452.72,394.24,458.85,390.56z"/>
	<path class="st48" d="M458.85,388.73c9.9-5.99,17.95-14.61,23.23-24.91c0.61-1.2,1.2-2.54,0.86-3.84c-0.65-2.49-3.9-2.93-6.24-4
		c-4.37-2-6.21-7.07-9.07-10.92c-4.99-6.55-13.25-9.74-21.35-8.24c-4.17,0.84-8.04,2.91-12.25,3.53c-9.08,1.33-18.98-4.17-27.14,0
		c-3.72,1.91-6.23,5.49-8.45,9.06c-5.56,8.89-12.52,18.3-7.47,28.73c2.9,5.96,7.53,10.9,14.04,12.64
		c6.51,1.74,14.04,0.29,20.66-0.43c5.45-0.59,11.15-1.83,16.63-1.25C448.71,389.79,452.72,392.41,458.85,388.73z"/>
	<polygon class="st53" points="1015.31,494.23 617.21,565.38 617.21,351.91 1015.31,280.76 	"/>
	<polygon class="st53" points="932.83,305.39 1006.46,292.69 1007.53,325.69 931.95,338.32 	"/>
	<g class="st54">
		<path class="st55" d="M789.62,489.59c2.5-0.56,5.06-0.78,7.61-0.63c15.05,0.27,30.68,1.74,45.45-2.75
			c7.84-2.36,14.88-6.26,22.97-7.93c13.73-2.83,27.46,1.3,40.95-2.14c2.75-0.7,6.1-1.69,8.05-0.63c2.26,1.23,0.66,4.41,3.41,5.22
			c0.87,0.11,1.73,0.3,2.56,0.59c1.01,0.59,0.38,1.83-0.63,2.63c-6.12,4.97-18.58,1.67-26.25,5.68c-1.7,0.92-2.98,2.07-4.58,3.02
			c-2.52,1.3-5.19,2.28-7.95,2.93l-42.58,11.9c-10.2,2.85-20.53,5.73-31.07,6.98c-10.54,1.25-21.48,0.74-29.2-2.84
			c-1.66-0.77-3.19-1.71-3.83-2.99C771.55,502.57,779.02,492.41,789.62,489.59z"/>
		<polygon class="st56" points="752.05,405.28 787.68,433.45 823.31,461.61 764.79,472.67 706.28,483.73 729.17,444.5 		"/>
		<polygon class="st56" points="789.1,398.76 824.73,426.92 860.36,455.09 801.84,466.15 743.32,477.21 766.21,437.99 		"/>
		<polygon class="st1" points="844.2,340.16 775.45,471.15 905.84,445.77 954.03,436.66 		"/>
		<polygon class="st5" points="954.03,436.66 905.84,445.77 844.2,340.16 		"/>
		
			<linearGradient id="SVGID_1_" gradientUnits="userSpaceOnUse" x1="471.0179" y1="-3687.5242" x2="471.0179" y2="-3583.1785" gradientTransform="matrix(0.9826 -0.1857 -0.1857 -0.9826 -303.5616 -3038.1482)">
			<stop  offset="0" style="stop-color:#808080;stop-opacity:0.25"/>
			<stop  offset="0.54" style="stop-color:#808080;stop-opacity:0.12"/>
			<stop  offset="1" style="stop-color:#808080;stop-opacity:0.1"/>
		</linearGradient>
		<path class="st4" d="M880.46,400.89c-0.48-1.76-2.16-2.92-3.97-2.75c0,0,0.92-7.19-13.91-4.29c-0.92-1.87-3.19-2.65-5.06-1.72
			c-0.29,0.14-0.56,0.32-0.81,0.53l-0.63-3.34c0,0-8.13,4.66,0.49,11.3l1.03,5.49c0.03,0.14,0.07,0.27,0.13,0.4
			c0.05,0.1,0.08,0.2,0.11,0.31c0.39,1.6,3.29,14.3-3.29,18.63c-7.04,4.71-11.06-9.81-11.06-9.81c-4.58-18.97-13.29-18.9-15.36-18.6
			c-0.25,0-0.5,0.05-0.76,0.07c-0.97,0.05-3.98,1.13-5.13,12.07c-1.38,13.12-6.41,9.85-6.41,9.85c-11.27-6.14-19.22-0.77-19.22-0.77
			c-19.55,11.49-2.93,33.06,0.5,37.15c-1.29,6.51-3.9,17.97-6.41,18.45c-3.55,0.67-10.2,13.13,7.8,32.52l4.79-0.92
			c0,0-14.8-19.33-3.15-28.95c-0.25,0.71-0.56,1.4-0.92,2.06c-6.53,11.16,15.68,24.6,15.68,24.6l5.33-1.01l-12.3-15.49
			c-4.89-6.41,4.23-11.64,4.23-11.64c10.79-9.02,5.23-19.91,5.23-19.91l25.19-4.76c-3.11,6.88-7.69,23.79,7.52,46.07l3.55-0.67
			l-2.9-27.02c0,0,0.92-5.81,7.08-14.58c2.45,10.98,7.65,29.94,15.5,37.87l5.14-0.97c0,0-6.27-17.98-6.41-24.71
			c-0.06-2.75-0.18-5.45-0.43-8.15l-1.28-14.17c4.25-2.7,6.4-7.74,5.4-12.68l-4.73-24.58c-0.27-1.4,0.65-2.76,2.05-3.03
			c0.05-0.01,0.1-0.02,0.14-0.02l6.07-0.82c0.83-0.15,1.38-0.93,1.23-1.76C880.51,401.06,880.49,400.97,880.46,400.89z"/>
		<path class="st11" d="M855.75,446.06c0,0,5.69,33.92,16.83,45.16l5.05-0.92c0,0-6.15-17.65-6.31-24.23
			c-0.06-2.67-0.17-5.34-0.42-8.01l-2.07-22.88L855.75,446.06z"/>
		<path class="st27" d="M855.75,446.06c0,0,5.69,33.92,16.83,45.16l5.05-0.92c0,0-6.15-17.65-6.31-24.23
			c-0.06-2.67-0.17-5.34-0.42-8.01l-2.07-22.88L855.75,446.06z"/>
		<path class="st11" d="M798.55,450.92c0,0-3.66,21.79-7.12,22.45c-3.46,0.66-10.01,12.9,7.66,31.92l4.7-0.92
			c0,0-16.29-21.27-0.8-29.97C802.99,474.43,805.69,456.24,798.55,450.92z"/>
		<path class="st27" d="M798.55,450.92c0,0-3.66,21.79-7.12,22.45c-3.46,0.66-10.01,12.9,7.66,31.92l4.7-0.92
			c0,0-16.29-21.27-0.8-29.97C802.99,474.43,805.69,456.24,798.55,450.92z"/>
		<path class="st11" d="M857.15,406.89l-1.02-5.36c-8.45-6.52-0.48-11.09-0.48-11.09l1.09,5.75c20.02-5.77,18.94,2.91,18.94,2.91
			c1.77-0.18,3.42,0.94,3.9,2.66c0.28,0.78-0.13,1.63-0.91,1.9c-0.1,0.03-0.2,0.06-0.3,0.07l-5.96,0.81
			c-1.39,0.19-2.37,1.47-2.18,2.86c0.01,0.05,0.01,0.09,0.02,0.14l4.64,24.13c0.68,3.5-0.21,7.11-2.43,9.89
			c-1.72,2.11-4.48,4.02-8.87,4.71l-45.98,8.69c0,0,5.49,10.7-5.14,19.55c0,0-8.95,5.12-4.15,11.43l12.07,15.21l-5.23,0.99
			c0,0-21.79-13.2-15.38-24.15c3.54-7.09,2.98-15.54-1.47-22.09c0,0-22.33-24.64-1.07-37.14c0,0,7.84-5.27,18.9,0.76
			c0,0,4.93,3.21,6.29-9.66c1.13-10.74,4.08-11.8,5.03-11.85c0.25,0,0.49,0,0.74-0.07c2.03-0.29,10.61-0.37,15.08,18.26
			c0,0,3.95,14.22,10.84,9.67c6.45-4.26,3.66-16.72,3.23-18.3c-0.03-0.1-0.06-0.2-0.11-0.3l0,0
			C857.2,407.15,857.16,407.02,857.15,406.89z"/>
		<path class="st11" d="M844.17,446.98c0,0-14.15,19.63,5.57,48.51l3.49-0.66l-2.85-26.54c0,0,1.68-11.14,16.96-25.75L844.17,446.98
			z"/>
		<circle class="st11" cx="858.7" cy="396.58" r="3.72"/>
		
			<linearGradient id="SVGID_2_" gradientUnits="userSpaceOnUse" x1="460.8266" y1="-3637.3323" x2="460.8266" y2="-3553.6274" gradientTransform="matrix(0.9826 -0.1857 -0.1857 -0.9826 -303.5616 -3038.1482)">
			<stop  offset="0" style="stop-color:#808080;stop-opacity:0.25"/>
			<stop  offset="0.54" style="stop-color:#808080;stop-opacity:0.12"/>
			<stop  offset="1" style="stop-color:#808080;stop-opacity:0.1"/>
		</linearGradient>
		<path class="st7" d="M843.01,420.97c4.3-6.54,1.74-6.97,0.07-8.69c-1.13-1.17-10.67-1.62-16.61-1.78
			c-0.13-0.46-0.33-1.23-0.57-2.16c0,0-0.48-1.72-0.7-2.93l0,0h0.38l-0.05-0.36l7.32-0.39c6.25-0.26,6.55-2.75,6.55-2.75
			c0.15-4.27-6.91-0.17-6.91-0.17c-1.4,0.69-5.12,0.17-8.02-0.39c-0.08-0.61-0.13-1.22-0.14-1.83c0.04-0.95-0.03-1.89-0.18-2.83
			c-0.1-0.81-0.42-1.57-0.92-2.21c-2.15-2.57-4.63-4.83-7.38-6.74c-0.16-1.61-0.01-3.25,0.44-4.8c2.28-1.17,3.53-3.69,3.08-6.21
			c-0.11-0.56-0.3-1.11-0.57-1.61c1.31-1.74,0.7-4.71-1.12-6.34c-0.19-0.17-0.4-0.33-0.62-0.47c-1.18-0.79-2.6-1.11-4-0.92
			c-1.56,0.26-3.05,0.86-4.34,1.78c-1.55,1.02-3.05,2.32-4.9,2.53c-1.34,0.15-2.75-0.31-4,0.1c-1.66,0.53-2.51,2.3-3.04,3.92
			c-0.53,1.62-1.04,3.4-2.48,4.37c-1.25,0.84-2.87,0.83-4.35,1.19c-2.09,0.44-3.82,1.89-4.62,3.87c-0.6,1.8,0.09,3.79,1.67,4.84
			c0.24,0.18,0.51,0.32,0.79,0.43c0.31,0.1,0.62,0.22,0.92,0.36c0.16,0.12,0.27,0.3,0.3,0.5c0,0.25-0.05,0.5-0.16,0.72
			c-0.34,1.02-0.25,2.14,0.27,3.08c0.17,0.34,0.43,0.63,0.76,0.82c0.09,0.08,0.19,0.14,0.3,0.19c1.07,0.47,2.4-0.59,3.46-0.11h0.08
			c0.41,0.45,0.77,0.94,1.06,1.47c0.25,0.31,0.56,0.58,0.92,0.77c0.93,0.61,2.06,0.85,3.16,0.68c1.4-0.27,2.73-0.8,3.93-1.57
			c1.62-0.92,3.39-2.19,3.51-4c0.07-1.11-0.5-2.18-0.37-3.28c0.07-0.52,0.29-1.02,0.61-1.44c-0.18,0.93-0.25,1.87-0.19,2.82
			c0.03,0.77,0.12,1.53,0.27,2.28c0.35,1.96,1.05,3.85,2.09,5.56c1.39,2.22,2.4,4.65,3.01,7.2c0.22,1.12,0.24,2.28,0.05,3.4
			c-0.59,3.28-0.52,4.69-0.36,5.28c0.1,0.81,0.37,0.81,0.37,0.81h0.06c0.06,1.12,0.57,2.17,1.43,2.9
			c8.28,3.42,25.13-1.43,25.13-1.43c-3.4,1.2-5.84,10.52-5.84,10.52c-0.37,2.03-1.22,3.94-2.47,5.58l0,0
			c-1.83-0.27-3.99,1.78-5.62,2.97l-0.14,0.09c-0.61,0.42-0.77,1.26-0.35,1.87c0.03,0.05,0.07,0.1,0.11,0.14l6.48,7.1
			c3.73,2.64,5.88,2.82,6.49,2.07c0.39-0.49,0.13-1.37-0.79-2.22c-2.21-2.06-1.89-8.74-1.83-9.31
			C835.49,433.97,839.4,426.47,843.01,420.97z"/>
		<path class="st59" d="M816.83,382.08c0,0-1.89,4.33-0.64,8.05l-7.02-3.72c0,0,2.23-0.6,1.77-5.92L816.83,382.08z"/>
		<path class="st60" d="M821.54,410.77c0,0,18.62,0.27,20.21,1.95c1.58,1.68,4.01,2.13,0,8.48c-4.01,6.35-8.44,15.49-8.44,15.49
			l-4.74-2.17c1.72-1.82,2.86-4.1,3.27-6.57c0,0,2.25-9.09,5.49-10.23c0,0-15.9,4.63-23.79,1.24c0,0-2.1-1.58-1.13-5.02
			C813.38,410.51,821.54,410.77,821.54,410.77z"/>
		<path class="st5" d="M811.19,386.57c0,0-4.65-1.14-4.31,5.99c0.13,2.58,0.89,5.1,2.21,7.32c1.51,2.58,3.66,7.02,3.03,10.71
			c-0.92,5.58,0,5.59,0,5.59l2.38-1.45c3.21-1.96,6.89-3,10.64-3.02h1.11c0,0-2.23-8.02-2.28-11.57c0-1.68,0-3.25-1.02-4.58
			C819.79,391.47,813.42,386.56,811.19,386.57z"/>
		<path class="st61" d="M811.13,386.24c0,0-4.65-1.14-4.31,5.99c0.13,2.58,0.89,5.1,2.21,7.32c1.51,2.58,3.66,7.02,3.03,10.71
			c-0.92,5.58,0,5.59,0,5.59l2.38-1.45c3.21-1.96,6.89-3,10.64-3.02h1.11c0,0-2.23-8.02-2.28-11.57c0-1.68,0-3.25-1.02-4.58
			C819.72,391.12,813.35,386.24,811.13,386.24z"/>
		<path class="st5" d="M809.4,391.95c0.63-1.74,2.56-2.63,4.29-2c0.45,0.16,0.86,0.42,1.2,0.75c0.72,0.75,1.29,1.64,1.68,2.6
			c2.21,5,3.88,8.11,3.88,8.11c1.42,0.21,2.82,0.53,4.18,0.97c0.21,1.71,0.49,3.49,0.49,3.49l-5.94,0.29l-8.14-9.65
			C811.05,396.52,808.57,394.48,809.4,391.95z"/>
		<path class="st59" d="M809.33,391.6c0.63-1.74,2.56-2.63,4.29-2c0.45,0.16,0.86,0.42,1.2,0.75c0.72,0.75,1.29,1.64,1.68,2.6
			c2.21,5,3.88,8.11,3.88,8.11s8.94,2.46,11.25,1.3c0,0,6.64-3.96,6.53,0.21c0,0-0.27,2.4-6.18,2.61l-12.87,0.63l-8.14-9.65
			C810.98,396.16,808.5,394.09,809.33,391.6z"/>
		<path class="st5" d="M810.4,382.84c0.17-0.83,0.57-0.51,0.44-1.98l5.89,1.59c-0.24,0.6-0.45,1.21-0.6,1.83
			c-0.59,0.2-1.21,0.32-1.83,0.34C813,384.88,811.5,383.45,810.4,382.84z"/>
		<circle class="st59" cx="813.53" cy="378.96" r="5.67"/>
		<path class="st5" d="M815.85,377.6c-1.01,0.05-2.1-0.27-2.96,0.27c-0.85,0.53-1.1,1.99-0.92,3.12s0.66,2.28,0.39,3.4
			c-0.36,1.47-1.83,2.38-3.11,3.16s-2.75,1.83-2.88,3.31c-0.12,1.07,0.43,2.12,0.37,3.2c-0.11,1.77-1.77,2.98-3.3,3.88
			c-1.11,0.74-2.35,1.25-3.66,1.51c-1.35,0.24-2.73-0.26-3.61-1.32c-0.41-0.57-0.66-1.33-1.3-1.62c-1.01-0.48-2.26,0.55-3.27,0.09
			c-0.35-0.19-0.64-0.49-0.81-0.85c-0.49-0.92-0.58-2.01-0.27-3c0.1-0.22,0.15-0.46,0.14-0.7c-0.08-0.58-0.79-0.77-1.34-0.98
			c-1.87-0.89-2.79-3.04-2.14-5.01c0.72-1.91,2.35-3.32,4.35-3.75c1.39-0.35,2.93-0.33,4.1-1.13c1.35-0.92,1.83-2.68,2.32-4.26
			c0.49-1.57,1.28-3.29,2.85-3.8c1.21-0.39,2.52,0.05,3.78-0.07c1.75-0.18,3.16-1.45,4.58-2.43c1.21-0.88,2.61-1.47,4.09-1.71
			c1.5-0.23,3.02,0.2,4.17,1.19C819.94,372.4,820.1,377.38,815.85,377.6z"/>
		<path class="st62" d="M815.64,377.47c-1.01,0.05-2.1-0.27-2.96,0.27s-1.1,1.99-0.92,3.12s0.66,2.28,0.39,3.4
			c-0.36,1.47-1.83,2.38-3.11,3.16c-1.28,0.78-2.75,1.83-2.88,3.31c-0.12,1.07,0.43,2.12,0.37,3.2c-0.11,1.77-1.77,2.98-3.3,3.88
			c-1.11,0.74-2.35,1.25-3.66,1.51c-1.35,0.24-2.72-0.25-3.61-1.3c-0.41-0.57-0.66-1.33-1.3-1.62c-1.01-0.48-2.26,0.55-3.27,0.09
			c-0.35-0.19-0.64-0.49-0.81-0.85c-0.49-0.92-0.58-2.01-0.27-3c0.1-0.22,0.15-0.46,0.14-0.7c-0.08-0.58-0.79-0.77-1.34-0.98
			c-1.87-0.89-2.79-3.04-2.14-5.01c0.72-1.91,2.35-3.32,4.35-3.75c1.39-0.35,2.93-0.33,4.1-1.13c1.35-0.92,1.83-2.68,2.32-4.26
			c0.49-1.57,1.28-3.29,2.85-3.8c1.21-0.39,2.52,0.05,3.78-0.07c1.75-0.18,3.16-1.45,4.58-2.43c1.21-0.88,2.61-1.47,4.09-1.71
			c1.5-0.23,3.02,0.2,4.17,1.19C819.73,372.26,819.89,377.23,815.64,377.47z"/>
		<path class="st5" d="M817.31,391.82c0,0-7.32,0.48-6.7,5.59c0.62,5.12-2.54-5.83-2.54-5.83l2.85-3.07l4.06,0.49L817.31,391.82z"/>
		<path class="st61" d="M817.12,391.67c0,0-7.32,0.48-6.7,5.59c0.62,5.12-2.54-5.83-2.54-5.83l2.85-3.07l4.06,0.49L817.12,391.67z"
			/>
		<path class="st61" d="M823.87,438.27l6.17,6.96c3.55,2.6,5.58,2.75,6.15,2.06c0.37-0.48,0.11-1.34-0.76-2.17
			c-2.21-2.1-1.83-9.15-1.83-9.15c-1.79,0.06-3.42-1-4.11-2.65c-1.75-0.27-3.76,1.71-5.3,2.86l-0.13,0.09
			c-0.6,0.43-0.73,1.27-0.3,1.87C823.8,438.19,823.83,438.23,823.87,438.27z"/>
		<path class="st5" d="M833.61,435.99c0,0-3.51,0.49-4.11-2.65C830.21,434.97,831.83,436.02,833.61,435.99z"/>
		<path class="st5" d="M823.87,438.27l6.17,6.96c3.55,2.6,5.58,2.75,6.15,2.06c-1.78-0.55-6.8-2.75-11.98-11.08l-0.13,0.09
			c-0.6,0.44-0.73,1.27-0.29,1.87C823.81,438.21,823.84,438.24,823.87,438.27z"/>
		<path class="st1" d="M722.89,492.78c0,0-16.32,14.59,20.87,25.25c0,0,4.85-15.3-5.56-25.06c-4.19-3.94-10.66-4.13-15.06-0.44
			L722.89,492.78z"/>
		<path class="st63" d="M723.04,492.51c0,0,18.06,9.05,20.71,25.52"/>
		<path class="st19" d="M742.73,518.19c0,0-9.47-18.51-5.34-34.22c1.78-6.6,1.37-13.59-1.17-19.93c-1.23-3-2.72-5.87-4.48-8.59"/>
		<path class="st1" d="M734.28,445.57c0.46,2.4-2.58,10.19-2.58,10.19s-5.67-6.14-6.11-8.54c-0.45-2.4,1.12-4.72,3.52-5.17
			C731.51,441.59,733.83,443.17,734.28,445.57L734.28,445.57z"/>
		<path class="st1" d="M743.98,457.51c-0.92,2.26-7.7,7.15-7.7,7.15s-1.42-8.24-0.49-10.5c0.92-2.27,3.52-3.37,5.79-2.44
			c2.27,0.92,3.37,3.52,2.44,5.79H743.98z"/>
		<path class="st1" d="M747.96,480.3c-1.94,1.48-10.26,2.29-10.26,2.29s2.94-7.82,4.87-9.31c1.94-1.49,4.71-1.12,6.2,0.82
			C750.26,476.04,749.89,478.81,747.96,480.3L747.96,480.3z"/>
		<path class="st1" d="M747.09,498.22c-1.66,1.83-9.72,3.98-9.72,3.98s1.57-8.24,3.23-9.99c1.66-1.79,4.46-1.9,6.25-0.24
			C748.65,493.63,748.75,496.43,747.09,498.22L747.09,498.22z"/>
		<path class="st1" d="M727.24,466.84c2.04,1.35,10.39,1.56,10.39,1.56s-3.47-7.6-5.49-8.95c-2.04-1.35-4.78-0.79-6.13,1.25
			s-0.79,4.78,1.25,6.13l0,0H727.24z"/>
		<path class="st1" d="M726.49,487.83c2.35,0.68,10.38-1.62,10.38-1.62s-5.58-6.21-7.93-6.89c-2.35-0.67-4.8,0.68-5.47,3.03
			C722.79,484.7,724.15,487.15,726.49,487.83L726.49,487.83L726.49,487.83z"/>
		<path class="st1" d="M728.53,508.3c2.2,1.06,10.51,0.16,10.51,0.16s-4.46-7.07-6.65-8.13c-2.2-1.06-4.85-0.14-5.91,2.06
			C725.41,504.6,726.33,507.25,728.53,508.3L728.53,508.3z"/>
		<path class="st20" d="M734.28,445.57c0.46,2.4-2.58,10.19-2.58,10.19s-5.67-6.14-6.11-8.54c-0.45-2.4,1.12-4.72,3.52-5.17
			C731.51,441.59,733.83,443.17,734.28,445.57L734.28,445.57z"/>
		<path class="st20" d="M743.98,457.51c-0.92,2.26-7.7,7.15-7.7,7.15s-1.42-8.24-0.49-10.5c0.92-2.27,3.52-3.37,5.79-2.44
			c2.27,0.92,3.37,3.52,2.44,5.79H743.98z"/>
		<path class="st20" d="M747.96,480.3c-1.94,1.48-10.26,2.29-10.26,2.29s2.94-7.82,4.87-9.31c1.94-1.49,4.71-1.12,6.2,0.82
			C750.26,476.04,749.89,478.81,747.96,480.3L747.96,480.3z"/>
		<path class="st20" d="M747.09,498.22c-1.66,1.83-9.72,3.98-9.72,3.98s1.57-8.24,3.23-9.99c1.66-1.79,4.46-1.9,6.25-0.24
			C748.65,493.63,748.75,496.43,747.09,498.22L747.09,498.22z"/>
		<path class="st20" d="M727.24,466.84c2.04,1.35,10.39,1.56,10.39,1.56s-3.47-7.6-5.49-8.95c-2.04-1.35-4.78-0.79-6.13,1.25
			s-0.79,4.78,1.25,6.13l0,0H727.24z"/>
		<path class="st20" d="M726.49,487.83c2.35,0.68,10.38-1.62,10.38-1.62s-5.58-6.21-7.93-6.89c-2.35-0.67-4.8,0.68-5.47,3.03
			C722.79,484.7,724.15,487.15,726.49,487.83L726.49,487.83L726.49,487.83z"/>
		<path class="st20" d="M728.53,508.3c2.2,1.06,10.51,0.16,10.51,0.16s-4.46-7.07-6.65-8.13c-2.2-1.06-4.85-0.14-5.91,2.06
			C725.41,504.6,726.33,507.25,728.53,508.3L728.53,508.3z"/>
		<path class="st19" d="M760.57,521.69c0,0-9.47-18.51-5.34-34.22c1.77-6.58,1.37-13.56-1.16-19.89c-1.23-3-2.72-5.87-4.48-8.59"/>
		<path class="st1" d="M752.15,449.06c0.46,2.4-2.58,10.19-2.58,10.19s-5.67-6.14-6.11-8.54c-0.45-2.4,1.12-4.72,3.52-5.17
			C749.38,445.08,751.7,446.66,752.15,449.06L752.15,449.06z"/>
		<path class="st1" d="M761.86,461.01c-0.92,2.26-7.7,7.15-7.7,7.15s-1.42-8.24-0.49-10.5c0.92-2.27,3.52-3.37,5.79-2.44
			c2.27,0.92,3.37,3.52,2.44,5.79H761.86z"/>
		<path class="st1" d="M765.84,483.79c-1.94,1.48-10.26,2.29-10.26,2.29s2.94-7.82,4.87-9.31c1.94-1.49,4.71-1.12,6.2,0.82
			C768.13,479.53,767.77,482.31,765.84,483.79L765.84,483.79L765.84,483.79z"/>
		<path class="st1" d="M764.97,501.71c-1.66,1.83-9.72,3.98-9.72,3.98s1.56-8.24,3.23-9.99c1.66-1.79,4.46-1.9,6.25-0.24
			C766.52,497.12,766.63,499.92,764.97,501.71L764.97,501.71L764.97,501.71z"/>
		<path class="st1" d="M745.12,470.34c2.04,1.35,10.39,1.56,10.39,1.56s-3.47-7.6-5.49-8.95c-2.04-1.35-4.78-0.79-6.13,1.25
			c-1.35,2.04-0.79,4.78,1.25,6.13H745.12z"/>
		<path class="st1" d="M744.37,491.32c2.35,0.68,10.38-1.62,10.38-1.62s-5.58-6.21-7.93-6.89c-2.35-0.67-4.8,0.68-5.47,3.03
			C740.66,488.18,742.02,490.63,744.37,491.32L744.37,491.32L744.37,491.32z"/>
		<path class="st1" d="M746.43,511.8c2.2,1.06,10.51,0.16,10.51,0.16s-4.46-7.07-6.65-8.13c-2.2-1.06-4.85-0.14-5.91,2.06
			C743.31,508.1,744.23,510.74,746.43,511.8L746.43,511.8L746.43,511.8z"/>
		<path class="st55" d="M798.38,352.56l-1.61,0.3c0.62-0.12,1.03-0.72,0.91-1.34c-0.12-0.62-0.72-1.03-1.34-0.91l0,0l-13.04,2.46
			c-0.62,0.12-1.03,0.72-0.91,1.34c0.12,0.62,0.72,1.03,1.34,0.91l0,0l1.61-0.3c-0.62,0.12-1.03,0.72-0.91,1.34
			c0.12,0.62,0.72,1.03,1.34,0.91l-2.25,0.43c-0.62,0.12-1.03,0.72-0.91,1.34c0.12,0.62,0.72,1.03,1.34,0.91l0,0l13.04-2.46
			c0.62-0.12,1.03-0.72,0.91-1.34c-0.12-0.62-0.72-1.03-1.34-0.91l2.25-0.43c0.62-0.12,1.03-0.72,0.91-1.34
			S799,352.45,798.38,352.56z"/>
		<path class="st55" d="M774.76,374.96l-1.61,0.3c0.62-0.12,1.03-0.72,0.91-1.34c-0.12-0.62-0.72-1.03-1.34-0.91l-13.07,2.46
			c-0.62,0.12-1.03,0.72-0.91,1.34c0.12,0.62,0.72,1.03,1.34,0.91l1.61-0.3c-0.62,0.12-1.03,0.72-0.91,1.34
			c0.12,0.62,0.72,1.03,1.34,0.91l0,0l-2.25,0.43c-0.62,0.12-1.03,0.72-0.91,1.34c0.12,0.62,0.72,1.03,1.34,0.91l13.08-2.46
			c0.62-0.12,1.03-0.72,0.91-1.34c-0.12-0.62-0.72-1.03-1.34-0.91l0,0l2.25-0.43c0.62-0.12,1.03-0.72,0.91-1.34
			C775.99,375.25,775.39,374.84,774.76,374.96L774.76,374.96L774.76,374.96z"/>
		<path class="st55" d="M908.17,346.35l-1.61,0.3c0.62-0.12,1.03-0.72,0.91-1.34c-0.12-0.62-0.72-1.03-1.34-0.91l0,0l-13.03,2.49
			c-0.62,0.12-1.03,0.72-0.91,1.34s0.72,1.03,1.34,0.91l1.61-0.3c-0.62,0.12-1.03,0.72-0.91,1.34c0.12,0.62,0.72,1.03,1.34,0.91l0,0
			l-2.3,0.38c-0.62,0.12-1.03,0.72-0.91,1.34s0.72,1.03,1.34,0.91l13.04-2.46c0.62-0.12,1.03-0.72,0.91-1.34
			c-0.12-0.62-0.72-1.03-1.34-0.91l2.25-0.43c0.62-0.12,1.03-0.72,0.91-1.34c-0.12-0.62-0.72-1.03-1.34-0.91L908.17,346.35z"/>
		
			<ellipse transform="matrix(0.9826 -0.1857 0.1857 0.9826 -56.8357 142.7912)" class="st56" cx="733.97" cy="374.85" rx="12.14" ry="12.14"/>
		<path class="st27" d="M806.43,437.67c0,0,6.1,5.39,8.95,10.18c2.85,4.79,1.94,6.41,1.94,6.41"/>
	</g>
</g>
</svg>
