<?xml version="1.0" encoding="utf-8"?>
<!-- Generator: Adobe Illustrator 24.0.0, SVG Export Plug-In . SVG Version: 6.00 Build 0)  -->
<svg version="1.1" id="Layer_1" xmlns="http://www.w3.org/2000/svg" xmlns:xlink="http://www.w3.org/1999/xlink" x="0px" y="0px"
	 viewBox="0 0 1080 1080" style="enable-background:new 0 0 1080 1080;" xml:space="preserve">
<style type="text/css">
	.st0{fill:#3F3D56;}
	.st1{fill:#6C63FF;}
	.st2{fill:#F2F2F2;}
	.st3{opacity:0.7;}
	.st4{fill:url(#SVGID_1_);}
	.st5{opacity:0.1;enable-background:new    ;}
	.st6{fill:#E0E0E0;}
	.st7{fill:url(#SVGID_2_);}
	.st8{fill:#72351C;}
	.st9{fill:#FDA57D;}
	.st10{fill:url(#SVGID_3_);}
	.st11{fill:#535461;}
	.st12{fill:#FFFFFF;}
	.st13{fill:#EEEEEE;}
	.st14{fill:#2F2E41;}
	.st15{fill:#A0616A;}
	.st16{fill:#D0CDE1;}
	.st17{fill:#E6E6E6;}
	.st18{opacity:0.1;fill:#6C63FF;enable-background:new    ;}
	.st19{fill:none;stroke:#535461;stroke-width:2;stroke-miterlimit:10;}
	.st20{opacity:0.25;enable-background:new    ;}
	.st21{fill:#495464;}
	.st22{fill:#464353;}
	.st23{fill:#514E7F;}
	.st24{opacity:0.5;fill:#6C63FF;enable-background:new    ;}
	.st25{fill:url(#SVGID_4_);}
	.st26{fill:#A1616A;}
	.st27{opacity:0.05;enable-background:new    ;}
	.st28{opacity:0.1;}
	.st29{opacity:0.2;enable-background:new    ;}
	.st30{fill:#E6E8EC;}
	.st31{fill:none;stroke:#3F3D56;stroke-miterlimit:10;}
	.st32{fill:#FFB6B6;}
	.st33{fill:#F86D70;}
	.st34{fill:#444053;}
	.st35{opacity:0.1;fill:#FFFFFF;enable-background:new    ;}
	.st36{fill:none;stroke:#444053;stroke-miterlimit:10;}
	.st37{fill:url(#SVGID_5_);}
	.st38{fill:#2D293D;}
	.st39{opacity:0.05;}
	.st40{fill:#FFCDD3;}
	.st41{fill:#DCE6F2;}
	.st42{fill:#DC9BA3;}
	.st43{fill:#FFD2D9;}
	.st44{fill:#E9E9EF;}
	.st45{fill:#CEDAD5;}
	.st46{fill:#FFD037;}
	.st47{fill:#A8A8A8;}
	.st48{fill:#844F6E;}
	.st49{opacity:0.2;fill:#FFFFFF;enable-background:new    ;}
	.st50{opacity:0.05;fill:#00FF00;enable-background:new    ;}
	.st51{fill:#7679B4;}
	.st52{fill:#565388;}
	.st53{opacity:0.2;fill:#6C63FF;enable-background:new    ;}
	.st54{opacity:0.2;}
	.st55{opacity:0.1;fill:#252223;enable-background:new    ;}
	.st56{opacity:0.3;fill:#6C63FF;enable-background:new    ;}
	.st57{fill:url(#SVGID_6_);}
	.st58{fill:url(#SVGID_7_);}
	.st59{fill:#F9D5C6;}
	.st60{fill:#353535;}
	.st61{fill:#409CD6;}
	.st62{fill:#2F302F;}
	.st63{fill:none;stroke:#535461;stroke-miterlimit:10;}
</style>
<g id="GD_1_">
	<g>
		<path class="st1" d="M630.1,290.31c-53.58-53.58-140.46-53.58-194.04,0s-53.58,140.46,0,194.04L630.1,678.38l194.04-194.04
			c53.6-53.57,53.62-140.44,0.06-194.04c-53.57-53.6-140.44-53.62-194.04-0.06C630.13,290.27,630.12,290.29,630.1,290.31z"/>
		<path class="st0" d="M701.8,667.04l-1.36-1.36l8.08-8.08l1.36,1.36L701.8,667.04z M717.97,650.88l-1.36-1.36l8.08-8.08l1.36,1.36
			L717.97,650.88z M734.13,634.71l-1.36-1.36l8.08-8.08l1.36,1.36L734.13,634.71z M750.29,618.55l-1.36-1.36l8.08-8.08l1.36,1.36
			L750.29,618.55z M766.46,602.39l-1.36-1.36l8.08-8.08l1.36,1.36L766.46,602.39z M782.62,586.22l-1.36-1.36l8.08-8.08l1.36,1.36
			L782.62,586.22z M798.78,570.06l-1.36-1.36l8.08-8.08l1.36,1.36L798.78,570.06z M814.95,553.9l-1.36-1.36l8.08-8.08l1.36,1.36
			L814.95,553.9z M831.11,537.73l-1.36-1.36l8.08-8.08l1.36,1.36L831.11,537.73z M847.27,521.57l-1.36-1.36l8.08-8.08l1.36,1.36
			L847.27,521.57z M863.44,505.41l-1.36-1.36l8.08-8.08l1.36,1.36L863.44,505.41z"/>
		<polygon class="st0" points="688.96,679.88 684.21,675.12 685.56,673.76 688.96,677.16 692.36,673.76 693.72,675.12 		"/>
		<path class="st0" d="M676.12,667.04l-8.08-8.08l1.36-1.36l8.08,8.08L676.12,667.04z M659.96,650.88l-8.08-8.08l1.36-1.36
			l8.08,8.08L659.96,650.88z M643.8,634.71l-8.08-8.08l1.36-1.36l8.08,8.08L643.8,634.71z M627.63,618.55l-8.08-8.08l1.36-1.36
			l8.08,8.08L627.63,618.55z M611.47,602.39l-8.08-8.08l1.36-1.36l8.08,8.08L611.47,602.39z M595.31,586.22l-8.08-8.08l1.36-1.36
			l8.08,8.08L595.31,586.22z M579.14,570.06l-8.08-8.08l1.36-1.36l8.08,8.08L579.14,570.06z M562.98,553.9l-8.08-8.08l1.36-1.36
			l8.08,8.08L562.98,553.9z M546.82,537.73l-8.08-8.08l1.36-1.36l8.08,8.08L546.82,537.73z M530.65,521.57l-8.08-8.08l1.36-1.36
			l8.08,8.08L530.65,521.57z M514.49,505.41l-8.08-8.08l1.36-1.36l8.08,8.08L514.49,505.41z"/>
		<polygon class="st0" points="498.32,489.24 493.57,484.48 498.32,479.73 499.68,481.08 496.29,484.48 499.68,487.88 		"/>
		<path class="st0" d="M507.77,473l-1.36-1.36l8.08-8.08l1.36,1.36L507.77,473z M523.93,456.84l-1.36-1.36l8.08-8.08l1.36,1.36
			L523.93,456.84z M540.09,440.68l-1.36-1.36l8.08-8.08l1.36,1.36L540.09,440.68z M556.26,424.51l-1.36-1.36l8.08-8.08l1.36,1.36
			L556.26,424.51z M572.42,408.35l-1.36-1.36l8.08-8.08l1.36,1.36L572.42,408.35z M588.58,392.19l-1.36-1.36l8.08-8.08l1.36,1.36
			L588.58,392.19z M604.75,376.02l-1.36-1.36l8.08-8.08l1.36,1.36L604.75,376.02z M620.91,359.86l-1.36-1.36l8.08-8.08l1.36,1.36
			L620.91,359.86z M637.07,343.7l-1.36-1.36l8.08-8.08l1.36,1.36L637.07,343.7z M653.24,327.53l-1.36-1.36l8.08-8.08l1.36,1.36
			L653.24,327.53z M669.4,311.37l-1.36-1.36l8.08-8.08l1.36,1.36L669.4,311.37z"/>
		<polygon class="st0" points="692.36,295.21 688.96,291.81 685.56,295.21 684.21,293.84 688.96,289.09 693.72,293.84 		"/>
		<path class="st0" d="M870.16,473l-8.08-8.08l1.36-1.36l8.08,8.08L870.16,473z M854,456.84l-8.08-8.08l1.36-1.36l8.08,8.08
			L854,456.84z M837.83,440.68l-8.08-8.08l1.36-1.36l8.08,8.08L837.83,440.68z M821.67,424.51l-8.08-8.08l1.36-1.36l8.08,8.08
			L821.67,424.51z M805.51,408.35l-8.08-8.08l1.36-1.36l8.08,8.08L805.51,408.35z M789.34,392.18l-8.08-8.08l1.36-1.36l8.08,8.08
			L789.34,392.18z M773.18,376.02l-8.08-8.08l1.36-1.36l8.08,8.08L773.18,376.02z M757.02,359.86l-8.08-8.08l1.36-1.36l8.08,8.08
			L757.02,359.86z M740.85,343.69l-8.08-8.08l1.36-1.36l8.08,8.08L740.85,343.69z M724.69,327.53l-8.08-8.08l1.36-1.36l8.08,8.08
			L724.69,327.53z M708.53,311.37l-8.08-8.08l1.36-1.36l8.08,8.08L708.53,311.37z"/>
		<path class="st0" d="M589.04,525.6c-3.89-0.08-7.83-0.33-11.7-0.74l0.2-1.91c3.82,0.4,7.7,0.65,11.54,0.73L589.04,525.6z
			 M600.77,525.35l-0.12-1.92c3.83-0.24,7.7-0.65,11.5-1.22l0.28,1.9C608.58,524.69,604.65,525.1,600.77,525.35z M565.74,523.14
			c-3.83-0.74-7.67-1.64-11.41-2.7l0.52-1.85c3.69,1.04,7.48,1.94,11.25,2.66L565.74,523.14z M623.95,521.89l-0.44-1.87
			c3.74-0.89,7.49-1.95,11.13-3.14l0.6,1.83C631.54,519.92,627.74,520.99,623.95,521.89z M543.19,516.78
			c-3.64-1.37-7.27-2.92-10.79-4.59l0.83-1.73c3.46,1.65,7.04,3.18,10.64,4.53L543.19,516.78z M646.21,514.57l-0.75-1.77
			c3.53-1.51,7.05-3.19,10.43-4.99l0.9,1.7C653.36,511.34,649.8,513.04,646.21,514.57z M522.05,506.69
			c-3.35-1.97-6.67-4.11-9.85-6.36l1.11-1.57c3.14,2.22,6.4,4.33,9.71,6.27L522.05,506.69z M666.91,503.56l-1.04-1.61
			c3.22-2.08,6.39-4.34,9.44-6.69l1.18,1.52C673.39,499.16,670.17,501.45,666.91,503.56z M502.93,493.15
			c-2.97-2.5-5.87-5.17-8.63-7.93l1.36-1.36c2.72,2.72,5.59,5.35,8.52,7.82L502.93,493.15z M685.44,489.2l-1.3-1.42
			c1.39-1.28,2.79-2.62,4.15-3.98c1.36-1.36,2.71-2.77,4.03-4.2l1.42,1.3c-1.33,1.45-2.71,2.88-4.08,4.26
			C688.27,486.54,686.85,487.9,685.44,489.2L685.44,489.2z M486.36,476.59c-2.52-2.98-4.94-6.1-7.19-9.27l1.57-1.11
			c2.22,3.13,4.6,6.2,7.09,9.14L486.36,476.59z M701.29,471.94l-1.52-1.18c2.36-3.04,4.6-6.21,6.68-9.43l1.61,1.04
			C705.96,465.64,703.68,468.86,701.29,471.94L701.29,471.94z M472.79,457.47c-1.98-3.36-3.83-6.84-5.51-10.36l1.73-0.83
			c1.66,3.46,3.48,6.9,5.43,10.21L472.79,457.47z M714.01,452.27l-1.7-0.9c1.8-3.39,3.48-6.9,4.98-10.43l1.77,0.75
			C717.54,445.28,715.84,448.84,714.01,452.27z M462.67,436.33c-1.38-3.65-2.61-7.39-3.67-11.14l1.85-0.52
			c1.04,3.69,2.26,7.39,3.62,10.99L462.67,436.33z M723.2,430.72l-1.83-0.6c1.2-3.65,2.25-7.39,3.14-11.13l1.87,0.44
			C725.48,423.23,724.41,427.02,723.2,430.72z M456.29,413.77c-0.74-3.82-1.32-7.72-1.73-11.6l1.91-0.2
			c0.41,3.82,0.98,7.67,1.71,11.44L456.29,413.77z M728.6,407.92l-1.9-0.28c0.57-3.8,0.98-7.67,1.22-11.5l1.92,0.12
			C729.59,400.14,729.17,404.07,728.6,407.92z M453.81,390.47c-0.02-1-0.03-2-0.03-3.01c0-2.9,0.09-5.83,0.27-8.72l1.92,0.12
			c-0.18,2.85-0.27,5.74-0.27,8.6c0,0.99,0.01,1.98,0.03,2.96L453.81,390.47z M728.16,384.58c-0.08-3.84-0.33-7.72-0.73-11.54
			l1.91-0.2c0.41,3.88,0.66,7.81,0.74,11.7L728.16,384.58z M457.18,367.37l-1.9-0.28c0.57-3.85,1.32-7.73,2.21-11.52l1.87,0.44
			C458.48,359.75,457.75,363.57,457.18,367.37z M725.72,361.59c-0.73-3.77-1.62-7.56-2.67-11.25l1.85-0.52
			c1.06,3.75,1.97,7.59,2.7,11.41L725.72,361.59z M462.5,344.88l-1.83-0.6c1.21-3.7,2.6-7.4,4.13-10.98l1.77,0.75
			C465.06,337.59,463.69,341.23,462.5,344.88z M719.45,339.35c-1.35-3.6-2.88-7.18-4.54-10.64l1.73-0.83
			c1.68,3.51,3.23,7.14,4.6,10.79L719.45,339.35z M471.54,323.62l-1.7-0.9c1.82-3.44,3.82-6.84,5.93-10.11l1.62,1.04
			C475.31,316.88,473.34,320.24,471.54,323.62z M709.48,318.5c-1.95-3.31-4.06-6.58-6.28-9.71l1.57-1.11
			c2.25,3.18,4.4,6.49,6.37,9.85L709.48,318.5z M484.07,304.22l-1.52-1.18c2.38-3.07,4.92-6.09,7.56-8.96l1.42,1.3
			C488.92,298.22,486.41,301.19,484.07,304.22z M696.11,299.64c-2.48-2.93-5.11-5.79-7.83-8.51l-0.1-0.1l1.35-1.37l0.13,0.13
			c2.74,2.74,5.41,5.64,7.92,8.61L696.11,299.64z M499.7,287.2l-1.3-1.41c2.87-2.65,5.89-5.2,8.96-7.58l1.18,1.52
			C505.5,282.07,502.53,284.59,499.7,287.2z M679.66,283.2c-2.94-2.48-6.01-4.86-9.14-7.07l1.11-1.57c3.17,2.24,6.29,4.66,9.27,7.17
			L679.66,283.2z M517.96,273.02l-1.05-1.61c3.27-2.12,6.67-4.12,10.11-5.95l0.9,1.7C524.54,268.96,521.18,270.94,517.96,273.02z
			 M660.8,269.87c-3.31-1.94-6.75-3.76-10.21-5.42l0.83-1.74c3.51,1.68,7,3.52,10.36,5.49L660.8,269.87z M538.36,262.16l-0.76-1.77
			c3.58-1.53,7.27-2.92,10.97-4.14l0.6,1.83C545.53,259.28,541.89,260.65,538.36,262.16z M639.95,259.92
			c-3.59-1.35-7.29-2.56-10.99-3.6l0.52-1.85c3.75,1.05,7.5,2.28,11.14,3.65L639.95,259.92z M560.31,254.92l-0.44-1.87
			c3.79-0.9,7.66-1.65,11.52-2.23l0.28,1.9C567.87,253.3,564.05,254.04,560.31,254.92L560.31,254.92z M617.71,253.67
			c-3.77-0.72-7.62-1.29-11.44-1.69l0.2-1.91c3.87,0.41,7.78,0.99,11.6,1.72L617.71,253.67z M583.17,251.5l-0.12-1.92
			c3.89-0.25,7.83-0.34,11.72-0.26l-0.04,1.92C590.89,251.17,587,251.26,583.17,251.5L583.17,251.5z"/>
		<path class="st0" d="M783.08,525.6c-3.89-0.08-7.83-0.33-11.7-0.74l0.2-1.91c3.82,0.4,7.7,0.65,11.54,0.73L783.08,525.6z
			 M794.81,525.35l-0.12-1.92c3.83-0.24,7.7-0.65,11.5-1.22l0.28,1.9C802.61,524.69,798.69,525.1,794.81,525.35L794.81,525.35z
			 M759.78,523.14c-3.83-0.74-7.67-1.64-11.41-2.7l0.52-1.85c3.69,1.04,7.48,1.94,11.25,2.66L759.78,523.14z M817.98,521.89
			l-0.44-1.87c3.74-0.89,7.49-1.95,11.13-3.14l0.6,1.83C825.58,519.92,821.78,520.99,817.98,521.89L817.98,521.89z M737.23,516.78
			c-3.64-1.37-7.27-2.92-10.79-4.59l0.83-1.73c3.47,1.65,7.04,3.18,10.64,4.53L737.23,516.78z M840.25,514.57l-0.75-1.77
			c3.54-1.51,7.05-3.19,10.44-4.99l0.9,1.7C847.39,511.34,843.83,513.04,840.25,514.57L840.25,514.57z M716.08,506.69
			c-3.35-1.97-6.67-4.11-9.84-6.36l1.11-1.57c3.13,2.22,6.4,4.33,9.71,6.27L716.08,506.69z M860.94,503.56l-1.04-1.61
			c3.22-2.08,6.39-4.33,9.44-6.69l1.18,1.52C867.43,499.17,864.21,501.45,860.94,503.56z M696.97,493.15
			c-2.96-2.5-5.87-5.17-8.63-7.93l1.36-1.36c2.73,2.72,5.59,5.36,8.52,7.83L696.97,493.15z M879.47,489.2l-1.3-1.42
			c1.39-1.28,2.79-2.62,4.15-3.98c1.37-1.37,2.72-2.78,4.03-4.2l1.42,1.3c-1.32,1.44-2.7,2.87-4.08,4.26
			C882.3,486.54,880.89,487.9,879.47,489.2L879.47,489.2z M680.39,476.59c-2.52-2.98-4.94-6.1-7.19-9.27l1.57-1.11
			c2.22,3.13,4.6,6.2,7.09,9.14L680.39,476.59z M895.33,471.94l-1.52-1.18c2.36-3.04,4.6-6.21,6.68-9.43l1.61,1.04
			C900,465.64,897.72,468.86,895.33,471.94L895.33,471.94z M666.82,457.47c-1.97-3.36-3.83-6.84-5.51-10.36l1.73-0.83
			c1.66,3.47,3.49,6.9,5.43,10.21L666.82,457.47z M908.05,452.27l-1.7-0.9c1.8-3.39,3.48-6.9,4.98-10.43l1.77,0.75
			C911.57,445.28,909.87,448.84,908.05,452.27z M656.71,436.33c-1.37-3.64-2.61-7.39-3.67-11.14l1.85-0.52
			c1.05,3.7,2.26,7.39,3.62,10.99L656.71,436.33z M917.23,430.72l-1.83-0.6c1.2-3.65,2.25-7.39,3.14-11.13l1.87,0.44
			C919.52,423.23,918.45,427.02,917.23,430.72L917.23,430.72z M650.33,413.77c-0.74-3.82-1.32-7.72-1.73-11.6l1.91-0.2
			c0.41,3.82,0.98,7.67,1.71,11.44L650.33,413.77z M922.63,407.92l-1.9-0.28c0.57-3.8,0.98-7.67,1.22-11.5l1.92,0.12
			C923.62,400.14,923.21,404.07,922.63,407.92z M647.85,390.47c-0.02-1-0.03-2-0.03-3c0-2.89,0.09-5.83,0.27-8.72l1.92,0.12
			c-0.18,2.85-0.27,5.75-0.27,8.6c0,0.99,0.01,1.98,0.03,2.96L647.85,390.47z M922.2,384.58c-0.08-3.85-0.33-7.73-0.73-11.54
			l1.91-0.2c0.41,3.86,0.66,7.8,0.74,11.7L922.2,384.58z M651.22,367.37l-1.9-0.28c0.57-3.86,1.32-7.73,2.21-11.52l1.87,0.44
			C652.52,359.74,651.78,363.56,651.22,367.37z M919.76,361.59c-0.73-3.77-1.62-7.56-2.66-11.25l1.85-0.52
			c1.06,3.75,1.97,7.59,2.7,11.41L919.76,361.59z M656.53,344.88l-1.83-0.6c1.21-3.7,2.6-7.4,4.13-10.98l1.77,0.75
			C659.1,337.59,657.73,341.23,656.53,344.88z M913.48,339.35c-1.35-3.59-2.88-7.17-4.54-10.64l1.73-0.83
			c1.68,3.52,3.23,7.15,4.6,10.79L913.48,339.35z M665.58,323.62l-1.7-0.9c1.82-3.44,3.82-6.84,5.93-10.11l1.61,1.04
			C669.35,316.88,667.38,320.24,665.58,323.62z M903.52,318.5c-1.95-3.31-4.06-6.58-6.28-9.71l1.57-1.11
			c2.25,3.18,4.4,6.49,6.37,9.85L903.52,318.5z M678.11,304.22l-1.52-1.18c2.38-3.08,4.92-6.09,7.56-8.96l1.42,1.3
			C682.96,298.21,680.45,301.19,678.11,304.22L678.11,304.22z M890.15,299.64c-2.48-2.93-5.11-5.79-7.83-8.51l-0.1-0.1l1.35-1.37
			l0.11,0.11c2.76,2.76,5.43,5.66,7.94,8.63L890.15,299.64z M693.74,287.2l-1.3-1.41c2.87-2.64,5.88-5.19,8.96-7.58l1.18,1.52
			C699.54,282.07,696.57,284.59,693.74,287.2z M873.69,283.2c-2.94-2.48-6.01-4.86-9.14-7.07l1.11-1.57
			c3.17,2.24,6.29,4.66,9.27,7.17L873.69,283.2z M712,273.02l-1.05-1.61c3.27-2.12,6.67-4.12,10.11-5.95l0.9,1.7
			C718.58,268.96,715.23,270.93,712,273.02z M854.84,269.86c-3.31-1.94-6.74-3.76-10.21-5.42l0.83-1.74c3.52,1.68,7,3.53,10.36,5.49
			L854.84,269.86z M732.4,262.16l-0.75-1.77c3.58-1.53,7.27-2.92,10.97-4.14l0.6,1.83C739.57,259.28,735.93,260.65,732.4,262.16z
			 M833.99,259.92c-3.59-1.35-7.29-2.56-10.99-3.6l0.52-1.85c3.75,1.06,7.5,2.28,11.14,3.65L833.99,259.92z M754.35,254.92
			l-0.44-1.87c3.79-0.9,7.67-1.65,11.52-2.23l0.28,1.9C761.91,253.3,758.09,254.04,754.35,254.92z M811.75,253.67
			c-3.77-0.72-7.62-1.29-11.44-1.69l0.2-1.91c3.87,0.41,7.77,0.99,11.6,1.72L811.75,253.67z M777.21,251.5l-0.12-1.92
			c3.89-0.25,7.83-0.34,11.73-0.26l-0.04,1.92C784.93,251.17,781.04,251.26,777.21,251.5L777.21,251.5z"/>
	</g>
	<g>
		<path class="st0" d="M850.53,783.67c-6.22,23.69-28.02,38.5-28.02,38.5s-11.71-23.61-5.49-47.3c6.22-23.69,28.02-38.5,28.02-38.5
			S856.75,759.97,850.53,783.67z"/>
		<path class="st1" d="M841.09,778.65c-17.43,17.22-19.37,43.5-19.37,43.5s26.3-1.63,43.73-18.85c17.43-17.22,19.38-43.5,19.38-43.5
			S858.52,761.44,841.09,778.65z"/>
		<path class="st14" d="M209.71,694.04h32.82l80.87-31.64c0,0,57.43-23.44,52.74,21.1c-4.69,44.54-12.89,104.31-12.89,104.31
			s-25.78-11.72-39.85-8.2s-4.69-71.49-4.69-71.49s-114.86,55.09-125.41,48.05c-10.55-7.03-12.89-56.26-12.89-56.26L209.71,694.04z"
			/>
		<path class="st5" d="M209.71,694.04h32.82l80.87-31.64c0,0,57.43-23.44,52.74,21.1c-4.69,44.54-12.89,104.31-12.89,104.31
			s-25.78-11.72-39.85-8.2s-4.69-71.49-4.69-71.49s-114.86,55.09-125.41,48.05c-10.55-7.03-12.89-56.26-12.89-56.26L209.71,694.04z"
			/>
		<path class="st15" d="M261.41,591.27l39.71,57.06l92.59,77.35c0,0,85.56,19.92,73.84,33.99c-11.72,14.06-83.21-14.06-83.21-14.06
			s-106.65-77.35-110.17-83.21s-42.19-60.95-42.19-60.95L261.41,591.27z"/>
		<path class="st5" d="M261.41,591.27l39.71,57.06l92.59,77.35c0,0,85.56,19.92,73.84,33.99c-11.72,14.06-83.21-14.06-83.21-14.06
			s-106.65-77.35-110.17-83.21s-42.19-60.95-42.19-60.95L261.41,591.27z"/>
		<path class="st16" d="M237.84,545.2l25.78,50.4c0,0-5.86,24.61-15.24,26.96c-9.38,2.34-49.22-30.47-49.22-30.47L237.84,545.2z"/>
		<path class="st5" d="M237.84,545.2l25.78,50.4c0,0-5.86,24.61-15.24,26.96c-9.38,2.34-49.22-30.47-49.22-30.47L237.84,545.2z"/>
		<path class="st14" d="M552.4,667.95l7.62,31.42c0.08,0.35,0.07,0.72-0.04,1.06L525.43,808.4c-0.33,1.03-1.43,1.6-2.47,1.27
			c-0.74-0.24-1.26-0.88-1.35-1.65l-4.78-42.06c-0.03-0.28,0-0.56,0.08-0.83l31.71-97.33c0.34-1.03,1.44-1.59,2.47-1.26
			C551.75,666.76,552.24,667.29,552.4,667.95z"/>
		<polygon class="st2" points="549.6,670.6 556.63,697.56 526.16,796.01 519.12,765.54 		"/>
		<path class="st14" d="M396.06,817.11c1.17,3.52,121.89-1.17,123.06-2.34c1.02-1.47,1.89-3.04,2.58-4.69
			c1.1-2.34,2.11-4.69,2.11-4.69l-4.69-37.95l-119.55-4.24c0,0-2.99,32.16-3.6,46.88C395.83,813.79,395.83,816.4,396.06,817.11z"/>
		<polygon class="st5" points="503.89,772.57 506.23,805.39 453.49,805.39 453.49,772.57 		"/>
		<polygon class="st5" points="435.91,783.12 436.23,783.05 434.74,797.18 405.44,797.18 405.44,783.12 		"/>
		<path class="st5" d="M396.06,817.11c1.17,3.52,121.89-1.17,123.06-2.34c1.02-1.47,1.89-3.04,2.58-4.69H395.98
			C395.83,813.79,395.83,816.4,396.06,817.11z"/>
		<circle class="st15" cx="255.42" cy="476.05" r="52.74"/>
		<path class="st15" d="M251.9,522.93c0,0-17.58,30.47-21.1,46.88c-3.52,16.41-52.74-32.82-52.74-32.82L171.62,520
			c0,0,46.29-21.68,42.78-39.26C210.88,463.15,251.9,522.93,251.9,522.93z"/>
		<path class="st15" d="M261.28,614.35l48.05,63.29l114.86,85.56c0,0,83.21,17.58,64.46,30.47c-18.75,12.89-72.67-11.72-72.67-11.72
			s-116.03-62.12-140.64-87.9s-70.32-69.15-70.32-69.15L261.28,614.35z"/>
		<path class="st14" d="M196.82,712.8l14.06,22.27l83.94-26.41c18.42-5.79,38.61-3.66,54.95,6.63c14.65,9.23,24.03,23.88,2.93,45.56
			c-42.19,43.36-70.32,19.92-70.32,19.92s-141.81,66.81-165.26,33.99s-24.61-49.22-24.61-49.22S182.75,709.28,196.82,712.8z"/>
		<path class="st16" d="M372.62,790.15c0,0,37.5,24.61-7.03,36.33c-44.54,11.72-77.35-4.69-77.35-4.69s-38.68,0-38.68-19.92
			c0-19.92,12.89-22.27,12.89-22.27l39.85,5.86C302.3,785.46,350.35,772.57,372.62,790.15z"/>
		<path class="st14" d="M298.68,462.78c3.59,1.6,7.15,3.49,11.05,3.96s8.35-0.9,10.19-4.37c1-1.87,1.11-4.08,1.16-6.2
			c0.14-6.44-0.32-13.39-4.4-18.37c-2.6-3.17-6.38-5.17-9.07-8.26c-1.92-2.22-3.21-4.9-4.59-7.49
			c-5.23-9.81-12.96-19.25-23.71-22.07c-4.49-1.18-9.2-1.12-13.84-1.06l-27.08,0.38c-4.38,0.06-8.83,0.13-13.03,1.4
			c-8.72,2.64-15.06,9.96-20.87,16.97c-4.35,5.24-8.71,10.54-11.97,16.52c-4.68,8.73-7.04,18.5-6.87,28.4
			c-0.04,2.54,0.29,5.07,0.97,7.52c0.8,2.24,1.79,4.41,2.95,6.49c5.08,9.97,8.09,22.43,2.37,32.05c9.93-4.06,19.76-9.38,26.31-17.88
			c2.93-3.8,5.23-8.25,9.14-11.04s10.27-3.03,12.78,1.06c0.86,1.66,1.31,3.5,1.29,5.36c0.18,3.07,0.18,6.26,1.48,9.05
			c1.3,2.79,4.41,5.04,7.37,4.2c5.1-1.44,4.61-9.27,8.54-12.83c2.98-2.7,7.59-2.19,11.42-3.41c4.47-1.43,7.82-5.3,9.73-9.58
			c1.45-3.26,1.43-11.78,4.18-13.54C287.66,457.84,295.49,461.36,298.68,462.78z"/>
		<path class="st16" d="M167.43,514.44c2.37-0.63,4.87-0.63,7.24,0.02c7.52,2.02,24.39,7.37,28.01,15.5
			c4.69,10.55,21.1,26.96,21.1,26.96s22.27,22.27,17.58,37.5c-4.69,15.24-22.27,32.82-22.27,32.82s4.69,72.67-18.75,91.42
			s-32.82,5.86-32.82,23.44s-72.67,72.67-86.73,38.68c0,0,7.03-63.29,4.69-85.56C83.17,673.27,86.55,536.34,167.43,514.44z"/>
		<path class="st16" d="M205.02,544.02c0,0,71.49,52.74,58.6,75.01c0,0-43.36,21.1-52.74,19.92s-45.71-42.19-55.09-45.71
			C146.42,589.73,141.73,526.44,205.02,544.02z"/>
		<rect x="747.13" y="821.11" class="st0" width="252.08" height="1.78"/>
	</g>
</g>
</svg>
