<?xml version="1.0" encoding="utf-8"?>
<!-- Generator: Adobe Illustrator 24.0.0, SVG Export Plug-In . SVG Version: 6.00 Build 0)  -->
<svg version="1.1" id="Layer_1" xmlns="http://www.w3.org/2000/svg" xmlns:xlink="http://www.w3.org/1999/xlink" x="0px" y="0px"
	 viewBox="0 0 1080 1080" style="enable-background:new 0 0 1080 1080;" xml:space="preserve">
<style type="text/css">
	.st0{fill:#3F3D56;}
	.st1{fill:#6C63FF;}
	.st2{fill:#F2F2F2;}
	.st3{opacity:0.7;}
	.st4{fill:url(#SVGID_1_);}
	.st5{opacity:0.1;enable-background:new    ;}
	.st6{fill:#E0E0E0;}
	.st7{fill:url(#SVGID_2_);}
	.st8{fill:#72351C;}
	.st9{fill:#FDA57D;}
	.st10{fill:url(#SVGID_3_);}
	.st11{fill:#535461;}
	.st12{fill:#FFFFFF;}
	.st13{fill:#EEEEEE;}
	.st14{fill:#2F2E41;}
	.st15{fill:#A0616A;}
	.st16{fill:#D0CDE1;}
	.st17{fill:#E6E6E6;}
	.st18{opacity:0.1;fill:#6C63FF;enable-background:new    ;}
	.st19{fill:none;stroke:#535461;stroke-width:2;stroke-miterlimit:10;}
	.st20{opacity:0.25;enable-background:new    ;}
	.st21{fill:#495464;}
	.st22{fill:#464353;}
	.st23{fill:#514E7F;}
	.st24{opacity:0.5;fill:#6C63FF;enable-background:new    ;}
	.st25{fill:url(#SVGID_4_);}
	.st26{fill:#A1616A;}
	.st27{opacity:0.05;enable-background:new    ;}
	.st28{opacity:0.1;}
	.st29{opacity:0.2;enable-background:new    ;}
	.st30{fill:#E6E8EC;}
	.st31{fill:none;stroke:#3F3D56;stroke-miterlimit:10;}
	.st32{fill:#FFB6B6;}
	.st33{fill:#F86D70;}
	.st34{fill:#444053;}
	.st35{opacity:0.1;fill:#FFFFFF;enable-background:new    ;}
	.st36{fill:none;stroke:#444053;stroke-miterlimit:10;}
	.st37{fill:url(#SVGID_5_);}
	.st38{fill:#2D293D;}
	.st39{opacity:0.05;}
	.st40{fill:#FFCDD3;}
	.st41{fill:#DCE6F2;}
	.st42{fill:#DC9BA3;}
	.st43{fill:#FFD2D9;}
	.st44{fill:#E9E9EF;}
	.st45{fill:#CEDAD5;}
	.st46{fill:#FFD037;}
	.st47{fill:#A8A8A8;}
	.st48{fill:#844F6E;}
	.st49{opacity:0.2;fill:#FFFFFF;enable-background:new    ;}
	.st50{opacity:0.05;fill:#00FF00;enable-background:new    ;}
	.st51{fill:#7679B4;}
	.st52{fill:#565388;}
	.st53{opacity:0.2;fill:#6C63FF;enable-background:new    ;}
	.st54{opacity:0.2;}
	.st55{opacity:0.1;fill:#252223;enable-background:new    ;}
	.st56{opacity:0.3;fill:#6C63FF;enable-background:new    ;}
	.st57{fill:url(#SVGID_6_);}
	.st58{fill:url(#SVGID_7_);}
	.st59{fill:#F9D5C6;}
	.st60{fill:#353535;}
	.st61{fill:#409CD6;}
	.st62{fill:#2F302F;}
	.st63{fill:none;stroke:#535461;stroke-miterlimit:10;}
</style>
<g id="Web">
	<path class="st0" d="M96.92,334.74h341.8v71.52H96.92V334.74z M437.21,336.25H98.42v68.51h338.79V336.25z"/>
	<rect x="121.76" y="349.05" class="st1" width="340.3" height="70.02"/>
	<circle class="st1" cx="677.17" cy="276.96" r="5.27"/>
	<circle class="st1" cx="659.11" cy="276.96" r="5.27"/>
	<circle class="st1" cx="641.04" cy="276.96" r="5.27"/>
	<path class="st0" d="M58.32,262.66h633.91v412.57H58.32V262.66z M690.73,264.16H59.82v409.56h630.9V264.16z"/>
	<rect x="59.07" y="285.49" class="st0" width="632.41" height="1.51"/>
	<path class="st0" d="M669.65,274.7c0-3.33,2.7-6.02,6.02-6.02s6.02,2.7,6.02,6.02c0,3.33-2.7,6.02-6.02,6.02
		C672.34,280.72,669.65,278.03,669.65,274.7z M671.15,274.7c0,2.49,2.02,4.52,4.52,4.52c2.49,0,4.52-2.02,4.52-4.52
		c0-2.49-2.02-4.52-4.52-4.52C673.17,270.19,671.15,272.21,671.15,274.7z"/>
	<path class="st0" d="M651.58,274.7c0-3.33,2.7-6.02,6.02-6.02c3.33,0,6.02,2.7,6.02,6.02c0,3.33-2.7,6.02-6.02,6.02
		C654.28,280.72,651.58,278.03,651.58,274.7z M653.08,274.7c0,2.49,2.02,4.52,4.52,4.52c2.49,0,4.52-2.02,4.52-4.52
		c0-2.49-2.02-4.52-4.52-4.52C655.11,270.19,653.09,272.21,653.08,274.7z"/>
	<path class="st0" d="M633.51,274.7L633.51,274.7c0-3.33,2.7-6.02,6.02-6.02c3.33,0,6.02,2.7,6.02,6.02c0,3.33-2.7,6.02-6.02,6.02
		C636.21,280.72,633.51,278.03,633.51,274.7z M635.01,274.7L635.01,274.7c0,2.49,2.02,4.52,4.52,4.52c2.49,0,4.52-2.02,4.52-4.52
		c0-2.49-2.02-4.52-4.52-4.52C637.04,270.19,635.02,272.21,635.01,274.7z"/>
	<rect x="492.18" y="286.25" class="st0" width="1.51" height="388.81"/>
	<rect x="311.11" y="477.41" class="st2" width="110.67" height="15.06"/>
	<rect x="137.2" y="477.41" class="st2" width="110.67" height="15.06"/>
	<path class="st0" d="M304.33,469.13h112.18v16.56H304.33V469.13z M415,470.64H305.84v13.55H415V470.64z"/>
	<rect x="311.11" y="594.11" class="st2" width="110.67" height="15.06"/>
	<path class="st0" d="M304.33,585.82h112.18v16.56H304.33V585.82z M415,587.33H305.84v13.55H415V587.33z"/>
	<rect x="136.82" y="534.25" class="st2" width="284.58" height="15.06"/>
	<path class="st0" d="M130.04,527.48h286.09v16.56H130.04V527.48z M414.63,528.98H131.55v13.55h283.08V528.98z"/>
	<path class="st0" d="M130.42,469.13H242.6v16.56H130.42V469.13z M241.09,470.64H131.93v13.55h109.17L241.09,470.64z"/>
	<path class="st0" d="M528.44,468.59c0-34.2,27.73-61.93,61.93-61.93s61.93,27.73,61.93,61.93s-27.73,61.93-61.93,61.93
		C556.19,530.48,528.48,502.78,528.44,468.59z M530.32,468.59c0,33.17,26.89,60.06,60.06,60.06c33.17,0,60.06-26.89,60.06-60.06
		s-26.89-60.06-60.06-60.06C557.22,408.57,530.36,435.44,530.32,468.59z"/>
	<g>
		<path class="st0" d="M526.23,742.82c-4.19,15.96-18.88,25.94-18.88,25.94s-7.89-15.9-3.7-31.87s18.88-25.94,18.88-25.94
			S530.43,726.86,526.23,742.82z"/>
		<path class="st1" d="M519.88,739.44c-11.74,11.6-13.05,29.3-13.05,29.3s17.72-1.1,29.46-12.7c11.74-11.6,13.05-29.3,13.05-29.3
			S531.62,727.84,519.88,739.44z"/>
		<path class="st1" d="M488.68,764.08h45.92c5.04,0,9.12,4.08,9.12,9.12v9.06c0,5.04-4.08,9.12-9.12,9.12h-45.92
			c-5.04,0-9.12-4.08-9.12-9.12v-9.06C479.56,768.16,483.64,764.08,488.68,764.08z"/>
		<g class="st3">
			
				<linearGradient id="SVGID_1_" gradientUnits="userSpaceOnUse" x1="1072.1714" y1="1395.1067" x2="1072.1714" y2="1450.1991" gradientTransform="matrix(1 0 0 -1 -114.2798 2187)">
				<stop  offset="0" style="stop-color:#808080;stop-opacity:0.25"/>
				<stop  offset="0.5351" style="stop-color:#808080;stop-opacity:0.12"/>
				<stop  offset="1" style="stop-color:#808080;stop-opacity:0.1"/>
			</linearGradient>
			<path class="st4" d="M976.11,746.64v-9.84h-49.19v45.5c0,5.3,4.29,9.59,9.59,9.59l0,0h30.01c5.3,0,9.59-4.29,9.59-9.59l0,0
				v-10.08c7.06-0.02,12.78-5.75,12.76-12.82C988.85,752.36,983.15,746.65,976.11,746.64L976.11,746.64z M976.11,767.3v-15.74
				c4.35,0,7.87,3.52,7.87,7.87C983.98,763.77,980.45,767.3,976.11,767.3z"/>
		</g>
		<path class="st1" d="M974.52,748.18c-6.45,0-11.68,5.23-11.68,11.68s5.23,11.68,11.68,11.68s11.68-5.23,11.68-11.68
			C986.2,753.41,980.97,748.18,974.52,748.18z M974.52,767.04c-3.97,0-7.19-3.22-7.19-7.19c0-3.97,3.22-7.19,7.19-7.19
			s7.19,3.22,7.19,7.19l0,0C981.71,763.82,978.49,767.04,974.52,767.04z"/>
		<path class="st5" d="M974.52,748.18c-6.45,0-11.68,5.23-11.68,11.68s5.23,11.68,11.68,11.68s11.68-5.23,11.68-11.68
			C986.2,753.41,980.97,748.18,974.52,748.18z M974.52,767.04c-3.97,0-7.19-3.22-7.19-7.19c0-3.97,3.22-7.19,7.19-7.19
			s7.19,3.22,7.19,7.19l0,0C981.71,763.82,978.49,767.04,974.52,767.04z"/>
		<path class="st1" d="M929.61,739.2h44.91l0,0v44.45c0,3.23-2.62,5.85-5.85,5.85l0,0h-33.21c-3.23,0-5.85-2.62-5.85-5.85l0,0V739.2
			L929.61,739.2z"/>
		<rect x="438.72" y="789.5" class="st6" width="582.96" height="19.76"/>
		<g class="st3">
			
				<linearGradient id="SVGID_2_" gradientUnits="userSpaceOnUse" x1="844.8708" y1="1448.2064" x2="844.8708" y2="1766.9229" gradientTransform="matrix(1 0 0 -1 -114.2798 2187)">
				<stop  offset="0" style="stop-color:#808080;stop-opacity:0.25"/>
				<stop  offset="0.5351" style="stop-color:#808080;stop-opacity:0.12"/>
				<stop  offset="1" style="stop-color:#808080;stop-opacity:0.1"/>
			</linearGradient>
			<path class="st7" d="M822.16,657.28c-6.25-22.68-41.67-39.24-68.32-42.91c0-0.17,0.01-0.33,0.01-0.5v-19.41
				c0.03-0.01,0.06-0.02,0.09-0.03v-0.74c19.17-7.13,33.99-22.67,40.21-42.15c1.65-2.98,3.08-6.07,4.29-9.25
				c2.85-1.04,4.99-5.73,4.99-11.37c0.01-1.93-0.26-3.85-0.8-5.7c0.35-2.87,0.53-5.76,0.53-8.65c0.02-20.45-8.64-39.94-23.82-53.64
				c0.22-1.16,0.3-2.35,0.23-3.53c-0.6-9.32-10.56-15.65-19.88-16.07c5.03-5.71,6.32-13.8,3.32-20.79
				c-5.95,8.67-18.16,9.59-28.67,9.65c4.53-1.76,6.58-8.04,3.94-12.13c-10.98,14.72-32.4,17.45-45.46,30.36
				c-2.85,2.82-5.23,6.08-7.07,9.64c-17.2,13.7-27.21,34.5-27.2,56.49c0.01,2.87,0.18,5.73,0.52,8.57
				c-0.56,1.87-0.84,3.82-0.83,5.78c0,5.66,2.17,10.37,5.03,11.38c1.21,3.19,2.66,6.29,4.31,9.28c6.2,19.36,20.91,34.83,39.93,42
				v20.28c0,0.16,0.01,0.31,0.01,0.47c-26.75,3.61-62.46,20.3-68.65,43.16c-5.35,19.74-11.06,41.42-13.9,54.15
				c24.35,17.11,75.43,27.15,107.44,27.15c30.42,0,80.13-9.07,103.76-24.64C833.63,700.16,827.75,677.53,822.16,657.28z"/>
		</g>
		<path class="st1" d="M732.37,733.16c29.34,0,77.3-8.75,100.09-23.77c-2.47-13.49-8.15-35.33-13.53-54.87
			c-6.86-24.88-50.12-42.14-75.94-42.14h-24.87c-25.89,0-69.22,17.35-75.99,42.34c-5.16,19.04-10.67,39.96-13.41,52.24
			C652.21,723.47,701.48,733.16,732.37,733.16z"/>
		<circle class="st8" cx="730.85" cy="518.79" r="69.75"/>
		<path class="st5" d="M708.34,576.89h44.69l0,0v35.76c0,12.34-10.01,22.35-22.35,22.35h0c-12.34,0-22.35-10.01-22.35-22.35
			L708.34,576.89L708.34,576.89z"/>
		<path class="st9" d="M714.75,575.23h31.87c3.54,0,6.41,2.87,6.41,6.41v29.34c0,12.34-10.01,22.35-22.35,22.35l0,0
			c-12.34,0-22.35-10.01-22.35-22.35v-29.34C708.34,578.1,711.21,575.23,714.75,575.23z"/>
		<path class="st5" d="M708.42,593.77c14.4,5.38,30.26,5.43,44.69,0.12v-5.49h-44.69V593.77z"/>
		<circle class="st9" cx="730.85" cy="532.7" r="64.06"/>
		<path class="st5" d="M685.22,474.43c0,0,27,54.8,103.16,22.97l-17.73-27.8l-31.43-11.28L685.22,474.43z"/>
		<path class="st8" d="M685.22,473.62c0,0,27,54.8,103.16,22.97l-17.73-27.8l-31.43-11.28L685.22,473.62z"/>
		<path class="st8" d="M684.98,469.92c1.82-5.64,4.97-10.75,9.17-14.92c12.6-12.46,33.26-15.09,43.85-29.29
			c2.54,3.94,0.58,10-3.8,11.7c10.14-0.07,21.92-0.95,27.65-9.31c2.9,6.74,1.65,14.55-3.2,20.05c9,0.41,18.6,6.52,19.18,15.5
			c0.39,5.99-3.37,11.66-8.29,15.09c-4.92,3.43-10.87,5.01-16.73,6.3C735.71,488.81,673.82,504.62,684.98,469.92z"/>
		<path class="st8" d="M794.91,533.26h-1.7l-33.04,29.42c-31.83-14.91-55.21,0-55.21,0l-34.65-28.21l-3.49,0.44
			c1,35.37,30.47,63.23,65.84,62.23C767.26,596.16,794.83,567.87,794.91,533.26z M730.75,573.96c-12.46,0-22.57-2.53-22.57-5.64
			s10.1-5.64,22.57-5.64s22.57,2.53,22.57,5.64S743.22,573.96,730.75,573.96z"/>
		<ellipse class="st9" cx="666.76" cy="532.64" rx="5.96" ry="11.17"/>
		<ellipse class="st9" cx="794.91" cy="532.64" rx="5.96" ry="11.17"/>
		<g class="st3">
			
				<linearGradient id="SVGID_3_" gradientUnits="userSpaceOnUse" x1="730.1999" y1="1516.5021" x2="730.1999" y2="1659.2625" gradientTransform="matrix(1 0 0 -1 0 2306)">
				<stop  offset="0" style="stop-color:#808080;stop-opacity:0.25"/>
				<stop  offset="0.5351" style="stop-color:#808080;stop-opacity:0.12"/>
				<stop  offset="1" style="stop-color:#808080;stop-opacity:0.1"/>
			</linearGradient>
			<path class="st10" d="M614.94,646.74h230.51c4.81,0,8.7,3.9,8.7,8.7V780.8c0,4.81-3.9,8.7-8.7,8.7H614.94
				c-4.81,0-8.7-3.9-8.7-8.7V655.44C606.24,650.63,610.14,646.74,614.94,646.74z"/>
		</g>
		<path class="st11" d="M626.84,649.37h206.73c8.89,0,16.1,7.21,16.1,16.1v107.92c0,8.89-7.21,16.1-16.1,16.1H626.84
			c-8.89,0-16.1-7.21-16.1-16.1V665.48C610.73,656.58,617.94,649.37,626.84,649.37z"/>
		<circle class="st12" cx="730.2" cy="719.43" r="8.08"/>
		<rect x="463.42" y="809.26" class="st6" width="533.56" height="8.08"/>
		<rect x="463.42" y="809.26" class="st5" width="533.56" height="2.69"/>
		<path class="st5" d="M966.44,739.2v41.54c0,4.84-3.92,8.76-8.76,8.76h4.49c4.84,0,8.76-3.92,8.76-8.76V739.2H966.44z"/>
		<path class="st13" d="M938.47,705.71c-0.76,0.13-1.61,0.33-1.98,1.01c-0.59,1.07,0.48,2.27,1.45,3.01c1.8,1.36,3.7,2.69,4.92,4.58
			c1.22,1.89,1.61,4.53,0.27,6.35c-1.75,2.37-5.91,2.88-6.32,5.79c-0.26,1.87,1.36,3.47,3,4.41c4.05,2.32,9.26,2.94,12.19,6.56
			c1.21-2.49,3.92-3.93,6.63-4.55s5.51-0.57,8.25-0.99c0.88-0.13,1.88-0.4,2.28-1.21c0.77-1.55-1.42-3.42-0.66-4.98
			c0.57-1.19,2.26-1.1,3.49-1.57c2-0.77,2.83-3.35,2.26-5.42s-2.17-3.69-3.86-5.02c-4.55-3.58-10.02-5.68-15.56-7.19
			c-2.57-0.7-5.6-1.81-8.27-1.91C943.97,704.47,941.03,705.28,938.47,705.71z"/>
	</g>
</g>
</svg>
