<?xml version="1.0" encoding="utf-8"?>
<!-- Generator: Adobe Illustrator 24.0.0, SVG Export Plug-In . SVG Version: 6.00 Build 0)  -->
<svg version="1.1" id="Layer_1" xmlns="http://www.w3.org/2000/svg" xmlns:xlink="http://www.w3.org/1999/xlink" x="0px" y="0px"
	 viewBox="0 0 1080 1080" style="enable-background:new 0 0 1080 1080;" xml:space="preserve">
<style type="text/css">
	.st0{fill:#3F3D56;}
	.st1{fill:#6C63FF;}
	.st2{fill:#F2F2F2;}
	.st3{opacity:0.7;}
	.st4{fill:url(#SVGID_1_);}
	.st5{opacity:0.1;enable-background:new    ;}
	.st6{fill:#E0E0E0;}
	.st7{fill:url(#SVGID_2_);}
	.st8{fill:#72351C;}
	.st9{fill:#FDA57D;}
	.st10{fill:url(#SVGID_3_);}
	.st11{fill:#535461;}
	.st12{fill:#FFFFFF;}
	.st13{fill:#EEEEEE;}
	.st14{fill:#2F2E41;}
	.st15{fill:#A0616A;}
	.st16{fill:#D0CDE1;}
	.st17{fill:#E6E6E6;}
	.st18{opacity:0.1;fill:#6C63FF;enable-background:new    ;}
	.st19{fill:none;stroke:#535461;stroke-width:2;stroke-miterlimit:10;}
	.st20{opacity:0.25;enable-background:new    ;}
	.st21{fill:#495464;}
	.st22{fill:#464353;}
	.st23{fill:#514E7F;}
	.st24{opacity:0.5;fill:#6C63FF;enable-background:new    ;}
	.st25{fill:url(#SVGID_4_);}
	.st26{fill:#A1616A;}
	.st27{opacity:0.05;enable-background:new    ;}
	.st28{opacity:0.1;}
	.st29{opacity:0.2;enable-background:new    ;}
	.st30{fill:#E6E8EC;}
	.st31{fill:none;stroke:#3F3D56;stroke-miterlimit:10;}
	.st32{fill:#FFB6B6;}
	.st33{fill:#F86D70;}
	.st34{fill:#444053;}
	.st35{opacity:0.1;fill:#FFFFFF;enable-background:new    ;}
	.st36{fill:none;stroke:#444053;stroke-miterlimit:10;}
	.st37{fill:url(#SVGID_5_);}
	.st38{fill:#2D293D;}
	.st39{opacity:0.05;}
	.st40{fill:#FFCDD3;}
	.st41{fill:#DCE6F2;}
	.st42{fill:#DC9BA3;}
	.st43{fill:#FFD2D9;}
	.st44{fill:#E9E9EF;}
	.st45{fill:#CEDAD5;}
	.st46{fill:#FFD037;}
	.st47{fill:#A8A8A8;}
	.st48{fill:#844F6E;}
	.st49{opacity:0.2;fill:#FFFFFF;enable-background:new    ;}
	.st50{opacity:0.05;fill:#00FF00;enable-background:new    ;}
	.st51{fill:#7679B4;}
	.st52{fill:#565388;}
	.st53{opacity:0.2;fill:#6C63FF;enable-background:new    ;}
	.st54{opacity:0.2;}
	.st55{opacity:0.1;fill:#252223;enable-background:new    ;}
	.st56{opacity:0.3;fill:#6C63FF;enable-background:new    ;}
	.st57{fill:url(#SVGID_6_);}
	.st58{fill:url(#SVGID_7_);}
	.st59{fill:#F9D5C6;}
	.st60{fill:#353535;}
	.st61{fill:#409CD6;}
	.st62{fill:#2F302F;}
	.st63{fill:none;stroke:#535461;stroke-miterlimit:10;}
</style>
<g>
	<path class="st29" d="M326.56,592.11c0,0,1.85,36.9-76.88,82.42c0,0-0.09,0.2,576.31,0c0,0-65.81-46.74-70.12-99.03"/>
	<path class="st17" d="M753.44,565.73v-310.1c7.63-1.98,12.96-8.86,12.97-16.75l0,0c0-9.55-7.74-17.3-17.3-17.3l0,0H334
		c-9.55,0-17.3,7.74-17.3,17.3c0,0,0,0,0,0l0,0c0,9.55,7.74,17.3,17.3,17.3l0,0h0L324.4,566l-77.16,98.75c0,0-0.65,0,576.31,0
		C823.55,664.75,823.15,665.75,753.44,565.73z"/>
	<ellipse class="st29" cx="557.16" cy="620.14" rx="127.09" ry="9.78"/>
	<polygon class="st29" points="334,256.17 753.44,268.39 753.62,255.42 	"/>
	<path class="st0" d="M637.05,364.93v38.13c0,0.73-0.6,1.33-1.33,1.33h-0.95V603c0,11.44-9.28,20.72-20.72,20.72h-124.1
		c-11.44,0-20.72-9.28-20.72-20.72c0,0,0,0,0,0V411.35h-0.68c-0.52,0-0.94-0.42-0.94-0.93v-21.7c0-0.52,0.42-0.94,0.94-0.94
		c0,0,0,0,0,0h0.68v-8.17h-0.69c-0.54,0-0.98-0.44-0.98-0.99v-21.4c0-0.54,0.44-0.98,0.98-0.98h0.69v-11.16h-0.7
		c-0.48,0-0.87-0.39-0.87-0.87c0,0,0,0,0,0v-11.68c0-0.48,0.39-0.87,0.87-0.88h0.7V308c0-11.44,9.28-20.72,20.72-20.72h124.1
		c11.44,0,20.72,9.27,20.72,20.72v55.6h0.95C636.46,363.6,637.05,364.19,637.05,364.93z"/>
	<path class="st30" d="M537.82,297.91h20.17c0.81,0,1.48,0.66,1.48,1.48v1.74c0,0.81-0.66,1.48-1.48,1.48h-20.17
		c-0.81,0-1.48-0.66-1.48-1.48v-1.74C536.34,298.57,537,297.91,537.82,297.91z"/>
	<circle class="st30" cx="565.62" cy="300.25" r="2.66"/>
	<path class="st12" d="M624.86,312.1v292.62c0,7.26-5.89,13.14-13.15,13.14h-118.8c-7.25,0.01-13.14-5.85-13.15-13.1
		c0-0.01,0-0.03,0-0.04V312.1c0-7.26,5.89-13.15,13.15-13.15c0,0,0,0,0,0h17.78v2.28c0,5.98,4.85,10.83,10.83,10.83h60.42
		c5.98,0,10.83-4.85,10.83-10.83v-2.28h18.95C618.97,298.94,624.85,304.83,624.86,312.1C624.86,312.09,624.86,312.09,624.86,312.1z"
		/>
	<rect x="492.18" y="491.59" class="st17" width="120.74" height="15.67"/>
	<rect x="492.18" y="519.45" class="st17" width="120.74" height="15.67"/>
	<rect x="492.18" y="547.31" class="st17" width="120.74" height="15.67"/>
	<rect x="491.94" y="378.97" class="st17" width="120.74" height="80.11"/>
	<path class="st1" d="M326.77,267.65l-61.92,0.38c0,0-101.92,54.23-30.38,166.53c0,0,29.23-6.92,61.53,16.92
		C296.01,451.48,314.85,271.88,326.77,267.65z"/>
	<path class="st29" d="M308.36,268.21c-11.09,46.34-23.63,165.85-23.63,165.85c-28.86-21.3-55.25-18.05-60.55-17.11
		c3.13,6.19,6.56,12.22,10.3,18.06c0,0,29.23-6.92,61.53,16.92c0,0,18.84-179.6,30.77-183.83L308.36,268.21z"/>
	<polygon class="st17" points="234.09,325.72 228.7,351.88 161.04,339.58 161.02,339.57 159.48,308.8 172.55,308.8 	"/>
	<polygon class="st17" points="171.46,308.8 161.04,339.58 161.02,339.57 159.48,308.8 	"/>
	<ellipse class="st17" cx="231.78" cy="337.26" rx="7.69" ry="17.69"/>
	<path class="st17" d="M191.78,711.13c-1.3,0-2.35-1.05-2.35-2.35c0,0,0,0,0,0V337.26c0-1.3,1.05-2.35,2.35-2.35
		c1.3,0,2.35,1.05,2.35,2.35c0,0,0,0,0,0v371.51C194.13,710.07,193.08,711.13,191.78,711.13
		C191.78,711.13,191.78,711.13,191.78,711.13z"/>
	<path class="st17" d="M224.09,776.51c-1.12,0-2.09-0.8-2.3-1.9l-32.31-165.61c-0.25-1.27,0.58-2.51,1.86-2.76
		c0.94-0.18,1.89,0.22,2.42,1.02l85.38,130.23c0.71,1.09,0.41,2.54-0.68,3.26c-1.09,0.71-2.54,0.41-3.26-0.68l0,0l-78.81-120.21
		l30.01,153.86c0.25,1.27-0.58,2.51-1.86,2.76c0,0,0,0,0,0C224.39,776.49,224.24,776.51,224.09,776.51z"/>
	<path class="st17" d="M102.56,747.28c-1.3,0-2.35-1.06-2.35-2.35c0-0.46,0.13-0.9,0.38-1.29l89.22-136.14
		c0.71-1.08,2.17-1.38,3.26-0.67c1.08,0.71,1.38,2.16,0.68,3.25l-89.22,136.14C104.09,746.88,103.35,747.28,102.56,747.28z"/>
	<path class="st1" d="M752.94,267.65l61.92,0.38c0,0,101.92,54.23,30.38,166.53c0,0-29.23-6.92-61.53,16.92
		C783.71,451.48,764.86,271.88,752.94,267.65z"/>
	<path class="st29" d="M771.36,268.21c11.09,46.34,23.63,165.85,23.63,165.85c28.86-21.3,55.25-18.05,60.55-17.11
		c-3.13,6.19-6.56,12.22-10.3,18.06c0,0-29.23-6.92-61.53,16.92c0,0-18.84-179.6-30.77-183.83L771.36,268.21z"/>
	<polygon class="st17" points="845.63,325.72 851.01,351.88 918.67,339.58 918.7,339.57 920.24,308.8 907.16,308.8 	"/>
	<polygon class="st29" points="908.25,308.8 918.67,339.58 918.7,339.57 920.24,308.8 	"/>
	<ellipse class="st0" cx="847.93" cy="337.26" rx="7.69" ry="17.69"/>
	<path class="st17" d="M887.93,711.13c-1.3,0-2.35-1.05-2.35-2.35c0,0,0,0,0,0V337.26c0-1.3,1.05-2.35,2.35-2.35
		c1.3,0,2.35,1.05,2.35,2.35v371.51C890.28,710.07,889.23,711.13,887.93,711.13C887.93,711.13,887.93,711.13,887.93,711.13z"/>
	<path class="st17" d="M855.63,776.51c-0.15,0-0.3-0.01-0.45-0.04c-1.27-0.25-2.11-1.48-1.86-2.76l30.01-153.86l-78.81,120.21
		c-0.71,1.09-2.17,1.39-3.26,0.68c-1.09-0.71-1.39-2.17-0.68-3.26l0,0l85.38-130.23c0.71-1.09,2.17-1.39,3.26-0.68
		c0.8,0.52,1.2,1.48,1.02,2.42l-32.31,165.61C857.72,775.71,856.75,776.5,855.63,776.51z"/>
	<path class="st17" d="M977.16,747.28c-0.79,0-1.53-0.4-1.97-1.06l-89.22-136.14c-0.71-1.09-0.41-2.54,0.68-3.25
		c1.09-0.71,2.54-0.41,3.25,0.68l0,0l89.22,136.14c0.71,1.09,0.41,2.54-0.68,3.26C978.06,747.14,977.61,747.28,977.16,747.28z"/>
	<path class="st0" d="M486.27,548.05l16.85-4.69c0,0,6.6-1.32,2.57-14.2c-4.03-12.89-12.03-9.28-12.03-9.28l-14.94,4.34l-5.9,1.82
		l8.3,11.65l0.7,7.76L486.27,548.05z"/>
	<polygon class="st0" points="453.72,514 448.43,535.11 475.51,561.36 477.84,561.94 484.05,560.2 489.34,539.09 483.98,533.46 
		489.46,532.02 477.78,520.69 471.68,521.97 466.8,517.11 470.1,515.79 470.41,514.55 466.41,511.41 	"/>
	<polygon class="st1" points="479.09,543.78 475.59,557.75 459.45,542.49 463.49,528.33 	"/>
	<polygon class="st31" points="453.72,514 452.98,516.96 479.9,543.16 482.23,543.74 488.25,542.11 488.58,542.11 489.34,539.09 
		483.98,533.46 489.46,532.02 477.78,520.69 471.68,521.97 466.8,517.11 470.1,515.79 470.41,514.55 466.41,511.41 	"/>
	
		<ellipse transform="matrix(0.2429 -0.9701 0.9701 0.2429 -145.4145 841.1588)" class="st1" cx="466.16" cy="513.74" rx="1.52" ry="2.24"/>
	
		<ellipse transform="matrix(0.2429 -0.9701 0.9701 0.2429 -154.3792 874.8595)" class="st1" cx="483.26" cy="536.33" rx="1.52" ry="2.24"/>
	<path class="st32" d="M497.46,574.35l-3.67-12.49c0,0,9.55-22.78-1.47-24.98c-11.02-2.2-11.76,21.31-11.76,21.31l4.41,13.96
		L497.46,574.35z"/>
	<circle class="st32" cx="429.26" cy="520.88" r="29.18"/>
	<path class="st32" d="M438.7,541.48c0,0,1.72,21.46,6.01,23.18c4.29,1.72-46.35,13.73-46.35,13.73l12.88-14.59
		c0,0,2.58-22.32-3.43-27.47L438.7,541.48z"/>
	<path class="st1" d="M479.83,567.74l11.76-1.47c0,0,13.96,7.35,13.96,16.9s8.08,24.98,8.08,24.98s5.88,20.57-7.35,22.04
		c-13.22,1.47-24.98-22.04-24.98-22.04L479.83,567.74z"/>
	<path class="st14" d="M486.44,684.55c0,0,25.71-24.25,33.06-22.78c7.35,1.47,22.04,3.67,22.04,14.69s-24.25,36.74-24.25,36.74
		s-18.37,40.41-36,41.88c-11.6,1.05-23.13,2.77-34.53,5.14c0,0,8.08,29.39,3.67,37.47c-4.41,8.08-21.31,17.63-22.78,16.9
		c-1.47-0.73-22.04-19.84-30.86-47.02c-8.82-27.18-14.69-47.76-6.61-49.23C398.28,716.88,486.44,684.55,486.44,684.55z"/>
	<path class="st14" d="M539.34,674.27c0,0,5.14-0.73,4.41,11.76c-0.73,12.49-2.94,57.31-6.61,66.12c-3.67,8.82-4.41,19.1-2.94,22.78
		c1.47,3.67,4.41,9.55-0.73,10.29s-26.45-2.2-28.65-2.94s-4.41-13.22-2.94-13.22s5.14-0.73,3.67-5.88c-1.47-5.14-2.2-5.14,0-6.61
		c2.2-1.47,8.08-3.67,6.61-5.14c-1.47-1.47-2.94-36-2.94-36L539.34,674.27z"/>
	<path class="st14" d="M531.99,783c0,0,12.49-3.67,13.96,4.41c0,0,2.2,12.49-7.35,16.9c-6.16,2.91-12.06,6.35-17.63,10.29
		c0,0-15.43,5.88-16.16-1.47s2.94-33.8,2.94-33.8L531.99,783z"/>
	<path class="st14" d="M448.97,791.82l-23.51-19.1c0,0,4.41,23.51-1.47,27.92l-2.68,7.85l7.52,6.15
		C428.82,814.64,451.91,810.92,448.97,791.82z"/>
	<path class="st14" d="M415.91,759.49c0,0,15.43,4.41,13.22,19.84c-2.2,15.43-5.03,32.19-5.03,32.19s-0.85,41.28-11.87,44.22
		c-11.02,2.94-13.96-2.94-13.96-2.94s-12.53-32.26-8.82-41.88c4.49-11.65,10.96-24.72,8.82-28.65
		C396.16,778.4,399.74,757.29,415.91,759.49z"/>
	<path class="st1" d="M407.09,556.72c0,0,5.88,0.73,15.43,2.2c9.55,1.47,16.16-5.88,21.31-4.41c5.14,1.47,47.76,11.76,47.76,11.76
		l-6.61,50.69c0,0,8.08,58.78,6.61,69.06c-1.47,10.29,17.63,8.82,6.61,21.31c-11.02,12.49-30.12,23.51-69.06,19.84
		c-38.94-3.67-44.08-2.94-44.08-8.82s8.82-55.84,5.88-60.25c-2.94-4.41-8.82-9.55-5.88-14.69s5.88-8.08,1.47-12.49
		c-4.41-4.41-6.61-8.82-6.61-11.02c0-2.2-10.29-38.2-10.29-38.2s4.41-17.63,9.55-18.37c5.14-0.73,9.55-4.41,13.22-4.41
		s5.88,0.73,8.08,0L407.09,556.72z"/>
	<path class="st14" d="M477.55,510.64c-0.38-1.7-2.23-7.38-5.99-8.76c-2.75-1.01-7.87,1.13-10.42,0.77l-0.33-0.93
		c-0.22-1.84-0.68-3.64-1.36-5.36c-2.72-6.95-8.16-12.49-15.06-15.35c-8.4-3.51-21.69-6.42-33.22,2.79
		c-15.84,12.64-13.04,31.55-11.89,36.8c0.19,0.88,0.36,1.76,0.49,2.64c0.71,4.62,2.75,5.17,2.75,5.17s-0.04-0.13-0.12-0.38
		l14.3,1.39l7.73-1.32c0.13,0.76,0.18,1.2,0.18,1.2c22.56-3.45,35.7-15.33,37.83-17.4c1.87,1.24,5.37,3.27,8.75,3.72
		C476.16,516.29,477.92,512.34,477.55,510.64z M419.41,522.01l-18.17-0.66c-0.26-4.96,1.02-10.76,8.33-11.06
		c7.04-0.29,10.89,5.44,12.92,10.68L419.41,522.01z"/>
	
		<ellipse transform="matrix(0.9857 -0.1682 0.1682 0.9857 -74.4401 78.1412)" class="st14" cx="423.95" cy="478.4" rx="3.21" ry="1.22"/>
</g>
</svg>
