<?xml version="1.0" encoding="utf-8"?>
<!-- Generator: Adobe Illustrator 24.0.0, SVG Export Plug-In . SVG Version: 6.00 Build 0)  -->
<svg version="1.1" id="Layer_1" xmlns="http://www.w3.org/2000/svg" xmlns:xlink="http://www.w3.org/1999/xlink" x="0px" y="0px"
	 viewBox="0 0 1080 1080" style="enable-background:new 0 0 1080 1080;" xml:space="preserve">
<style type="text/css">
	.st0{fill:#3F3D56;}
	.st1{fill:#6C63FF;}
	.st2{fill:#F2F2F2;}
	.st3{opacity:0.7;}
	.st4{fill:url(#SVGID_1_);}
	.st5{opacity:0.1;enable-background:new    ;}
	.st6{fill:#E0E0E0;}
	.st7{fill:url(#SVGID_2_);}
	.st8{fill:#72351C;}
	.st9{fill:#FDA57D;}
	.st10{fill:url(#SVGID_3_);}
	.st11{fill:#535461;}
	.st12{fill:#FFFFFF;}
	.st13{fill:#EEEEEE;}
	.st14{fill:#2F2E41;}
	.st15{fill:#A0616A;}
	.st16{fill:#D0CDE1;}
	.st17{fill:#E6E6E6;}
	.st18{opacity:0.1;fill:#6C63FF;enable-background:new    ;}
	.st19{fill:none;stroke:#535461;stroke-width:2;stroke-miterlimit:10;}
	.st20{opacity:0.25;enable-background:new    ;}
	.st21{fill:#495464;}
	.st22{fill:#464353;}
	.st23{fill:#514E7F;}
	.st24{opacity:0.5;fill:#6C63FF;enable-background:new    ;}
	.st25{fill:url(#SVGID_4_);}
	.st26{fill:#A1616A;}
	.st27{opacity:0.05;enable-background:new    ;}
	.st28{opacity:0.1;}
	.st29{opacity:0.2;enable-background:new    ;}
	.st30{fill:#E6E8EC;}
	.st31{fill:none;stroke:#3F3D56;stroke-miterlimit:10;}
	.st32{fill:#FFB6B6;}
	.st33{fill:#F86D70;}
	.st34{fill:#444053;}
	.st35{opacity:0.1;fill:#FFFFFF;enable-background:new    ;}
	.st36{fill:none;stroke:#444053;stroke-miterlimit:10;}
	.st37{fill:url(#SVGID_5_);}
	.st38{fill:#2D293D;}
	.st39{opacity:0.05;}
	.st40{fill:#FFCDD3;}
	.st41{fill:#DCE6F2;}
	.st42{fill:#DC9BA3;}
	.st43{fill:#FFD2D9;}
	.st44{fill:#E9E9EF;}
	.st45{fill:#CEDAD5;}
	.st46{fill:#FFD037;}
	.st47{fill:#A8A8A8;}
	.st48{fill:#844F6E;}
	.st49{opacity:0.2;fill:#FFFFFF;enable-background:new    ;}
	.st50{opacity:0.05;fill:#00FF00;enable-background:new    ;}
	.st51{fill:#7679B4;}
	.st52{fill:#565388;}
	.st53{opacity:0.2;fill:#6C63FF;enable-background:new    ;}
	.st54{opacity:0.2;}
	.st55{opacity:0.1;fill:#252223;enable-background:new    ;}
	.st56{opacity:0.3;fill:#6C63FF;enable-background:new    ;}
	.st57{fill:url(#SVGID_6_);}
	.st58{fill:url(#SVGID_7_);}
	.st59{fill:#F9D5C6;}
	.st60{fill:#353535;}
	.st61{fill:#409CD6;}
	.st62{fill:#2F302F;}
	.st63{fill:none;stroke:#535461;stroke-miterlimit:10;}
</style>
<g>
	<path class="st17" d="M112.27,689.86c4.74-6.23,10.39-11.71,16.76-16.26c34.11-25.26,90.57-37.32,106.81-71.26
		c10.64-22.27-0.29-47.08-15.77-67.73c-31.68-42.28-83.8-79.61-91.03-126.95c-0.38-2.25-0.63-4.57-0.76-6.86
		c-0.25-4.69,0-9.4,0.76-14.04c0.82-5.09,2.18-10.09,4.08-14.89c9.36-23.98,31.57-45.3,61.28-57.14
		c43.35-17.25,103.46-15.08,135.46,13.48c32.93,29.4,90.81,40.73,140.42,39.21c56.19-1.72,109.72-17.63,160.81-35.05
		c51.1-17.42,101.7-36.7,156.55-45.93c35.28-5.93,75.62-6.77,104.04,9.82c27.36,15.97,36.2,43.53,40.94,69.11
		c0.37,2.16,0.78,4.33,1.14,6.51c2.77,17.29,3.44,35.05-5.25,51.04c-6.8,12.5-18.85,23.02-27.23,34.99
		c-29.06,41.69-8.52,93.09,22.96,133.79c8.85,11.43,18.54,22.51,27.31,33.96c5.89,7.48,11.24,15.37,16,23.62
		c11.39,20.32,16.67,43.61,6.69,64.35c-4.78,9.95-12.75,18.71-22.66,26.33c-10.51,8.11-23.14,14.91-36.29,20.51
		c-6.51,2.76-13.14,5.28-19.9,7.57c-47.2,16-100.45,21.26-152.53,24.38c-131.82,7.91-264.34,4.49-396.5,1.05
		c-48.92-1.26-98.04-2.55-146.16-9.2c-21.45-2.96-43.47-7.31-61.35-16.22c-3.4-1.67-6.69-3.57-9.84-5.68
		c-0.85-0.57-1.7-1.15-2.52-1.75C101.88,742.7,95.78,712.35,112.27,689.86z"/>
	<ellipse class="st18" cx="566.39" cy="749.29" rx="180.43" ry="6.13"/>
	<g id="_x35_5bfdb31-36b5-4718-97dd-773b4157bdc7">
		<path class="st19" d="M353.92,566.28c6.77,7.02,12.87,14.65,18.24,22.78c11.29,17.18,16.34,37.6,15.08,58.11
			c-3,48.87,35.81,98.03,35.81,98.03"/>
		<path class="st1" d="M355.65,535.46L355.65,535.46c-2.75-6.84-10.51-10.15-17.35-7.41c-6.84,2.75-10.15,10.51-7.41,17.35
			c2.74,6.83,23.08,21.68,23.08,21.68s4.41-24.78,1.67-31.62H355.65z"/>
		<path class="st1" d="M391.3,565.1c1.3-7.12-3.32-13.98-10.41-15.45c-7.21-1.5-14.27,3.14-15.77,10.35
			c-1.41,7.23,7.59,30.74,7.59,30.74S389.88,572.33,391.3,565.1L391.3,565.1z"/>
		<path class="st1" d="M416.38,630.11L416.38,630.11c4.87-5.53,4.33-13.95-1.2-18.82c-5.53-4.87-13.95-4.33-18.82,1.2
			c-4.86,5.53-8.97,30.37-8.97,30.37s24.12-7.19,28.98-12.71V630.11z"/>
		<path class="st1" d="M424.39,683.46c3.82-6.3,1.8-14.5-4.5-18.32c-6.3-3.82-14.5-1.8-18.32,4.5c-3.86,6.27-3.71,31.45-3.71,31.45
			s22.56-11.19,26.42-17.46C424.33,683.57,424.36,683.51,424.39,683.46z"/>
		<path class="st1" d="M340.05,585.37c2.69-6.86,10.43-10.24,17.28-7.55c6.8,2.79,21.52,23.23,21.52,23.23s-24.81,4.24-31.63,1.45
			C340.6,599.66,337.43,592.08,340.05,585.37z"/>
		<path class="st1" d="M356.82,664.89c-7.33-0.75-12.66-7.3-11.91-14.62c0.75-7.33,7.3-12.66,14.62-11.91
			c7.33,0.63,27.48,15.72,27.48,15.72s-22.39,11.48-29.75,10.85C357.12,664.92,356.97,664.91,356.82,664.89z"/>
		<path class="st1" d="M375.41,724.27c-6.81-1.96-10.89-8.91-9.3-15.81c1.65-7.18,8.81-11.65,15.99-10
			c7.13,1.86,24.43,20.14,24.43,20.14s-24.02,7.52-31.15,5.67L375.41,724.27z"/>
		<path class="st20" d="M355.65,535.46L355.65,535.46c-2.75-6.84-10.51-10.15-17.35-7.41c-6.84,2.75-10.15,10.51-7.41,17.35
			c2.74,6.83,23.08,21.68,23.08,21.68s4.41-24.78,1.67-31.62H355.65z"/>
		<path class="st20" d="M391.3,565.1c1.3-7.12-3.32-13.98-10.41-15.45c-7.21-1.5-14.27,3.14-15.77,10.35
			c-1.41,7.23,7.59,30.74,7.59,30.74S389.88,572.33,391.3,565.1L391.3,565.1z"/>
		<path class="st20" d="M416.38,630.11L416.38,630.11c4.87-5.53,4.33-13.95-1.2-18.82c-5.53-4.87-13.95-4.33-18.82,1.2
			c-4.86,5.53-8.97,30.37-8.97,30.37s24.12-7.19,28.98-12.71V630.11z"/>
		<path class="st20" d="M424.39,683.46c3.82-6.3,1.8-14.5-4.5-18.32c-6.3-3.82-14.5-1.8-18.32,4.5c-3.86,6.27-3.71,31.45-3.71,31.45
			s22.56-11.19,26.42-17.46C424.33,683.57,424.36,683.51,424.39,683.46z"/>
		<path class="st20" d="M340.05,585.37c2.69-6.86,10.43-10.24,17.28-7.55c6.8,2.79,21.52,23.23,21.52,23.23s-24.81,4.24-31.63,1.45
			C340.6,599.66,337.43,592.08,340.05,585.37z"/>
		<path class="st20" d="M356.82,664.89c-7.33-0.75-12.66-7.3-11.91-14.62c0.75-7.33,7.3-12.66,14.62-11.91
			c7.33,0.63,27.48,15.72,27.48,15.72s-22.39,11.48-29.75,10.85C357.12,664.92,356.97,664.91,356.82,664.89z"/>
		<path class="st20" d="M375.41,724.27c-6.81-1.96-10.89-8.91-9.3-15.81c1.65-7.18,8.81-11.65,15.99-10
			c7.13,1.86,24.43,20.14,24.43,20.14s-24.02,7.52-31.15,5.67L375.41,724.27z"/>
		<path class="st19" d="M287,607.58c9.03,3.68,17.71,8.18,25.92,13.44c17.26,11.13,30.17,27.75,37.33,47.02
			c17.05,45.9,72.45,75.1,72.45,75.1"/>
		<path class="st1" d="M257.5,578.97c-5.21,5.21-5.2,13.65,0.01,18.86c5.28,5.11,29.88,10.47,29.88,10.47s-6.02-24.45-11.29-29.58
			C270.85,573.74,262.6,573.86,257.5,578.97z"/>
		<path class="st1" d="M320.69,591.36c-0.04-0.18-0.08-0.35-0.12-0.52c-1.79-7.15-9.03-11.49-16.17-9.71
			c-7.15,1.79-11.49,9.03-9.71,16.17c1.65,7.18,19.4,25.03,19.4,25.03s8.24-23.79,6.6-30.97L320.69,591.36z"/>
		<path class="st1" d="M369.96,640.71c0.07-0.19,0.13-0.38,0.18-0.58c2.06-7.07-2.01-14.47-9.08-16.53
			c-7.07-2.06-14.47,2.01-16.53,9.08c-2.21,7.03,4.11,31.4,4.11,31.4s19.12-16.39,21.33-23.42L369.96,640.71z"/>
		<path class="st1" d="M398.89,686.35c0.99-7.3-4.12-14.02-11.42-15.01c-7.3-0.99-14.02,4.12-15.01,11.42
			c-0.98,7.3,9.37,30.25,9.37,30.25S397.91,693.65,398.89,686.35L398.89,686.35z"/>
		<path class="st1" d="M282.09,630.63c-0.31-7.36,5.4-13.58,12.76-13.89c7.36-0.2,29.09,12.51,29.09,12.51s-20.97,13.94-28.33,14.15
			C288.38,643.5,282.39,637.84,282.09,630.63z"/>
		<path class="st1" d="M330.08,696.41c-6.79,2.18-14.1-1.38-16.57-8.07c-2.56-6.91,0.97-14.58,7.88-17.14
			c6.97-2.4,31.5,3.24,31.5,3.24S337.04,694,330.08,696.41L330.08,696.41z"/>
		<path class="st1" d="M355.61,732.51c-1.32-7.25,3.49-14.19,10.73-15.51c7.27-1.19,30.5,8.52,30.5,8.52s-18.92,16.61-26.19,17.8
			C363.54,744.35,356.89,739.57,355.61,732.51z"/>
	</g>
	<polygon class="st21" points="447.26,516.88 449.01,503.09 505.41,509.4 506.35,516.88 535.1,747.23 528.42,747.23 486.12,523.49 
		479.07,747.23 472.76,747.23 467.2,523.12 423.78,747.23 417.85,747.23 	"/>
	<rect x="537.66" y="458.16" class="st22" width="35.9" height="22.26"/>
	<path class="st22" d="M365.26,496.98l-21.71,9.04h-4.76c-1.44,0-2.62-1.17-2.62-2.62v-61.13c0-1.44,1.17-2.62,2.62-2.62h4.76
		l21.71,8.77V496.98z"/>
	<rect x="365.26" y="451.21" class="st22" width="44.38" height="42.99"/>
	<rect x="458.12" y="370.46" class="st23" width="28.57" height="5.19"/>
	<rect x="438.86" y="377.18" class="st23" width="80.42" height="58.72"/>
	<rect x="438.86" y="428.95" class="st5" width="80.42" height="6.96"/>
	<rect x="408.53" y="451.21" class="st5" width="1.8" height="42.99"/>
	<rect x="537.66" y="458.16" class="st5" width="12.25" height="22.26"/>
	<polygon class="st5" points="449.01,503.09 505.41,509.4 506.35,516.88 447.26,516.88 	"/>
	<path class="st23" d="M548.79,437.22v71.39c0,3.95-3.21,7.16-7.16,7.16H416.81c-3.95,0-7.16-3.21-7.16-7.16v-71.39
		c0-3.95,3.21-7.16,7.16-7.16h124.82C545.58,430.06,548.79,433.26,548.79,437.22z"/>
	<path class="st23" d="M369.15,451.9v41.61l0,0c0,1.92-1.55,3.47-3.47,3.47h-0.42l0,0v-48.56l0,0h0.42
		C367.6,448.42,369.15,449.98,369.15,451.9z"/>
	<path class="st23" d="M343.55,439.68v66.38l0,0h-4.5c-1.59,0-2.87-1.29-2.87-2.87v-60.64c0-1.59,1.29-2.87,2.87-2.87H343.55
		L343.55,439.68z"/>
	<rect x="567.15" y="458.16" class="st5" width="6.4" height="22.26"/>
	<path class="st23" d="M580.79,456.02v28.21c0,2.66-2.16,4.82-4.82,4.82h-2.88c-2.66,0-4.82-2.16-4.82-4.82v-28.21
		c0-2.66,2.16-4.82,4.82-4.82h2.88C578.63,451.21,580.79,453.36,580.79,456.02z"/>
	
		<ellipse transform="matrix(0.0453 -0.999 0.999 0.0453 118.9637 878.8438)" class="st22" cx="519.29" cy="377.18" rx="40.07" ry="40.07"/>
	<circle class="st1" cx="519.29" cy="377.18" r="30.06"/>
	<circle class="st22" cx="444.99" cy="378.02" r="29.22"/>
	<circle class="st1" cx="444.99" cy="378.02" r="21.91"/>
	<circle class="st1" cx="447.26" cy="442.81" r="3.85"/>
	<circle class="st24" cx="435.02" cy="442.81" r="3.85"/>
	
		<linearGradient id="SVGID_1_" gradientUnits="userSpaceOnUse" x1="-1752.9268" y1="1442.0751" x2="-1752.9268" y2="1872.9913" gradientTransform="matrix(-1 0 0 -1 -1145.8534 2193.78)">
		<stop  offset="0" style="stop-color:#808080;stop-opacity:0.25"/>
		<stop  offset="0.54" style="stop-color:#808080;stop-opacity:0.12"/>
		<stop  offset="1" style="stop-color:#808080;stop-opacity:0.1"/>
	</linearGradient>
	<path class="st4" d="M481.5,486.85c6.85,7.16,14.25-6.15,18.69-16.66c0.2-0.48,0.39-0.94,0.58-1.41c0.23,1.95,0.35,3.92,0.35,5.88
		c0,0,9.37-8.38,10.93-11.96c1.56-3.58,16.06-2.11,16.06-2.11s9.82-4.36,11.38-7.28c1.56-2.92,10.71,4.63,13.6,2.43
		c2.9-2.2,29.22-13.69,29.22-13.69l0,0l1.11,1.65c0,0,7.21,17.93,5.61,21.94s0.23,26.54,1.45,27.66c1.22,1.12-2.12,46.06-8.14,46.06
		c0,0,16.5,11.17,21.41,7.83c1.59-1.08,1.47-5.63,0.8-11.54l1.34,0.23l2.51,0.41l4.36,0.72c-0.61,1.37-1.4,2.66-2.34,3.83
		c-3.35,3.9,0,8.59,0,8.59s-1.12,10.08-4.46,19.02c-3.35,8.94-4.9,44.95-3.12,51.88c1.78,6.93,1.78,15.2,1.78,15.2
		s0.23,14.98,14.95,20.8l1.76,0.7l22.9,24.63c0,0.05,0,0.1,0,0.15c-0.02,0.36-0.06,0.73-0.06,1.11
		c-0.92,17.22-1.18,48.09-1.18,48.09l3.57,0.8v14.05c0,0,3.01,5.61,13.38,5.87c3.02,0.07,4.88-1.49,5.98-3.74
		c1.47-2.94,1.61-7.05,1.47-10.22c-0.03-0.45-0.05-0.91-0.09-1.34l1.8,0.4l4.46-17.67c0.64-0.9,1.21-1.84,1.7-2.82
		c0.15-0.28,0.29-0.58,0.43-0.88l6.57,7.07c0,0,1.13-1.49,2.97-3.81l0.84,1.34c2.05,3.25,4.88,7.84,6.59,11.27
		c2.92,5.87-1.59,11.32-1.59,11.32c-1,3.39-1.01,5.48-0.56,6.74c0.93,2.61,3.83,1.65,3.83,1.65c8.54-0.94,13.93-22.67,12.64-27.71
		c-0.06-0.28-0.18-0.54-0.35-0.77c-0.35-0.45-0.58-0.99-0.67-1.56c-0.56-3.14,2.11-7.78,2.11-7.78l4.93,1.93l4.52-13.91l0,0
		l-2.85-3.52l0,0l-3.69-4.54l-0.81-1.04c0.62-0.4,1.3-0.7,2.01-0.9c0,0-14.51-14.99-28.04-26.3c0.02-0.43,0.07-0.86,0.07-1.28
		c0.75-15.47,0.54-27.88,0.54-27.88s-3.12-15.21,0-21.02c2.41-4.46,3.23-11.19,3.47-14.05c0.09-0.84,0.09-1.34,0.09-1.34l0,0v-19.91
		c0,0,9.37-10.95,8.03-24.37c-1.34-13.42,1.57-12.97,1.57-12.97s-0.04-6-0.33-12.08c0.91,1.24,1.45,2.01,1.45,2.01l0.67-0.96
		c0.43,0.61,0.67,0.96,0.67,0.96s1.73-2.51,4.16-6.1l0.08,0.06c0.28,0.19,0.6,0.33,0.94,0.41c2.06,0.56,6.12,0.15,11.78-0.41
		c6.69-0.67,1.11-14.53,1.11-14.53l-1.76-1.81l-0.8-0.83c2.74-4.3,4.74-7.68,4.74-8.31c-0.07-2.01,8.04-12.83,8.71-15.28
		s2.9-6.93,6.02-13.64S734,455.66,734,455.66s-13.6-19.2-13.21-21.88c0.39-2.68-8.2-4.25-8.2-4.25s-2.9-5.16-5.13-5.59
		s-4.9-6.69-4.9-6.69l0,0c1.79-2.9-3.12-2.68-3.12-2.68s-4.9-1.33-4.01-3.35c0.89-2.01-5.81-3.36-5.58-6.26
		c0.23-2.9-4.01-3.35-4.01-3.35s-6.02,2.01-5.35,0s-9.37-3.14-9.37-3.14s-4.9,2.46-7.58,0c-2.68-2.46-13.62-2.46-13.62-2.46
		s2.24-8.5,0-10.96c-0.53-0.58-1.87-0.27-3.6,0.53c-0.21-1.65-0.4-3.29-0.56-4.82c-0.03-0.21-0.07-0.41-0.07-0.62
		c1.53-1.56,2.8-3.35,3.77-5.3c0.19-0.39,0.37-0.8,0.55-1.21c0.78,0.17,1.57,0.26,2.37,0.27c1.41-0.01,2.74-0.37,3.55-1.47
		c0.09-0.12,0.17-0.25,0.24-0.39c0.02-0.04,0.05-0.08,0.07-0.13c0.04-0.09,0.09-0.19,0.12-0.28l0.06-0.17
		c0.03-0.09,0.07-0.17,0.07-0.26l0.04-0.19c0.04-0.07,0-0.07,0.04-0.23c0.04-0.17,0.04-0.34,0.04-0.51c0-0.03,0,0.02,0-0.09
		c0-0.11,0-0.23,0-0.35v-0.08c-0.03-0.12-0.03-0.24-0.03-0.37l0,0c-0.03-0.27-0.07-0.55-0.13-0.82c-0.3-1.31-0.87-2.53-1.14-3.87
		c-0.11-0.5-0.11-1.02,0-1.53l0,0c0.03-0.13,0.07-0.25,0.13-0.37l0.04-0.08c0.06-0.12,0.13-0.23,0.21-0.33
		c0.76-0.84,2.19-0.67,3.12-1.34c0.11-0.08,0.22-0.18,0.31-0.29c0.03-0.03,0.06-0.07,0.08-0.11c0.06-0.07,0.11-0.15,0.16-0.23
		l0.07-0.15c0.04-0.08,0.08-0.15,0.11-0.23l0.05-0.17c0.03-0.08,0.07-0.19,0.07-0.25s0-0.1,0-0.18s0-0.17,0-0.25
		c0-0.06,0-0.12,0-0.19c0-0.09,0-0.21,0-0.27s0-0.07,0-0.17c0-0.11,0-0.26,0-0.31s0-0.09,0-0.14l0,0c-0.02-0.15-0.05-0.3-0.08-0.44
		c-0.26-1.2-0.76-2.39-0.61-3.61c0.03-0.05,0.03-0.1,0.03-0.15l0,0c0.28-1.62,1.63-2.85,2.35-4.34l0,0c0.1-0.22,0.19-0.44,0.27-0.67
		c0.02-0.06,0.05-0.12,0.05-0.19c0.05-0.19,0.1-0.39,0.13-0.59c0-0.05,0-0.11,0-0.16c0.06-0.23,0.06-0.45,0.06-0.67v-0.1
		c0.01-0.25-0.01-0.51-0.03-0.76l0,0c-0.08-0.76-0.3-1.5-0.67-2.17c-1.55-2.79-5.1-3.97-6.77-6.65c-0.82-1.44-1.18-3.11-1.02-4.76
		l0,0c0.03-0.59,0.11-1.17,0.21-1.75l0,0c0.05-0.28,0.11-0.56,0.17-0.83v-0.09c0.07-0.27,0.13-0.53,0.2-0.79
		c0.04-0.15,0.11-0.39,0.13-0.47c0.02-0.08,0.05-0.15,0.05-0.23l0.06-0.23c0.09-0.38,0.16-0.76,0.21-1.14v-0.03
		c0.05-0.4,0.05-0.81,0-1.22l0,0c-0.06-0.44-0.23-0.85-0.48-1.21c-0.61-0.71-1.46-1.18-2.38-1.34c-3.81-0.89-7.87,0.27-11.7-0.53
		c-2.52-0.52-4.82-1.85-7.36-2.13c-4.12-0.47-8.14,1.98-10.71,5.26c-1.77,2.26-3.08,4.98-5.47,6.55c-2.09,1.39-4.71,1.66-7,2.68
		c-2.56,1.13-4.81,3.57-4.64,6.37c0,0.02,0,0.05,0,0.05c0.02,0.25,0.05,0.5,0.1,0.74c0.01,0.06,0.03,0.13,0.05,0.19
		c0.05,0.21,0.1,0.41,0.17,0.62v0.06c0.46,1.41,1.23,2.77,1.42,4.24c0.02,0.15,0.05,0.29,0.05,0.45c0.07,1.87-0.94,3.57-1.64,5.3
		c-0.41,0.94-0.64,1.96-0.67,2.98c0,0.09,0,0.14,0,0.26c0,0.12,0,0.24,0,0.35c0.02,0.14,0.05,0.28,0.08,0.41
		c0.01,0.06,0.03,0.13,0.05,0.19c0.05,0.17,0.12,0.34,0.2,0.51c0.02,0.04,0.04,0.07,0.06,0.11c0.09,0.18,0.2,0.35,0.33,0.51l0,0
		c0.75,0.83,1.82,1.31,2.94,1.3h0.48c0.92-0.09,1.82-0.31,2.68-0.67c-0.16,0.49-0.3,0.98-0.42,1.49
		c-1.81,7.53,0.71,15.43,6.53,20.54c0.01,0.25,0.05,0.49,0.05,0.73c0.17,3.12,0.14,6.25-0.1,9.37l-0.1-0.08l-0.74,0.96
		c0.55-4.37,1.02-7.5,1.02-7.5s-11.54,9.69-15.93,9.92c0,0,1.18,5.37,6.09,7.6c0,0-12.05,1.58-16.51,0.91s-12.26,0.43-13.82,2.68
		c-1.57,2.24-4.91,5.13-7.59,5.59c-2.68,0.46-5.59,3.13-5.59,3.13s-3.34,4.47-6.46,4.47c-3.12,0-5.57,4.01-5.57,4.01
		s-4.46,2.46-7.36,1.79c-2.9-0.67-14.94-1.77-16.73,0.12c-1.79,1.89-13.38,3.68-13.38,3.68s-4.46,6.93-8.48,6.93
		c-4.01,0-26.32,16.33-26.99,22.14c1.53-0.92,3.16-1.67,4.86-2.23l-0.27,0.54C479.65,463.67,473.74,478.71,481.5,486.85z
		 M681.89,503.67l-0.05,0.05v-0.13L681.89,503.67z M686.92,451.33L686.92,451.33L686.92,451.33l10.49,5.35c0,0,3.79,7.37,6.69,8.5
		s2.68,5.14,2.68,5.14s-7.81,5.57-4.9,8.03s0,3.8,0,3.8l-5.76,6.27l-0.67-0.71l-5.57-5.77l-2.84-29.92L686.92,451.33z
		 M649.68,605.11c0.01,0.05,0.08,0.54,0.21,1.34c0.54,3.31,1.97,12.05,2.68,16.35c0.5,3.5,0.35,7.06-0.45,10.51
		c0,0-0.23,1.73-0.67,4.4c-0.05,0.35-0.11,0.71-0.17,1.08c-0.31-0.44-0.54-0.94-0.67-1.46c-0.89-4.26-5.8-6.48-5.8-6.48
		s3.79-14.31,2.23-17.89c-0.86-2.19-1.02-4.59-0.48-6.88c0.41-1.37,1.22-2.14,2.47-1.43c0.24,0.14,0.47,0.3,0.67,0.49L649.68,605.11
		z"/>
	<path class="st22" d="M619.12,391.91c0.11,0.17,0.28,4.85,0.28,4.85h-4.74l-1.57-1.84l4.08-8.6l1.45,0.96
		C618.61,387.28,619,391.74,619.12,391.91z"/>
	<path class="st0" d="M666.91,733.71c0.26,1.56,0.43,3.14,0.5,4.72c0.15,3.16-0.02,7.27-1.47,10.2c-1,2.39-3.39,3.88-5.98,3.73
		c-10.37-0.25-13.38-5.85-13.38-5.85v-18.4L666.91,733.71z"/>
	<path class="st5" d="M666.91,733.71c0.26,1.56,0.43,3.14,0.5,4.72l-20.82-4.63v-5.69L666.91,733.71z"/>
	<path class="st23" d="M644.22,683.74c0.05-0.88,0.09-1.71,0.15-2.52c0.23-4.02,0.55-6.99,0.9-8.18c1.28-4.32,4.28-22.38,5.88-32.27
		c0.13-0.77,0.24-1.48,0.34-2.15c0.41-2.7,0.67-4.4,0.67-4.4c0.8-3.43,0.95-6.99,0.45-10.48c-0.7-4.27-2.13-13.01-2.68-16.31
		l-0.21-1.34l1.91-1.62l12.58-10.65h21.64l1.97,5.21l0.48,1.26c0,0-0.03,0.49-0.09,1.34c-0.25,2.86-1.06,9.58-3.47,14.05
		c-3.12,5.79,0,20.96,0,20.96s0.21,12.38-0.54,27.81c-0.04,0.84-0.09,1.7-0.13,2.56c-0.92,17.06-3.08,37.1-7.94,48.22
		c-0.27,0.62-0.55,1.22-0.84,1.78c-0.49,0.98-1.06,1.92-1.7,2.82l-4.46,17.63l-26.1-5.8C643.02,731.68,643.29,700.88,644.22,683.74z
		"/>
	<path class="st5" d="M665.95,748.64c-1,2.39-3.39,3.88-5.98,3.73c-10.37-0.25-13.38-5.85-13.38-5.85v-0.19
		C653.75,750.52,661.3,749.78,665.95,748.64z"/>
	<path class="st26" d="M483.44,457.43c1.41-2.83,2.54-4.62,2.54-4.62l18.31,7.75c0,0-1.57,5.03-4.06,10.93
		c-4.45,10.49-11.81,23.76-18.69,16.62C473.74,479.99,479.65,464.99,483.44,457.43z"/>
	<path class="st26" d="M614.47,371.46c-5.35-12.04,30.33,2.23,30.33,2.23s0.23,3.79,0.74,8.65c0.71,6.86,1.98,15.83,3.94,19.23
		c3.35,5.79-33.9,1.78-33.9,1.78c1.28-6.51,1.77-13.14,1.48-19.77C616.81,379.31,616.07,375.05,614.47,371.46z"/>
	<polygon class="st22" points="598.63,472.94 599.97,486.1 595.96,535.4 618.93,539.18 613.92,479.41 	"/>
	<polygon class="st5" points="599.97,486.2 598.63,473.03 605.02,475.74 608.71,477.3 613.92,479.5 618.02,528.37 618.94,539.28 
		605.93,537.14 595.96,535.49 	"/>
	<path class="st0" d="M686.09,720.69c-1.47-2.3-2.53-3.89-2.53-3.89l24.93-26.01l2.5,3.08l3.69,4.54l2.85,3.51L713,715.8l-4.93-1.92
		c0,0-3.77,6.47-1.43,9.29s-3.18,27.4-12.29,28.4c0,0-2.9,0.96-3.83-1.65c-0.45-1.22-0.44-3.3,0.56-6.69c0,0,4.52-5.43,1.59-11.29
		C690.97,728.53,688.14,723.91,686.09,720.69z"/>
	<path class="st5" d="M645.25,673.01c1.28-4.32,4.28-22.38,5.88-32.27c3.02,4.97,17.32,15.32,17.32,15.32
		c4.23,2,9.82,6.15,15.6,10.97c-0.99,18.02-3.33,39.37-8.78,50L644.2,683.7C644.48,678.41,644.83,674.43,645.25,673.01z"/>
	<polygon class="st5" points="664.21,593.83 685.85,593.83 687.82,599.04 651.63,604.48 	"/>
	<path class="st5" d="M645.25,673.02c1.28-4.32,4.28-22.38,5.88-32.27c0.13-0.77,0.24-1.48,0.34-2.15
		c3.63,5.13,16.98,14.79,16.98,14.79c4.24,2.02,9.9,6.21,15.74,11.08c-0.04,0.84-0.09,1.7-0.13,2.56
		c-0.92,17.06-3.08,37.1-7.97,48.22l-31.76-34.07C644.6,677.17,644.9,674.2,645.25,673.02z"/>
	<path class="st5" d="M708.49,690.8l2.5,3.08c-6.96,4.62-19.57,20.1-24.89,26.83c-1.47-2.3-2.53-3.89-2.53-3.89L708.49,690.8z"/>
	<path class="st23" d="M605.96,569.52c3.35-8.93,4.46-18.97,4.46-18.97s-3.35-4.68,0-8.56c3.35-3.88,5.35-12.62,5.35-12.62
		l2.37-10.99l57.44-10.2c0,0,18.32,8.65,20.23,10.53c1.91,1.89,2.05,24.49,2.05,24.49s-2.9-0.45-1.57,12.93
		c1.34,13.38-8.03,24.31-8.03,24.31v19.83l-38.58,5.8c-0.2-0.19-0.43-0.35-0.67-0.49c-1.25-0.7-2.05,0.09-2.47,1.43
		c-0.55,2.28-0.38,4.67,0.48,6.86c1.56,3.57-2.23,17.85-2.23,17.85s4.91,2.23,5.8,6.47s17.85,16.5,17.85,16.5
		c14.05,6.69,43.71,37.25,43.71,37.25c-7.36,1.79-29.89,31.23-29.89,31.23l-60.89-65.33l-1.76-0.67
		c-14.72-5.8-14.95-20.74-14.95-20.74s0-8.25-1.78-15.17C601.09,614.35,602.62,578.45,605.96,569.52z"/>
	<path class="st5" d="M644.8,373.69c0,0,0.23,3.79,0.74,8.65c-7.66,7.9-20.16,8.45-28.48,1.24c-0.25-4.25-1-8.53-2.6-12.12
		C609.12,359.42,644.8,373.69,644.8,373.69z"/>
	<path class="st26" d="M610.48,362.4c2.24-9.32,10.57-15.89,20.16-15.89c11.46-0.01,20.75,9.27,20.76,20.73s-9.27,20.75-20.73,20.76
		c-11.46,0.01-20.75-9.27-20.76-20.73C609.91,365.63,610.1,363.99,610.48,362.4z"/>
	<path class="st5" d="M616.89,395.54l-11.6,15.18c0,0-6.47,52.2-3.12,57.32s13.61,62.67,13.61,62.67s0.89-2.68,10.93,0
		s56.43-17.17,56.43-17.17l-8.7-39.48c0,0-30.93-79.41-31.86-78.52c-0.93,0.9-15.84,7.81-15.84,7.81L616.89,395.54z"/>
	<path class="st5" d="M616.89,392.86l-11.6,15.18c0,0-6.47,52.2-3.12,57.32s13.61,62.67,13.61,62.67s0.89-2.68,10.93,0
		c10.04,2.68,56.43-17.17,56.43-17.17l-8.7-39.48c0,0-30.93-79.41-31.86-78.52c-0.93,0.9-15.84,7.81-15.84,7.81L616.89,392.86z"/>
	<path class="st1" d="M605.29,409.37l11.54-15.17l0.52,0.41l9.37,7.4c0,0,2.27-1.04,5.09-2.38c4.42-2.08,10.21-4.88,10.75-5.43
		c0.89-0.9,31.9,78.51,31.9,78.51l7.36,33.46l1.34,6.02c0,0-46.4,19.85-56.43,17.18c-4.47-1.2-7.13-1.32-8.7-1.1
		c-1.93,0.28-2.21,1.1-2.21,1.1s-4.32-24.25-8.27-42.67c-0.88-4.08-1.73-7.88-2.52-11.06c-1.13-4.58-2.14-7.88-2.81-8.95
		C598.86,461.57,605.29,409.37,605.29,409.37z"/>
	<path class="st5" d="M631.83,399.62c4.42-2.08,10.21-4.88,10.75-5.43c0.89-0.9,31.9,78.51,31.9,78.51l7.36,33.46
		c-0.43-0.44-0.86-0.86-1.26-1.27c-3.67-3.66-6.3-6.29-6.3-6.29s-17.87-24.52-21-36.68c-3.12-12.16-13.83-38.49-13.83-38.49
		s-3.12-8.46-1.78-13.6C638.56,406.42,634.59,402.13,631.83,399.62z"/>
	<path class="st22" d="M630.63,397.56c0,0,16.81-13.39,19.05-10.93s0,10.93,0,10.93s10.98-0.01,13.66,2.45c2.68,2.46,7.58,0,7.58,0
		s10.04,1.12,9.37,3.12c-0.67,2.01,5.35,0,5.35,0s4.24,0.45,4.01,3.35c-0.22,2.9,6.48,4.24,5.58,6.24c-0.9,2.01,4.01,3.35,4.01,3.35
		s4.9-0.22,3.12,2.68c-0.02,0.03-0.05,0.06-0.05,0.09c-0.17,0.26-0.39,0.68-0.67,1.25c-2.45,4.88-9.14,19.97-12.55,27.8
		c-1.28,2.89-2.11,4.78-2.11,4.78l0.07,0.72l2.84,29.84l5.57,5.75l1.34,1.41l18.23,18.76l1.61,1.66l1.76,1.81
		c0,0,5.58,13.82-1.11,14.49c-5.65,0.56-9.72,0.97-11.78,0.41c-0.33-0.08-0.65-0.22-0.94-0.41c-0.13-0.09-0.45-0.37-0.91-0.81
		c-3.15-2.92-13.24-12.93-20.41-20.07c-0.45-0.46-0.9-0.9-1.34-1.34c-3.67-3.66-6.3-6.29-6.3-6.29s-17.87-24.52-21-36.68
		c-3.12-12.16-13.83-38.49-13.83-38.49s-3.12-8.46-1.78-13.6C640.35,404.68,630.63,397.56,630.63,397.56z"/>
	<path class="st5" d="M680.72,511.08c0,0-30.33,22.09-17.4,30.56s31.45-17.63,31.45-17.63L680.72,511.08z"/>
	<path class="st26" d="M680.72,509.74c0,0-30.33,22.09-17.4,30.56s31.45-17.63,31.45-17.63L680.72,509.74z"/>
	<path class="st5" d="M595.96,535.42l4.01-49.3l-1.34-13.16l6.38,2.68c-1.13-4.58-2.14-7.88-2.81-8.95
		c-3.35-5.13,3.12-57.32,3.12-57.32l11.54-15.17l0.52,0.41c-0.98,7.99-2.1,19.53-1.12,24.13c1.56,7.36-6.47,43.17-6.47,43.17
		s-0.26,7.05-1.08,15.29c-0.31,3.1-0.69,6.38-1.17,9.5c-0.9,5.81-2.12,11.11-3.77,13.9c-3.34,5.61,0.76,24.12,2.17,36.44
		L595.96,535.42z"/>
	<path class="st22" d="M614.88,418.74c1.57,7.36-6.46,43.17-6.46,43.17s-1.11,30.43-6.02,38.69c-4.91,8.26,6.25,44.39,1.34,47.74
		c-4.91,3.35-21.41-7.81-21.41-7.81c6.02,0,9.37-44.84,8.14-45.95s-3.01-23.64-1.45-27.66c1.56-4.01-5.58-21.86-5.58-21.86
		l-19.64-28.99c0,0,2.91-2.68,5.59-3.12c2.68-0.44,6.06-3.32,7.62-5.56c1.56-2.24,9.36-3.37,13.82-2.68s16.51-0.9,16.51-0.9
		c-4.9-2.23-6.09-7.59-6.09-7.59c4.39-0.22,15.93-9.89,15.93-9.89S613.32,411.38,614.88,418.74z"/>
	<path class="st5" d="M485.98,452.81l18.31,7.75c0,0-1.57,5.03-4.06,10.93c-1.69-15.97-10.82-15.91-16.78-14.05
		C484.85,454.6,485.98,452.81,485.98,452.81z"/>
	<path class="st22" d="M590.46,428.11l-8.14,15.3c0,0-26.32,11.46-29.22,13.66c-2.9,2.2-12.04-5.31-13.6-2.42
		s-11.38,7.25-11.38,7.25s-14.49-1.45-16.06,2.11c-1.57,3.57-10.93,11.93-10.93,11.93c-0.22-30.89-22.3-16.84-22.3-16.84
		c0.67-5.79,22.97-22.08,26.99-22.08c4.01,0,8.48-6.91,8.48-6.91s11.6-1.78,13.38-3.67c1.79-1.89,13.83-0.79,16.73-0.12
		c2.9,0.67,7.36-1.78,7.36-1.78s2.46-4.01,5.57-4.01c3.11,0,6.46-4.46,6.46-4.46l10.94-1.34L590.46,428.11z"/>
	<circle class="st0" cx="625.18" cy="439.93" r="1.89"/>
	<circle class="st0" cx="627.07" cy="479.47" r="1.89"/>
	<circle class="st0" cx="625.18" cy="458.66" r="1.89"/>
	<circle class="st0" cx="630.65" cy="500.28" r="1.89"/>
	<path class="st5" d="M704.3,724.25c-0.17-4.16,0.69-8.3,2.51-12.04c0.96-1.81,5.02-8.88,7.86-13.8l2.85,3.51L713,715.8l-4.93-1.92
		c0,0-3.8,6.5-1.46,9.32c2.34,2.82-3.18,27.4-12.29,28.4c0,0-2.9,0.96-3.83-1.65C699.41,749.39,704.46,728.6,704.3,724.25z"/>
	<path class="st5" d="M610.46,362.41c0.36-1.49,0.89-2.94,1.57-4.32c5.07-10.27,17.51-14.49,27.78-9.41
		c10.27,5.07,14.49,17.51,9.41,27.78c-0.46-0.1-0.9-0.29-1.28-0.56c-1.32-1.01-1.1-3-1.43-4.62c-0.73-3.69-4.6-6.06-5.51-9.71
		c-0.58-2.35,0.3-5.64-1.97-7.19c-2.92-2-6.91-0.07-9.76,0.98c-1.91,0.7-3.96,1.25-5.93,0.79c-1.65-0.38-3.47-1.49-5-0.67
		c-1.32,0.71-1.6,2.46-2.45,3.71c-0.93,1.34-2.54,2.05-4.08,2.68c-0.43,0.18-0.88,0.36-1.34,0.52L610.46,362.41z"/>
	<path class="st22" d="M639.08,352.92c2.28,1.55,1.39,4.85,1.97,7.2c0.9,3.64,4.78,6.03,5.51,9.71c0.33,1.63,0.09,3.61,1.43,4.62
		c0.51,0.34,1.09,0.57,1.69,0.67c2.1,0.47,4.72,0.58,6.02-1.18c0.72-1.15,0.91-2.56,0.52-3.86c-0.3-1.31-0.87-2.52-1.14-3.86
		c-0.24-0.78-0.11-1.63,0.35-2.3c0.76-0.84,2.13-0.67,3.12-1.34c0.98-0.67,1.06-2.15,0.8-3.35c-0.26-1.19-0.76-2.38-0.61-3.59
		c0.22-1.69,1.65-2.94,2.38-4.48c0.81-1.71,0.75-3.7-0.15-5.35c-1.55-2.78-5.1-3.93-6.77-6.64c-1.48-2.4-1.16-5.48-0.42-8.2
		c0.41-1.51,0.9-3.27-0.04-4.53c-0.62-0.7-1.46-1.16-2.38-1.3c-3.81-0.89-7.87,0.27-11.7-0.53c-2.52-0.52-4.82-1.84-7.36-2.13
		c-4.12-0.47-8.14,1.97-10.71,5.25c-1.77,2.25-3.08,4.96-5.47,6.53c-2.09,1.39-4.71,1.67-7,2.68c-2.56,1.13-4.81,3.57-4.64,6.36
		c0.13,2.2,1.73,4.12,1.82,6.33c0.07,1.86-0.93,3.57-1.64,5.29c-0.71,1.72-1.07,3.87,0.12,5.31c0.87,0.94,2.14,1.42,3.41,1.29
		c1.26-0.14,2.49-0.48,3.63-1.02c1.54-0.59,3.15-1.34,4.08-2.68c0.84-1.24,1.11-2.99,2.45-3.71c1.53-0.83,3.31,0.27,4.99,0.67
		c1.97,0.47,4.03-0.08,5.93-0.78C632.14,352.94,636.13,351.01,639.08,352.92z"/>
	<path class="st5" d="M610.87,614.58c0.67-5.13,21.67-18.51,21.67-18.51L610.87,614.58z"/>
	<path class="st5" d="M610.87,622.38c-1.34-4.01,22.75-15.61,22.75-15.61L610.87,622.38z"/>
	<path class="st5" d="M620.72,628.4c0.89-4.24,14.5-11.38,14.5-11.38L620.72,628.4z"/>
	<path class="st5" d="M618.71,638.89c1.79,2.01,10.71-5.8,10.71-5.8S616.92,636.88,618.71,638.89z"/>
	<path class="st5" d="M638.3,649.81c-3.35-0.67,3.61-11.82,3.61-11.82S641.65,650.48,638.3,649.81z"/>
	<path class="st5" d="M680.68,448.85c3.57-1.79-8.26-8.92-8.26-8.92S677.12,450.64,680.68,448.85z"/>
	<path class="st5" d="M678.9,434.13c5.57,1.56-6.47-20.52-6.47-20.52S673.32,432.57,678.9,434.13z"/>
	<path class="st5" d="M550.46,449.07c1.34-4.72-6.02-13.38-6.02-13.38L550.46,449.07z"/>
	<path class="st5" d="M534.64,450.86c1.62-1.12-9.43-10.93-9.43-10.93L534.64,450.86z"/>
	<path class="st5" d="M517.67,458.67c1.79-0.24,0.67-6.69,0.67-6.69L517.67,458.67z"/>
	<path class="st27" d="M636.05,580.89c1.84-3.68,9.03-5.19,9.03-5.19s7.36,8.03,6.69,11.04c-0.47,2.13-1.92,12.73-2.74,18.86
		c-1.25-0.7-2.05,0.09-2.47,1.43c-1.27-2.06-2.84-4.6-3.54-6.08c-1.28-2.68-1.28-9.2-4.13-12.88
		C636.05,584.41,634.21,584.57,636.05,580.89z"/>
	<path class="st5" d="M681.93,504.89c1.7-1.73,3.04-3.32,3.04-3.84c0-1.34,6.92-8.25,6.92-8.25l3.57-3.84l19.61,20.22
		c-3.35,5.22-7.95,12.1-11.38,17.16c-2.72,3.98-4.68,6.83-4.68,6.83s-14.94-21.41-22.97-22.52
		C676.03,510.64,679.33,507.58,681.93,504.89z"/>
	<path class="st5" d="M689.08,447.86l4.58-28.45l8.65-0.58c-0.17,0.26-0.39,0.68-0.67,1.25
		C699.19,424.96,692.5,440.06,689.08,447.86z"/>
	<path class="st5" d="M687.63,501.06c0-1.34,6.92-8.25,6.92-8.25l2.26-2.43l18.24,18.76l1.61,1.66c-3.48,5.43-7.98,12.1-11.13,16.73
		c-0.33-0.08-0.65-0.22-0.94-0.41c-0.13-0.09-0.45-0.37-0.91-0.81c-3.15-2.92-13.24-12.93-20.41-20.07
		C685.47,504.04,687.63,501.71,687.63,501.06z"/>
	<path class="st22" d="M686.92,452.65l10.49,5.35c0,0,3.79,7.35,6.69,8.47s2.68,5.13,2.68,5.13s-7.81,5.57-4.9,8.03
		c2.9,2.46,0,3.79,0,3.79l-8.7,9.37c0,0-6.87,6.91-6.87,8.25c0,1.34-8.92,9.59-8.92,9.59c8.03,1.12,22.97,22.53,22.97,22.53
		s20.31-29.44,20.25-31.45c-0.07-2.01,7.86-12.72,8.52-15.17c0.67-2.45,2.9-6.91,6.02-13.6c3.12-6.69-1.34-15.87-1.34-15.87
		s-13.58-19.14-13.21-21.82c0.37-2.68-8.22-4.24-8.22-4.24s-2.9-5.13-5.13-5.57c-2.23-0.45-4.9-6.69-4.9-6.69l-10.04,0.67
		L686.92,452.65z"/>
	<path class="st5" d="M718.38,462.9c0.22-1.56,12.27,0.89,12.27,0.89S718.16,464.46,718.38,462.9z"/>
	<path class="st5" d="M710.84,479.47c-0.45-2.18,9.76-3.52,9.76-3.52S711.29,481.65,710.84,479.47z"/>
	<path class="st5" d="M701.01,449.05c1.34,2.88,11.15-11.02,11.15-11.02L701.01,449.05z"/>
	<g class="st28">
		<path d="M653.78,331.02c0.38-1.07,0.53-2.21,0.44-3.35c-0.1,0.68-0.25,1.35-0.44,2.01c-0.46,1.56-0.66,3.18-0.6,4.8
			C653.26,333.31,653.47,332.15,653.78,331.02z"/>
		<path d="M606.31,348.31c-0.08-2.11-1.52-3.95-1.78-6.02c-0.05,0.34-0.06,0.68-0.04,1.02c0.13,2.05,1.51,3.88,1.77,5.89
			C606.3,348.9,606.32,348.61,606.31,348.31z"/>
		<path d="M604.07,357.17c-0.2,1.08,0.07,2.19,0.72,3.07c0.87,0.94,2.14,1.42,3.41,1.29c1.26-0.14,2.49-0.48,3.63-1.02
			c1.54-0.59,3.15-1.34,4.08-2.68c0.85-1.24,1.11-2.99,2.45-3.71c1.53-0.83,3.31,0.27,5,0.67c1.97,0.47,4.03-0.08,5.92-0.78
			c2.85-1.05,6.84-3,9.76-0.99c2.28,1.55,1.39,4.85,1.97,7.2c0.9,3.64,4.78,6.03,5.51,9.71c0.33,1.63,0.09,3.61,1.43,4.62
			c0.51,0.35,1.09,0.57,1.7,0.67c2.1,0.47,4.72,0.58,6.02-1.18c0.6-0.89,0.84-1.98,0.67-3.04c-0.07,0.62-0.3,1.21-0.67,1.71
			c-1.27,1.75-3.89,1.65-6.02,1.18c-0.61-0.1-1.19-0.32-1.7-0.67c-1.32-1.01-1.1-3-1.43-4.62c-0.73-3.69-4.6-6.07-5.51-9.71
			c-0.58-2.35,0.3-5.65-1.97-7.2c-2.92-1.99-6.91-0.06-9.76,0.99c-1.91,0.7-3.95,1.25-5.92,0.78c-1.65-0.38-3.47-1.49-5-0.67
			c-1.32,0.72-1.6,2.46-2.45,3.71c-0.93,1.34-2.54,2.05-4.08,2.68c-1.15,0.54-2.37,0.88-3.63,1.02c-1.28,0.12-2.54-0.35-3.41-1.29
			C604.39,358.4,604.14,357.8,604.07,357.17z"/>
		<path d="M658.78,355.52c0.28-1.61,1.63-2.84,2.35-4.34c0.47-0.99,0.65-2.09,0.52-3.18c-0.07,0.64-0.25,1.26-0.52,1.84
			c-0.74,1.54-2.16,2.79-2.38,4.48C658.7,354.73,658.71,355.13,658.78,355.52z"/>
		<path d="M655.41,364c0.76-0.84,2.24-0.7,3.12-1.34c0.88-0.64,1.02-1.84,0.88-2.93c-0.07,0.63-0.38,1.2-0.88,1.59
			c-0.92,0.67-2.36,0.48-3.12,1.34c-0.44,0.62-0.58,1.39-0.38,2.12C655.09,364.49,655.22,364.23,655.41,364z"/>
	</g>
	<path class="st1" d="M818.67,713.45c2.05-0.83,4.29-1.08,6.47-0.72c0,0-0.05,0.27-1.06,0.39c-1.01,0.11-4.46,0.78-4.46,0.78
		l2.3,1.03c5.49-1.73,8.44-0.13,8.44-0.13c-2.82-0.35-7.51,0.67-7.51,0.67l3.2,1.91c5.98-1.68,8.65,0.62,8.65,0.62
		c-2.34-0.83-7.86-0.08-7.86-0.08l2.94,2.4c5.26-1.18,7.49,1.42,7.49,1.42c-2.54-1.12-6.73-0.78-6.73-0.78
		c0.58,0.18,2.72,3.14,2.72,3.14c4.22,0.24,4.62,3,4.62,3c-1.1-1.06-2.48-1.77-3.97-2.06c2.12,2.97,2.23,6.95,2.23,6.95
		c-0.27-2.67-2.86-6.57-2.86-6.57c-0.65,0.03-1.43,5.92-1.43,5.92c-1.28-2.29,0.78-6.63,0.78-6.63c-0.39-0.94-3-3.24-3-3.24
		c-1.58,0.66-1.82,9.5-1.82,9.5c-1.84-4.11,1.18-10.08,1.18-10.08l-2.98-2.32c-2.28,2.96-1.72,10.55-1.72,10.55
		c-2.18-4.95,1.03-11.01,1.03-11.01l-3.29-1.92c-2.32,2.48-1.53,9.72-1.53,9.72c-2.08-4.27,0.67-10.14,0.67-10.14
		s-2.25-1.14-2.43-1.17c-0.9-0.11-1.05,5.91-1.05,5.91c-1.26-2.82,0.34-6.17,0.34-6.17l-4.68-2.01c-0.09,0.71,2.15,3.49,2.15,3.49
		c3.02,12.71,10.81,15.93,10.81,15.93l0,0c1.03,0.89,2.32,1.42,3.68,1.51c1,0.07,2.01,0.03,3-0.14c2.79-0.49,2.84,0.95,2.84,0.95
		c3.13-1.56,2.46-4.99,2.46-4.99c3.26-19.4-24.42-17.73-24.42-17.73C813.78,711.64,818.67,713.45,818.67,713.45z"/>
	<ellipse class="st18" cx="832.93" cy="735.74" rx="19.59" ry="3.31"/>
</g>
</svg>
