<?xml version="1.0" encoding="utf-8"?>
<!-- Generator: Adobe Illustrator 24.0.0, SVG Export Plug-In . SVG Version: 6.00 Build 0)  -->
<svg version="1.1" id="Layer_1" xmlns="http://www.w3.org/2000/svg" xmlns:xlink="http://www.w3.org/1999/xlink" x="0px" y="0px"
	 viewBox="0 0 1080 1080" style="enable-background:new 0 0 1080 1080;" xml:space="preserve">
<style type="text/css">
	.st0{fill:#3F3D56;}
	.st1{fill:#6C63FF;}
	.st2{fill:#F2F2F2;}
	.st3{opacity:0.7;}
	.st4{fill:url(#SVGID_1_);}
	.st5{opacity:0.1;enable-background:new    ;}
	.st6{fill:#E0E0E0;}
	.st7{fill:url(#SVGID_2_);}
	.st8{fill:#72351C;}
	.st9{fill:#FDA57D;}
	.st10{fill:url(#SVGID_3_);}
	.st11{fill:#535461;}
	.st12{fill:#FFFFFF;}
	.st13{fill:#EEEEEE;}
	.st14{fill:#2F2E41;}
	.st15{fill:#A0616A;}
	.st16{fill:#D0CDE1;}
	.st17{fill:#E6E6E6;}
	.st18{opacity:0.1;fill:#6C63FF;enable-background:new    ;}
	.st19{fill:none;stroke:#535461;stroke-width:2;stroke-miterlimit:10;}
	.st20{opacity:0.25;enable-background:new    ;}
	.st21{fill:#495464;}
	.st22{fill:#464353;}
	.st23{fill:#514E7F;}
	.st24{opacity:0.5;fill:#6C63FF;enable-background:new    ;}
	.st25{fill:url(#SVGID_4_);}
	.st26{fill:#A1616A;}
	.st27{opacity:0.05;enable-background:new    ;}
	.st28{opacity:0.1;}
	.st29{opacity:0.2;enable-background:new    ;}
	.st30{fill:#E6E8EC;}
	.st31{fill:none;stroke:#3F3D56;stroke-miterlimit:10;}
	.st32{fill:#FFB6B6;}
	.st33{fill:#F86D70;}
	.st34{fill:#444053;}
	.st35{opacity:0.1;fill:#FFFFFF;enable-background:new    ;}
	.st36{fill:none;stroke:#444053;stroke-miterlimit:10;}
	.st37{fill:url(#SVGID_5_);}
	.st38{fill:#2D293D;}
	.st39{opacity:0.05;}
	.st40{fill:#FFCDD3;}
	.st41{fill:#DCE6F2;}
	.st42{fill:#DC9BA3;}
	.st43{fill:#FFD2D9;}
	.st44{fill:#E9E9EF;}
	.st45{fill:#CEDAD5;}
	.st46{fill:#FFD037;}
	.st47{fill:#A8A8A8;}
	.st48{fill:#844F6E;}
	.st49{opacity:0.2;fill:#FFFFFF;enable-background:new    ;}
	.st50{opacity:0.05;fill:#00FF00;enable-background:new    ;}
	.st51{fill:#7679B4;}
	.st52{fill:#565388;}
	.st53{opacity:0.2;fill:#6C63FF;enable-background:new    ;}
	.st54{opacity:0.2;}
	.st55{opacity:0.1;fill:#252223;enable-background:new    ;}
	.st56{opacity:0.3;fill:#6C63FF;enable-background:new    ;}
	.st57{fill:url(#SVGID_6_);}
	.st58{fill:url(#SVGID_7_);}
	.st59{fill:#F9D5C6;}
	.st60{fill:#353535;}
	.st61{fill:#409CD6;}
	.st62{fill:#2F302F;}
	.st63{fill:none;stroke:#535461;stroke-miterlimit:10;}
</style>
<g>
	<path class="st17" d="M586.88,345.03c-51.86-1.93-101.25-19.91-148.41-39.59c-47.16-19.68-93.88-41.46-144.46-51.89
		c-32.55-6.71-69.78-7.66-96.01,11.09c-25.28,18.08-33.44,49.19-37.8,78.08c-3.3,21.75-5.24,44.63,3.8,64.98
		c6.27,14.13,17.42,26.01,25.13,39.54c26.82,47.1,7.86,105.18-21.2,151.16c-13.62,21.57-29.44,42.15-39.96,65.11
		s-15.41,49.28-6.23,72.71c9.12,23.24,30.86,40.66,54.41,52.88c47.83,24.91,104.16,32.05,159.14,36.06
		c121.65,8.94,243.95,5.07,365.93,1.19c45.13-1.43,90.48-2.89,134.88-10.42c24.66-4.17,50.12-10.78,68.02-26.73
		c22.73-20.25,28.36-54.54,13.13-79.93c-25.54-42.59-96.15-53.18-114.03-98.89c-9.82-25.16,0.26-53.19,14.55-76.52
		c30.63-50.06,81.99-93.98,84.69-151.2c1.86-39.26-22.83-78.65-61-97.25c-40.01-19.49-95.49-17.04-125,15.22
		C686.08,334,632.67,346.75,586.88,345.03z"/>
	<circle class="st18" cx="951.32" cy="469.22" r="29.05"/>
	<circle class="st18" cx="464.46" cy="271.41" r="17.33"/>
	<circle class="st18" cx="663.26" cy="291.33" r="17.33"/>
	<circle class="st18" cx="128.68" cy="510.54" r="29.05"/>
	<path class="st33" d="M806.06,573.17l-3.16,4.21c-0.29,0.35-0.54,0.74-0.74,1.16c-0.48,1.11-0.22,2.4-0.47,3.57
		c-0.19,0.76-0.5,1.48-0.92,2.14c-1.19,2.09-2.53,4.09-4.01,5.98c-0.69,0.95-1.53,1.79-2.49,2.47c-0.98,0.67-2.21,0.89-3.37,0.59
		c0.48,0.19,0.87,0.54,1.11,1c1.12,2.45,1.4,5.2,0.8,7.82c-0.15,0.9-0.44,1.77-0.88,2.56c-0.44,0.8-1.16,1.42-2.01,1.74
		c0.22,1.62,1.72,2.76,3.34,2.53c0.05-0.01,0.1-0.02,0.15-0.03c0.62-0.19,1.21-0.48,1.73-0.87l5.07-3.29
		c0.85-0.5,1.64-1.1,2.36-1.77c0.95-0.95,1.6-2.14,2.53-3.12c1.6-1.66,3.88-2.65,4.99-4.66c0.7-1.25,0.8-2.73,1.24-4.1
		c0.28-0.89,0.7-1.74,0.96-2.64c0.72-2.85,0.35-5.86-1.04-8.45C809.96,577.45,807.93,575.38,806.06,573.17z"/>
	<path class="st1" d="M512.62,379v268.75c-8.96-2.89-18.33-4.33-27.75-4.28c-39.96,0-72.41,28.28-72.41,68.23
		s32.45,67.92,72.41,67.92s72.61-29.42,72.61-72.11V520.89h210.73v126.86c-8.96-2.89-18.33-4.33-27.75-4.28
		c-39.96,0-72.41,28.28-72.41,68.23s32.45,67.92,72.41,67.92s72.61-29.42,72.61-72.11V379L512.62,379z M768.22,479.16H557.49v-55.29
		h210.73V479.16z"/>
	<path class="st1" d="M281.19,772.07c-3.93-2.11-8.16-3.61-12.54-4.44c3.18-0.44,6.32-1.14,9.38-2.11
		c8.15-2.58,12.26-6.04,9.17-7.73c-3.08-1.69-12.2-0.98-20.34,1.6c-2.75,0.8-5.38,1.96-7.81,3.47c-0.84-1.79-3.13-3.86-6.71-5.83
		c-7.21-4.01-16.97-5.99-21.73-4.48c-4.76,1.51-2.75,5.95,4.5,9.93c3.53,1.9,7.3,3.31,11.22,4.17c-2.6,0.3-5.18,0.76-7.73,1.37
		c-8.87,2.13-14,5.34-11.46,7.21s11.8,1.6,20.67-0.51c3.23-0.69,6.35-1.8,9.29-3.29c0.73,1.84,3.06,4.01,6.83,6.1
		c7.21,4.01,16.97,5.99,21.73,4.48C290.43,780.51,288.41,776.04,281.19,772.07z"/>
	<path class="st1" d="M332.24,713.51c-1.91-1.02-3.96-1.75-6.08-2.16c1.54-0.21,3.06-0.56,4.55-1.02c3.96-1.26,5.95-2.93,4.45-3.76
		c-1.5-0.83-5.92-0.47-9.88,0.8c-1.33,0.39-2.61,0.96-3.79,1.68c-0.41-0.87-1.52-1.88-3.25-2.83c-3.52-1.93-8.24-2.9-10.55-2.17
		s-1.33,2.89,2.18,4.81c1.72,0.92,3.56,1.6,5.46,2.02c-1.26,0.15-2.52,0.38-3.76,0.67c-4.3,1.03-6.79,2.59-5.56,3.49
		c1.23,0.9,5.73,0.8,10.03-0.25c1.57-0.34,3.09-0.88,4.52-1.6c0.35,0.89,1.48,1.96,3.31,2.96c3.52,1.93,8.24,2.91,10.55,2.18
		S335.76,715.44,332.24,713.51z"/>
	<path class="st1" d="M194.92,654.15c-1.2-0.64-2.49-1.1-3.83-1.35c0.97-0.13,1.93-0.34,2.87-0.64c2.48-0.8,3.73-1.83,2.79-2.35
		c-0.94-0.51-3.7-0.3-6.18,0.49c-0.84,0.24-1.65,0.59-2.4,1.05c-0.49-0.77-1.2-1.39-2.04-1.76c-2.2-1.21-5.15-1.82-6.6-1.36
		s-0.8,1.8,1.37,3.01c1.08,0.58,2.23,1.01,3.42,1.27c-0.79,0.09-1.58,0.24-2.36,0.42c-2.69,0.64-4.25,1.6-3.49,2.18
		c0.77,0.58,3.59,0.49,6.28-0.15c0.98-0.21,1.93-0.55,2.83-1c0.47,0.82,1.2,1.47,2.07,1.85c2.2,1.21,5.16,1.82,6.6,1.36
		S197.11,655.36,194.92,654.15z"/>
	<path class="st5" d="M391.63,349.36v57.13H323.2v170.99c0.01,37.73-30.57,68.33-68.3,68.35c-15.4,0.01-30.35-5.19-42.43-14.75
		c23.4,29.61,66.37,34.64,95.98,11.25c16.4-12.96,25.97-32.72,25.96-53.62V417.7h68.43v-68.35H391.63z"/>
	<g class="st28">
		<path d="M757.81,516.08H547.08v186.64c0,42.67-32.65,72.11-72.61,72.11c-9.52,0.04-18.96-1.62-27.9-4.9
			c11.73,6.46,24.92,9.81,38.32,9.7c39.96,0,72.61-29.42,72.61-72.11V520.89h200.31V516.08z"/>
		<polygon points="547.07,474.35 557.48,474.35 557.48,423.86 757.81,423.86 757.81,419.05 547.07,419.05 		"/>
		<path d="M802.68,379v323.71c0,42.67-32.65,72.11-72.61,72.11c-9.52,0.04-18.96-1.62-27.9-4.9c11.73,6.46,24.92,9.81,38.32,9.7
			c39.96,0,72.61-29.42,72.61-72.11V379H802.68z"/>
	</g>
	<path class="st1" d="M564.22,305.15c5.17,10.68,13.62,22.83,23.18,18.19s16.7-24.32,11.53-35.01
		c-5.17-10.7-17.14-15.56-26.72-10.92C562.63,282.04,559.05,294.49,564.22,305.15z"/>
	<path class="st1" d="M584.68,330.1c0,0,1.87-0.31,1.15-1.85c-0.06-0.14-0.14-0.27-0.22-0.39c-0.38-0.6-0.62-1.28-0.71-1.99
		c-0.11-0.82-0.08-1.66,0.09-2.48l-5.09-0.34c0,0,1.98,1.68,1.75,2.56c-0.03,0.13-0.12,0.24-0.23,0.3c-0.1,0.07-0.21,0.12-0.34,0.14
		l-0.38,0.11c-1.34,0.47-0.8,1.15-0.8,1.15C580.06,329.53,584.68,330.1,584.68,330.1z"/>
	<path class="st34" d="M581.41,325.93l3.59,0.5c-0.05-0.18-0.08-0.37-0.1-0.55c-0.91-0.04-2.35-0.16-3.25-0.25
		C581.61,325.75,581.52,325.86,581.41,325.93z"/>
	<path class="st1" d="M584.68,330.1c0,0,1.87-0.31,1.15-1.85c-0.72,0.17-1.47,0.2-2.2,0.09c-1.22-0.31-2.28-1.08-2.94-2.16
		c-1.34,0.47-0.8,1.15-0.8,1.15C580.06,329.53,584.68,330.1,584.68,330.1z"/>
	<path class="st5" d="M584.68,330.1c0,0,1.87-0.31,1.15-1.85c-0.72,0.17-1.47,0.2-2.2,0.09c-1.22-0.31-2.28-1.08-2.94-2.16
		c-1.34,0.47-0.8,1.15-0.8,1.15C580.06,329.53,584.68,330.1,584.68,330.1z"/>
	<path class="st35" d="M581.96,278.53c0,0,5.69-0.69,7.3,3.1c-0.68-0.11-1.38-0.07-2.04,0.12c-0.42,0.19-0.87,0.28-1.33,0.26
		C585.03,280.42,583.64,279.19,581.96,278.53z"/>
	<path class="st1" d="M588.08,355.75c0.12-0.09,0.23-0.2,0.32-0.32c0.34-0.39,0.76-0.72,1.22-0.96c0.16-0.1,0.33-0.18,0.5-0.26
		c0.51-0.22,1.05-0.38,1.6-0.48c0.26-0.05,0.53-0.08,0.8-0.09l-0.72-3.45v-0.05l-0.31-1.5c-0.21,0.43-0.45,0.86-0.72,1.26
		c-0.37,0.56-0.8,1.1-1.28,1.11c-0.13,0-0.26-0.05-0.36-0.14c-0.09-0.08-0.17-0.18-0.22-0.29c-0.08-0.13-0.14-0.24-0.22-0.34
		c-0.8-1.15-1.31-0.43-1.31-0.43c-0.91,0.33-1.29,1.42-1.43,2.52c0,0.16,0,0.32-0.05,0.47c-0.05,0.78-0.02,1.56,0.08,2.33
		C585.98,355.13,586.81,356.86,588.08,355.75z"/>
	<path class="st34" d="M589.68,354.47c0.16-0.1,0.33-0.18,0.5-0.26c-0.18-0.75-0.39-1.87-0.54-2.75c0-0.06,0-0.12,0-0.18
		c0-0.06,0-0.18-0.05-0.26c-0.13,0-0.26-0.05-0.36-0.14l0.08,0.54v0.22L589.68,354.47z"/>
	<path class="st1" d="M588.08,355.75c-0.36-0.65-0.59-1.36-0.67-2.1c-0.02-0.45,0.04-0.9,0.15-1.33c0.04-0.13,0.07-0.26,0.12-0.38
		c0.19-0.64,0.53-1.23,1.01-1.7c-0.8-1.15-1.31-0.43-1.31-0.43c-0.91,0.33-1.29,1.42-1.43,2.52c0,0.16,0,0.32-0.05,0.47
		c-0.05,0.78-0.02,1.56,0.08,2.33C585.98,355.13,586.81,356.86,588.08,355.75z"/>
	<path class="st5" d="M588.08,355.75c-0.36-0.65-0.59-1.36-0.67-2.1c-0.02-0.45,0.04-0.9,0.15-1.33c0.04-0.13,0.07-0.26,0.12-0.38
		c0.19-0.64,0.53-1.23,1.01-1.7c-0.8-1.15-1.31-0.43-1.31-0.43c-0.91,0.33-1.29,1.42-1.43,2.52c0,0.16,0,0.32-0.05,0.47
		c-0.05,0.78-0.02,1.56,0.08,2.33C585.98,355.13,586.81,356.86,588.08,355.75z"/>
	<path class="st1" d="M553.42,322.78c4.33,2.78,9.32,5.47,14.06,6.9c3.65,1.11,7.14,1.46,10.06,0.53c1.27-0.4,2.43-1.08,3.41-1.97
		c0.67-0.6,1.25-1.29,1.72-2.05c3.39-5.3,3.33-14.61,0.64-22.67c-1.87-5.61-4.98-10.58-9.08-13.2c-9.98-6.41-22.74-4.33-28.49,4.64
		C540,303.92,543.44,316.37,553.42,322.78z"/>
	<path class="st5" d="M553.42,322.78c4.33,2.78,9.32,5.47,14.06,6.9c3.65,1.11,7.14,1.46,10.06,0.53c1.27-0.4,2.43-1.08,3.41-1.97
		c0.67-0.6,1.25-1.29,1.72-2.05c3.39-5.3,3.33-14.61,0.64-22.67c-1.87-5.61-4.98-10.58-9.08-13.2c-9.98-6.41-22.74-4.33-28.49,4.64
		C540,303.92,543.44,316.37,553.42,322.78z"/>
	<path class="st1" d="M578.39,333.52c1.27,1.78,5.5-0.13,5.5-0.13s1.43-1.23,0-2.17c-0.13-0.08-0.26-0.16-0.39-0.22
		c-0.47-0.22-0.91-0.53-1.27-0.91c-0.13-0.13-0.26-0.26-0.38-0.41c-0.35-0.44-0.65-0.91-0.9-1.42c-0.12-0.24-0.23-0.49-0.31-0.75
		l-4.52,2.4c0.48,0.08,0.95,0.2,1.42,0.34c0.65,0.21,1.29,0.51,1.41,0.93c0.05,0.12,0.05,0.26,0,0.38c-0.05,0.11-0.13,0.21-0.22,0.3
		c-0.09,0.09-0.18,0.19-0.26,0.3C577.55,333.24,578.39,333.52,578.39,333.52z"/>
	<path class="st34" d="M578.92,331.59l3.31-1.46c-0.13-0.13-0.26-0.26-0.38-0.41c-0.8,0.43-2.08,1.08-2.9,1.48
		C579,331.34,578.99,331.47,578.92,331.59z"/>
	<path class="st1" d="M578.39,333.52c1.27,1.78,5.5-0.13,5.5-0.13s1.43-1.23,0-2.17c-0.52,0.52-1.15,0.94-1.83,1.22
		c-1.2,0.37-2.5,0.26-3.62-0.3C577.55,333.24,578.39,333.52,578.39,333.52z"/>
	<path class="st5" d="M578.39,333.52c1.27,1.78,5.5-0.13,5.5-0.13s1.43-1.23,0-2.17c-0.52,0.52-1.15,0.94-1.83,1.22
		c-1.2,0.37-2.5,0.26-3.62-0.3C577.55,333.24,578.39,333.52,578.39,333.52z"/>
	<path class="st35" d="M554.65,290.83c0,0,4.5-3.55,7.84-1.16c-0.64,0.26-1.21,0.66-1.67,1.17c-0.26,0.38-0.61,0.69-1.01,0.91
		C558.25,290.84,556.42,290.51,554.65,290.83z"/>
	<g class="st28">
		<path d="M602.95,328.2l-1.04-4.99c-0.21,0.44-0.45,0.86-0.72,1.26c0.03,1.33,0.36,2.64,0.96,3.83
			C602.41,328.25,602.68,328.22,602.95,328.2z"/>
		<path d="M598.49,330.32c0.12-0.1,0.22-0.2,0.32-0.32c0.35-0.39,0.76-0.72,1.22-0.97c0.16-0.1,0.33-0.18,0.5-0.26
			c0.51-0.22,1.05-0.38,1.6-0.47c0.26-0.05,0.53-0.08,0.8-0.1l-1.04-4.99c-0.21,0.44-0.45,0.86-0.72,1.26
			c-0.37,0.56-0.84,1.11-1.28,1.11c-0.13-0.01-0.25-0.06-0.35-0.14c-0.1-0.07-0.18-0.16-0.25-0.26c-0.07-0.13-0.14-0.24-0.21-0.34
			c-0.8-1.15-1.31-0.42-1.31-0.42c-2.06,0.75-1.39,5.32-1.39,5.32S597.2,331.42,598.49,330.32z"/>
		<path d="M600.03,329.03c0.16-0.1,0.33-0.18,0.5-0.26c-0.21-0.87-0.46-2.29-0.63-3.21c-0.13-0.01-0.25-0.06-0.35-0.14
			L600.03,329.03z"/>
		<path d="M598.49,330.32c-0.36-0.65-0.58-1.37-0.67-2.11c-0.02-1.26,0.44-2.48,1.29-3.41c-0.8-1.15-1.31-0.42-1.31-0.42
			c-2.06,0.75-1.39,5.32-1.39,5.32S597.2,331.42,598.49,330.32z"/>
		<path class="st5" d="M598.49,330.32c-0.36-0.65-0.58-1.37-0.67-2.11c-0.02-1.26,0.44-2.48,1.29-3.41
			c-0.8-1.15-1.31-0.42-1.31-0.42c-2.06,0.75-1.39,5.32-1.39,5.32S597.2,331.42,598.49,330.32z"/>
	</g>
	<path class="st1" d="M597.83,329.33c0.12-0.09,0.23-0.2,0.32-0.32c0.35-0.39,0.76-0.71,1.22-0.96c0.16-0.1,0.33-0.18,0.5-0.26
		c0.51-0.22,1.05-0.38,1.6-0.47c0.26-0.05,0.53-0.08,0.8-0.1l-1.04-4.99c-0.21,0.44-0.45,0.86-0.72,1.26
		c-0.37,0.56-0.8,1.11-1.28,1.11c-0.13,0-0.26-0.05-0.35-0.14c-0.09-0.08-0.17-0.18-0.23-0.29c-0.07-0.13-0.14-0.24-0.21-0.34
		c-0.8-1.15-1.31-0.43-1.31-0.43c-2.06,0.75-1.39,5.33-1.39,5.33S596.54,330.43,597.83,329.33z"/>
	<path class="st34" d="M599.37,328.04c0.16-0.1,0.33-0.18,0.5-0.26c-0.21-0.87-0.46-2.29-0.63-3.21c-0.13,0-0.26-0.05-0.35-0.14
		L599.37,328.04z"/>
	<path class="st1" d="M597.83,329.33c-0.36-0.65-0.59-1.36-0.67-2.1c-0.01-1.26,0.47-2.48,1.33-3.41c-0.8-1.15-1.31-0.43-1.31-0.43
		c-2.06,0.75-1.39,5.33-1.39,5.33S596.54,330.43,597.83,329.33z"/>
	<path class="st5" d="M597.83,329.33c-0.36-0.65-0.59-1.36-0.67-2.1c-0.01-1.26,0.47-2.48,1.33-3.41c-0.8-1.15-1.31-0.43-1.31-0.43
		c-2.06,0.75-1.39,5.33-1.39,5.33S596.54,330.43,597.83,329.33z"/>
	<g class="st28">
		<path d="M593.68,314.77c1.12,0.72,2.38,1.19,3.7,1.37c0.11-0.25,0.23-0.49,0.37-0.72l-4.71-1.96
			C593.29,313.88,593.5,314.32,593.68,314.77z"/>
		<path d="M595.29,321.68c0,0,1.87,0.31,1.69-1.38c-0.02-0.15-0.05-0.3-0.09-0.45c-0.13-0.5-0.17-1.03-0.11-1.55
			c0.01-0.19,0.04-0.38,0.08-0.56c0.17-0.81,0.46-1.6,0.88-2.32l-4.71-1.96c0.25,0.41,0.47,0.84,0.66,1.29
			c0.26,0.62,0.43,1.32,0.19,1.68c-0.08,0.11-0.19,0.19-0.32,0.22c-0.12,0.03-0.24,0.03-0.36,0h-0.41c-1.41,0-1.09,0.8-1.09,0.8
			C591.11,319.65,595.29,321.68,595.29,321.68z"/>
		<path d="M593.52,316.68l3.21,1.6c0.01-0.19,0.04-0.38,0.08-0.56c-0.85-0.33-2.16-0.91-3-1.28
			C593.75,316.55,593.65,316.64,593.52,316.68z"/>
		<path d="M595.29,321.68c0,0,1.87,0.31,1.69-1.38c-0.74-0.07-1.46-0.28-2.12-0.63c-1.05-0.69-1.8-1.76-2.09-2.99
			c-1.41,0-1.09,0.8-1.09,0.8C591.11,319.65,595.29,321.68,595.29,321.68z"/>
		<path class="st5" d="M595.29,321.68c0,0,1.87,0.31,1.69-1.38c-0.74-0.07-1.46-0.28-2.12-0.63c-1.05-0.69-1.8-1.76-2.09-2.99
			c-1.41,0-1.09,0.8-1.09,0.8C591.11,319.65,595.29,321.68,595.29,321.68z"/>
	</g>
	<path class="st1" d="M594.94,321.18c0,0,1.87,0.31,1.69-1.37c-0.02-0.15-0.04-0.3-0.09-0.45c-0.13-0.51-0.17-1.03-0.11-1.55
		c0.01-0.19,0.04-0.37,0.08-0.55c0.1-0.55,0.27-1.09,0.51-1.6c0.11-0.25,0.23-0.49,0.37-0.72l-4.71-1.96
		c0.25,0.42,0.46,0.86,0.64,1.31c0.26,0.63,0.43,1.32,0.19,1.69c-0.08,0.1-0.19,0.18-0.32,0.21c-0.12,0.02-0.24,0.02-0.36,0h-0.41
		c-1.41,0-1.09,0.8-1.09,0.8C590.78,319.16,594.94,321.18,594.94,321.18z"/>
	<path class="st34" d="M593.2,316.19l3.21,1.6c0.01-0.19,0.04-0.37,0.08-0.55c-0.85-0.33-2.16-0.91-3-1.28
		C593.42,316.06,593.31,316.14,593.2,316.19z"/>
	<path class="st1" d="M594.94,321.18c0,0,1.87,0.31,1.69-1.37c-0.74-0.08-1.46-0.29-2.12-0.63c-1.05-0.69-1.8-1.76-2.09-2.98
		c-1.41,0-1.09,0.8-1.09,0.8C590.78,319.16,594.94,321.18,594.94,321.18z"/>
	<path class="st5" d="M594.94,321.18c0,0,1.87,0.31,1.69-1.37c-0.74-0.08-1.46-0.29-2.12-0.63c-1.05-0.69-1.8-1.76-2.09-2.98
		c-1.41,0-1.09,0.8-1.09,0.8C590.78,319.16,594.94,321.18,594.94,321.18z"/>
	<path class="st1" d="M576.45,343.12c0.21-0.43,0.46-0.85,0.73-1.25c0.38-0.56,0.86-1.1,1.29-1.1c0.13,0,0.26,0.05,0.36,0.14
		c0.09,0.08,0.17,0.17,0.22,0.28c0.07,0.14,0.14,0.25,0.21,0.35c0.8,1.17,1.31,0.44,1.31,0.44c2.07-0.72,1.44-5.31,1.44-5.31
		s-0.8-1.72-2.08-0.63c-0.12,0.1-0.23,0.2-0.33,0.31c-0.49,0.52-1.08,0.93-1.73,1.21c-0.51,0.21-1.05,0.37-1.6,0.46
		c-0.26,0.05-0.53,0.08-0.8,0.09L576.45,343.12z"/>
	<path class="st34" d="M578.46,340.78c0.13,0,0.26,0.05,0.36,0.14l-0.45-3.6c-0.16,0.09-0.33,0.18-0.5,0.25
		C578.08,338.45,578.32,339.87,578.46,340.78z"/>
	<path class="st1" d="M579.26,341.55c0.8,1.17,1.31,0.44,1.31,0.44c2.07-0.72,1.44-5.31,1.44-5.31s-0.8-1.72-2.08-0.63
		c0.35,0.65,0.57,1.37,0.64,2.11C580.59,339.42,580.12,340.63,579.26,341.55z"/>
	<path class="st5" d="M579.26,341.55c0.8,1.17,1.31,0.44,1.31,0.44c2.07-0.72,1.44-5.31,1.44-5.31s-0.8-1.72-2.08-0.63
		c0.35,0.65,0.57,1.37,0.64,2.11C580.59,339.42,580.12,340.63,579.26,341.55z"/>
	<path class="st5" d="M574.74,349.87c1.51-2.4,2.34-5.17,2.4-8.01c0.38-0.56,0.86-1.1,1.29-1.1c0.13,0,0.26,0.05,0.36,0.14
		c0.09,0.08,0.17,0.17,0.22,0.28c0.07,0.14,0.14,0.25,0.21,0.35c0.8,1.17,1.31,0.44,1.31,0.44c2.07-0.72,1.44-5.31,1.44-5.31
		s-0.8-1.72-2.08-0.63c-0.12,0.1-0.23,0.2-0.33,0.31c-0.49,0.52-1.08,0.93-1.73,1.21c-0.51,0.21-1.05,0.37-1.6,0.46
		c-0.4-0.8-0.9-1.55-1.48-2.23c-1.97-2.11-4.42-3.72-7.13-4.7C568.75,338.19,570.84,345.67,574.74,349.87z"/>
	<path class="st5" d="M585.98,352.33c0.58-0.09,1.16-0.22,1.72-0.38c0.52-0.15,1.03-0.33,1.53-0.53l0.33-0.14
		c0.42-0.18,0.86-0.38,1.29-0.61c0.43-0.22,0.65-0.34,0.98-0.52c6.1-3.52,12.02-10.59,14.66-17.77c0.75-1.96,1.23-4.02,1.43-6.11
		c0.1-1.11,0.08-2.22-0.05-3.33c-0.37-3.17-1.39-6.22-2.98-8.98c-0.18-0.3-0.34-0.58-0.53-0.85c-4.01-6.19-10.74-9.92-17.91-9.17
		c1.55,4.5,3.77,8.33,6.88,10.32c0.26,0.63,0.43,1.32,0.19,1.69c-0.08,0.1-0.19,0.18-0.32,0.21c-0.12,0.02-0.24,0.02-0.36,0h-0.41
		c-1.41,0-1.09,0.8-1.09,0.8c-0.55,2.12,3.61,4.15,3.61,4.15s1.87,0.31,1.69-1.37c-0.02-0.15-0.04-0.3-0.09-0.45
		c-0.13-0.51-0.17-1.03-0.11-1.55c0.01-0.19,0.04-0.37,0.08-0.55c0.1-0.55,0.27-1.09,0.51-1.6c0.89,0.12,1.79,0.12,2.68,0
		c1.26-0.17,2.49-0.5,3.65-0.99c-0.17,0.26-0.32,0.53-0.46,0.8c-1.51,2.4-2.34,5.17-2.4,8.01c-0.37,0.56-0.8,1.11-1.28,1.11
		c-0.13,0-0.26-0.05-0.35-0.14c-0.09-0.08-0.17-0.18-0.23-0.29c-0.07-0.13-0.14-0.24-0.21-0.34c-0.8-1.15-1.31-0.43-1.31-0.43
		c-2.06,0.75-1.39,5.33-1.39,5.33s0.8,1.71,2.09,0.61c0.12-0.09,0.23-0.2,0.32-0.32c0.35-0.39,0.76-0.71,1.22-0.96
		c0.16-0.1,0.33-0.18,0.5-0.26c0.51-0.22,1.05-0.38,1.6-0.47c0.4,0.8,0.9,1.55,1.5,2.22l0.32,0.34l-0.11,0.1
		c-2.57,2.32-4.95,4.85-7.11,7.56c-0.65,0.8-1.27,1.68-1.83,2.55c-0.4,0.6-0.76,1.2-1.11,1.8c-1.49,2.41-2.31,5.18-2.36,8.01
		c-0.37,0.56-0.8,1.1-1.28,1.11c-0.13,0-0.26-0.05-0.36-0.14c-0.09-0.08-0.17-0.18-0.22-0.29c-0.08-0.13-0.14-0.24-0.22-0.34
		c-0.8-1.15-1.31-0.43-1.31-0.43C586.47,350.14,586.12,351.23,585.98,352.33z"/>
	<g class="st28">
		<path d="M595.11,312.25c0.43,0.17,0.89,0.23,1.35,0.18c0.69,0.03,1.36,0.22,1.97,0.54c-0.3-4.1-5.91-5.29-5.91-5.29
			C593.89,308.86,594.81,310.47,595.11,312.25z"/>
		<path d="M567.13,327.19c0.1,0.8,0.22,1.67,0.35,2.52c3.65,1.11,7.14,1.46,10.06,0.53c0.65,0.21,1.29,0.51,1.41,0.93
			c0.05,0.12,0.05,0.26,0,0.38c-0.05,0.11-0.13,0.21-0.22,0.3c-0.09,0.09-0.18,0.19-0.26,0.3c-0.9,1.1-0.06,1.38-0.06,1.38
			c1.27,1.78,5.5-0.13,5.5-0.13s1.43-1.23,0-2.17c-0.13-0.08-0.26-0.16-0.39-0.22c-0.47-0.22-0.91-0.53-1.27-0.91
			c-0.13-0.13-0.26-0.26-0.38-0.41c-0.35-0.44-0.65-0.91-0.9-1.42c0.67-0.6,1.25-1.29,1.72-2.05c3.39-5.3,3.33-14.61,0.64-22.67
			C572.92,305.02,565.7,315.57,567.13,327.19z"/>
		<path d="M576.86,350.48c1.12,0.73,2.38,1.2,3.69,1.39c0.11-0.25,0.23-0.49,0.38-0.72l-4.73-1.92
			C576.45,349.63,576.67,350.05,576.86,350.48z"/>
		<path d="M578.46,357.39c0,0,1.87,0.32,1.69-1.37c-0.01-0.15-0.04-0.3-0.08-0.45c-0.13-0.51-0.17-1.03-0.11-1.55
			c0.01-0.19,0.04-0.37,0.07-0.55c0.11-0.55,0.28-1.09,0.51-1.6c0.11-0.25,0.23-0.49,0.38-0.72l-4.72-1.92
			c0.24,0.42,0.46,0.85,0.64,1.3c0.25,0.63,0.42,1.33,0.18,1.69c-0.07,0.11-0.19,0.19-0.31,0.22c-0.12,0.02-0.25,0.02-0.37,0
			c-0.13-0.01-0.27-0.01-0.4,0c-1.42,0-1.1,0.8-1.1,0.8C574.3,355.37,578.46,357.39,578.46,357.39z"/>
		<path d="M576.71,352.43l3.21,1.6c0-0.19,0.02-0.38,0.07-0.55c-0.84-0.33-2.16-0.91-3-1.28
			C576.93,352.3,576.83,352.38,576.71,352.43z"/>
		<path d="M578.46,357.39c0,0,1.87,0.31,1.69-1.38c-0.74-0.07-1.46-0.28-2.12-0.63c-1.05-0.69-1.8-1.75-2.09-2.98
			c-1.42,0-1.1,0.8-1.1,0.8C574.29,355.37,578.46,357.39,578.46,357.39z"/>
		<path class="st5" d="M578.46,357.39c0,0,1.87,0.31,1.69-1.38c-0.74-0.07-1.46-0.28-2.12-0.63c-1.05-0.69-1.8-1.75-2.09-2.98
			c-1.42,0-1.1,0.8-1.1,0.8C574.29,355.37,578.46,357.39,578.46,357.39z"/>
		<path class="st5" d="M595.11,312.25c0.43,0.17,0.89,0.23,1.35,0.18c0.69,0.03,1.36,0.22,1.97,0.54c-0.3-4.1-5.91-5.29-5.91-5.29
			C593.89,308.86,594.81,310.47,595.11,312.25z"/>
	</g>
	<path class="st1" d="M568.28,327.84c1.45,11.78,5.51,25.99,16.08,24.69c10.57-1.31,23.65-17.63,22.2-29.41
		c-1.45-11.79-11.22-20.26-21.78-18.95C574.23,305.47,566.83,316.07,568.28,327.84z"/>
	<path class="st1" d="M579.61,358.04c0,0,1.87,0.32,1.69-1.37c-0.02-0.15-0.04-0.3-0.08-0.45c-0.13-0.51-0.18-1.03-0.12-1.55
		c0-0.18,0.05-0.38,0.08-0.55c0.16-0.82,0.46-1.6,0.89-2.32l-4.71-1.96c0,0,1.33,2.24,0.8,3c-0.08,0.11-0.19,0.19-0.32,0.22
		c-0.12,0.02-0.24,0.02-0.36,0h-0.4c-1.42,0-1.1,0.8-1.1,0.8C575.45,356.02,579.61,358.04,579.61,358.04z"/>
	<path class="st34" d="M577.86,353.05l3.21,1.6c0-0.18,0.05-0.38,0.08-0.55c-0.85-0.33-2.16-0.91-3-1.28
		C578.08,352.93,577.98,353.01,577.86,353.05z"/>
	<path class="st1" d="M579.61,358.04c0,0,1.87,0.32,1.69-1.37c-0.74-0.07-1.46-0.28-2.12-0.63c-1.05-0.69-1.8-1.75-2.08-2.98
		c-1.42,0-1.1,0.8-1.1,0.8C575.45,356.02,579.61,358.04,579.61,358.04z"/>
	<path class="st5" d="M579.61,358.04c0,0,1.87,0.32,1.69-1.37c-0.74-0.07-1.46-0.28-2.12-0.63c-1.05-0.69-1.8-1.75-2.08-2.98
		c-1.42,0-1.1,0.8-1.1,0.8C575.45,356.02,579.61,358.04,579.61,358.04z"/>
	<path class="st35" d="M593.68,308.36c0,0,5.61,1.19,5.91,5.29c-0.61-0.33-1.29-0.51-1.98-0.54c-0.45,0.04-0.91-0.02-1.34-0.19
		C595.98,311.14,595.06,309.52,593.68,308.36z"/>
	<path class="st36" d="M579.89,354.11c1.88,0.16,3.28,1.81,3.12,3.68c-0.01,0.17-0.04,0.35-0.08,0.51c-0.71,2.36-3.61,3.11-5.5,4.69
		c-1.89,1.58-2.8,4.1-3.03,6.56c-0.41,4.71,1.29,9.37,4.62,12.72c1.7,1.67,3.75,2.96,5.42,4.66c1.92,2.13,3.5,4.54,4.69,7.15
		c1.07,1.85,1.77,3.89,2.08,6.01c0.28,3.37-1.42,6.6-3.45,9.31c-2.03,2.71-4.45,5.16-6.03,8.16c-2.15,4.16-2.51,9.01-0.99,13.44
		c0.09,0.35,0.29,0.66,0.57,0.9c0.28,0.21,0.68,0.15,0.89-0.13c0.02-0.02,0.03-0.04,0.04-0.07"/>
	<path class="st36" d="M589.74,353.52c0.51,0.57,0.54,1.43,0.07,2.04c-0.48,0.58-1.2,0.92-1.96,0.91c-0.91,0-1.92-0.28-2.66,0.25
		c-0.51,0.44-0.8,1.07-0.8,1.74c0.01,0.66-0.06,1.32-0.2,1.96c-0.18,0.53-0.48,1.01-0.87,1.41c-0.44,0.51-0.99,0.91-1.6,1.17
		c-1.34,0.52-2.88,0.05-4.25,0.48c-1.8,0.57-2.77,2.52-3.32,4.33c-0.74,2.16-0.88,4.48-0.39,6.71c0.47,1.43,1.08,2.81,1.82,4.12
		c0.74,1.31,1.14,2.79,1.19,4.29c0.02,1.54-0.87,2.95-2.26,3.61"/>
	<path class="st36" d="M587.48,405.24c-2.16,2.87-2.97,7.45-6.5,8.15c-1.82,0.36-3.62-0.58-5.25-1.47
		c-3.79-2.12-7.69-4.25-12.02-4.94c-4.33-0.7-9.1,0.3-11.94,3.6c-1.93,2.26-2.72,5.29-4.42,7.72c-2.21,2.95-5.39,5.04-8.97,5.9
		c-3.56,0.85-7.23,1.16-10.88,0.93c-1.35-0.04-2.83-0.14-3.84-1.04c-0.66-0.73-1.2-1.55-1.6-2.44c-1.74-2.92-5.18-4.52-8.57-4.74
		c-3.39-0.22-6.74,0.8-9.87,2.09c-1.6,0.66-3.21,1.41-4.92,1.24c-2.4-0.24-4.17-2.18-5.66-4.05c-3.84-4.88-7.1-10.19-9.72-15.82"/>
	
		<linearGradient id="SVGID_1_" gradientUnits="userSpaceOnUse" x1="-1021.3364" y1="-3441.1814" x2="-1021.3364" y2="-3165.397" gradientTransform="matrix(-1 -0.04 0.04 -1 -360.9626 -2810.4524)">
		<stop  offset="0" style="stop-color:#808080;stop-opacity:0.25"/>
		<stop  offset="0.54" style="stop-color:#808080;stop-opacity:0.12"/>
		<stop  offset="1" style="stop-color:#808080;stop-opacity:0.1"/>
	</linearGradient>
	<path class="st4" d="M458.2,662.85c0.86-3.12,1.42-5.86,1.42-5.86c0.02-2.08,0.57-4.13,1.6-5.94l0.04-0.86l0,0l0.24-6.32
		c-0.39-1.16-0.88-2.29-1.47-3.37c-1.07-2.03,0.36-9.27,0.36-9.27s4.62-10.1,3.84-16.65c-0.78-6.55,9.78-28.59,9.78-28.59
		c0.02-2.16-0.2-4.31-0.67-6.41c-0.08-0.44-0.1-0.9-0.07-1.35v-0.11c0.31-4.29,4.01-12.21,4.01-12.21l0.14-15.35
		c0,0-1.82-9.13,2.19-21.15c1.39-4.19,2.32-7.55,2.92-10.14c0.07-0.3,0.14-0.58,0.19-0.85c-7.21-1.39-12.76-2.53-12.76-2.53
		s4.9-17.49,7.87-20.47c2.97-2.98,5.61-12.61,5.61-12.61s1.96-12.41-0.3-16.15c-2.26-3.73-2.32-10.07-2.32-10.07
		s-5.32-4.18-5.94-5.98c-0.62-1.79-1.6-5.81-1.52-7.91c0.08-2.1,0.8-3.95,0.65-5.06c-0.15-1.11,1.8-5.24,0.96-7.26
		c-0.21-0.62-0.31-1.28-0.29-1.93c0,0,0,0,0-0.06l0,0c0.06-1.74,0.29-3.47,0.68-5.16c1.63-1.28,3.52-2.19,5.53-2.68l0.14-0.47
		l0.35-1.23c0.19-0.12,0.38-0.22,0.55-0.3v-0.45l0.12-1.79l-0.71-4.06c-1.41-7.07,8.01-7.76,8.01-7.76
		c0.61-1.05,1.58-1.84,2.74-2.22c1.91-0.59-0.1,10.55-1,11.22c-0.68,0.51-2.86,3.95-3.91,5.61l0,0l-0.18,0.28
		c0.15,0.14,0.29,0.3,0.42,0.46l-0.45,2.4l-0.07,0.37c0.59,0.8,1.06,1.67,1.39,2.6c0,0-1.79,1.81-1.52,3.93
		c0.07,1.64-0.19,3.27-0.75,4.81c0.1-0.1,1.36-1.36,2.55-1c1.19,0.36,4.51,1.5,4.51,1.5s2.49,0.54,2.24,1.08
		c-0.25,0.54,1.6,3.04,1.6,3.04l7.02-6.03c0.07-0.19,0.15-0.38,0.22-0.58c0.32-0.9,0.55-1.83,0.7-2.77
		c-0.73-0.21-1.44-0.48-2.13-0.8c-0.7-0.27-1.32-0.7-1.82-1.27c-0.53-0.9-0.86-1.91-0.97-2.95c-0.46-1.99-1.54-3.77-2.29-5.67
		c-1.27-3.2-1.6-6.69-0.96-10.07c0.15-1.04,0.54-2.03,1.15-2.89c1.15-1.47,3.21-2.01,4.67-3.16s2.51-2.96,4.23-3.81
		c1.56-0.76,3.43-0.59,5.14-0.24c3.35,0.68,6.55,1.98,9.42,3.84c0.96,0.62,2.01,1.34,3.15,1.17c0.96-0.24,1.81-0.8,2.4-1.6v-0.09
		l0.07-0.09c0.65,1.61,0.95,3.35,0.86,5.09c0,0.26,0,0.54-0.06,0.8v0.28c-0.01,0.08-0.01,0.16,0,0.23l0,0
		c-0.02,0.12-0.02,0.24,0,0.36c0.13,0.35,0.33,0.67,0.59,0.94c0.2,0.25,0.37,0.52,0.52,0.8c0-0.1-0.05-0.18-0.08-0.28
		c0.41,0.65,0.62,1.39,0.62,2.16c0.01,0.55-0.19,1.09-0.56,1.5c-0.35,0.32-0.73,0.6-1.14,0.84c0.76,5.34-1.9,10.6-6.67,13.13
		c-0.08,0.18-0.17,0.38-0.25,0.57c-1.07,2.28-1.58,4.79-1.51,7.31c0,0.18,0,0.35,0.06,0.54c0.08,0.09,0.15,0.19,0.22,0.29l0,0
		c0,0,11.12,0.54,13.84-1.74c2.72-2.28,6.41,6.06,6.41,6.06s3.97,0.92,4.81,0.18c0.84-0.74,5.48,0.1,5.48,0.1
		c1.98-1.63,4.5-2.44,7.05-2.27c1.6-1.12,3.36-2.02,5.22-2.64l0,0h0.13l0,0c0.81-0.26,1.67-0.34,2.52-0.22c0,0,5.65-4.31,7.34-6.67
		c1.69-2.36,9.62-11.09,9.68-11.12l0.04-0.44l0.14-1.31c0.22,0.05,0.45,0.07,0.68,0.09c0.05-0.13,0.1-0.28,0.18-0.45
		c0.48-1.26,1.07-2.48,1.75-3.65c0,0,0.06-1.66-0.41-2.09c-0.47-0.43,0.46-6.48,0.46-6.48s5.37-11.34,9.46-2.56
		c0,0,8.13,5.9,0.87,12.11c0,0-2.84,1.24-3.29,2.3c-0.29,0.69-1.31,2.6-2,3.87c-0.12,0.21-0.22,0.4-0.31,0.57l0.08,0.07l-0.14,1.07
		l-0.06,0.42c1.3,0.8,2.16,1.6,1.92,2.14c-0.43,0.94-0.73,1.93-0.91,2.95c0,0-10.16,11.76-11.62,16.91c0,0-26.59,14.42-35.18,15.22
		l1.19,7.78c0,0,0.27,4.66,0.1,6.31c-0.18,1.65,0.67,9.21,0.67,9.21s1.06,11.09,2.25,12.68c1.19,1.59,0.71,8.2,0.71,8.2
		c0.18,3.18,0.63,6.34,1.35,9.45c1.09,4.25,0,9.4,0,9.4s3.95,10.1-6.16,2.96c0,0-5.09-0.51-10.95-0.94c0,0.19,0,0.39,0,0.59
		c0,0.75,0,1.6-0.06,2.4c-0.14,5.7-0.41,13.54-0.89,19.46c-0.87,10.46-4.86,31.09-4.86,31.09l-0.4,10.42
		c0.17,0.99,0.23,1.99,0.18,2.99c-0.07,3.68-1.18,7.26-3.21,10.33l-1.23,6.88c0,0-2.05,4.5-2.2,7.21c0,0.22,0.02,0.45,0.06,0.67
		c0.06,0.36,0.07,0.72,0.05,1.07c0,3.16-2.2,10.64-2.2,10.64s-0.41,7.61-1.6,8.01c-0.99,0.34,1.14,4.44,1.77,5.61
		c0.02-0.07,0.04-0.14,0.05-0.22l0.14,0.24c0.21,0.62,0.31,1.28,0.28,1.94c0.09,1.07-0.44,2.09-1.37,2.63
		c-2.22,1.23-3.42,2.3-1.6,2.8c0.7,0.2,1.44,0.27,2,0.5c0-0.09,0.07-0.18,0.1-0.26c0.53,0.23,0.82,0.81,0.7,1.37
		c-0.06,0.9-0.33,1.78-0.8,2.56c-0.88,1.96-1.99,3.81-3.3,5.5l-0.87-0.13c0.12,0.34,0.28,0.66,0.47,0.96
		c0.31,0.49,0.74,0.9,1.24,1.19c0.47,0.3,0.99,0.5,1.54,0.59c1.26,0.08,2.43,0.7,3.21,1.7c1.07,1.51,1.71,3.54-0.6,5.22l-8.26,2.5
		c0,0-14.1,1.28-13.24-1.83c0.87-3.12,1.43-5.86,1.43-5.86c0.04-1.91,0.52-3.78,1.39-5.48c0.15-0.28,0.33-0.55,0.53-0.8l-0.5-0.08
		c0,0-0.75-6.99-2.08-8.37c-0.3-0.32-0.37-0.56-0.28-0.74c-0.13-0.38,0.23-0.59,0.7-0.7c0,0.09,0.06,0.18,0.09,0.27
		c0.45-0.08,0.91-0.11,1.37-0.1c0,0,0.6-3.62-0.8-5.01c-0.23-0.31-0.32-0.71-0.25-1.09c0.01-0.5,0.08-1,0.22-1.48l0.05,0.09
		c0.87-3.28,3.6-8.43,3.6-8.43s0.25-3.31-0.62-4.66c-0.87-1.35,0.8-17.99,0.8-17.99s0-8.07,1.14-11.79
		c1.14-3.72-0.95-8.21-0.95-8.21v-0.24c0-0.02,0-0.04,0-0.06l0.18-1.27v0.08c0.31-2.12,0.9-5.97,1.28-7.75
		c0.55-2.52,0.46-14.68,0.46-14.68l-1.86-5.27l-4.01,8.81l-4.31,11.72c0,0-2.02,2.44-2.16,4.99c0,0.12,0,0.25,0,0.38
		c0.02,0.27,0.02,0.53,0,0.8c0.01,1.51-0.46,2.98-1.35,4.21c0,0-1.24,5.61-2.89,6.96c-1.65,1.35-1.75,4.13-1.75,4.13
		s-2.26,8.09-3.21,9.49c-0.8,1.18-0.99,4.5-1.02,5.52l0,0c0,0.19,0,0.3,0,0.3s-0.38,2.91-0.46,5.37c0,0.3,0,0.59,0,0.87
		c0,0,0-0.05,0-0.06c-0.02,0.67,0.03,1.34,0.16,2c0,0,0,0.07,0,0.11v-0.41c0.34,1.68,0.47,3.4,0.39,5.11
		c-0.06,2.93-0.64,6.41-2.5,8.37c-3.21,3.41-5.14,2.9-5.14,2.9s1.31,4.47,3.1,5.42c0.07,0.03,0.13,0.08,0.19,0.13
		c0-0.08,0-0.17,0.06-0.26c0.38,0.47,0.56,1.07,0.47,1.67c0.06,1.95-1.29,5.06-2.52,6.46c-0.45,0.41-1.01,0.7-1.6,0.84l0.28,0.19
		c0.22,0.13,0.42,0.23,0.62,0.32c0.29,0.14,0.6,0.23,0.92,0.27c1.26,0.07,2.43,0.69,3.21,1.7c1.08,1.51,1.72,3.54-0.59,5.22
		l-8.27,2.5C471.44,664.68,457.33,665.97,458.2,662.85z"/>
	<path class="st38" d="M511.57,670.12l8.01-2.51c2.24-1.68,1.6-3.71,0.58-5.22c-0.72-0.98-1.84-1.6-3.06-1.69
		c-0.53-0.09-1.04-0.29-1.49-0.59c-0.49-0.3-0.9-0.71-1.2-1.19c-0.55-0.93-0.83-2-0.8-3.08c0,0-8.57-2.87-11.04-0.42
		c-0.44,0.44-0.81,0.95-1.11,1.5c-0.85,1.73-1.3,3.62-1.32,5.54c0,0-0.54,2.73-1.38,5.86C497.93,671.43,511.57,670.12,511.57,670.12
		z"/>
	<path class="st38" d="M473.09,664.75l8.01-2.51c2.24-1.68,1.6-3.71,0.58-5.22c-0.72-0.99-1.85-1.61-3.07-1.69
		c-0.31-0.05-0.61-0.14-0.89-0.28c-0.21-0.09-0.4-0.2-0.59-0.32c-2.17-1.3-2.04-4.24-2.04-4.24s-8.57-2.87-11.03-0.42
		c-0.33,0.33-0.62,0.7-0.87,1.1c-1,1.82-1.54,3.87-1.55,5.95c0,0-0.55,2.74-1.39,5.86S473.09,664.75,473.09,664.75z"/>
	<path class="st5" d="M502.57,655.4c-0.44,0.44-0.81,0.95-1.11,1.5l0,0l12.93,2c-0.55-0.93-0.83-2-0.8-3.08
		C513.6,655.82,505.04,652.96,502.57,655.4z"/>
	<path class="st5" d="M463.22,651.13l-0.1,2.4c1.89,3.41,11.69,3.06,14.59,1.5c-0.21-0.09-0.4-0.2-0.59-0.32
		c-2.16-1.27-2.03-4.21-2.03-4.21s-8.57-2.87-11.03-0.42C463.75,650.39,463.47,650.74,463.22,651.13z"/>
	<path class="st0" d="M462.08,640.58c0.57,1.08,1.04,2.21,1.42,3.37l-0.34,8.72c2.07,3.73,13.62,2.96,15.22,1.03
		c1.6-1.93,3.48-7.05,1.75-8.01c-1.73-0.96-3-5.42-3-5.42s1.86,0.51,4.98-2.9s2.53-11.29,2.05-13.19s0.32-8.16,0.32-8.16
		s0.06-4.42,0.99-5.82c0.94-1.39,3.13-9.5,3.13-9.5s0.1-2.76,1.71-4.13c1.6-1.38,2.8-6.96,2.8-6.96c0.96-1.37,1.42-3.03,1.29-4.7
		c-0.22-2.77,2.1-5.66,2.1-5.66l4.21-11.78l3.88-8.81l1.75,5.33c0,0,0.08,12.16-0.46,14.69s-1.46,9.23-1.46,9.23s2.04,4.49,0.9,8.21
		c-1.14,3.72-1.11,11.78-1.11,11.78s-1.6,16.63-0.8,17.99c0.8,1.35,0.59,4.66,0.59,4.66s-4.9,9.54-3.52,10.92
		c1.39,1.38,0.8,5.01,0.8,5.01s-3.08-0.12-1.81,1.26s2.06,8.33,2.06,8.33l13.28,2.06c1.28-1.71,2.35-3.56,3.21-5.51
		c1.92-4.01-0.18-3.66-1.95-4.17c-1.76-0.5-0.59-1.6,1.55-2.81s1.05-4.27,1.05-4.27s-3-5.54-1.87-5.94c1.12-0.4,1.53-8.01,1.53-8.01
		s2.55-8.97,2.09-11.42c-0.46-2.45,2.08-8.21,2.08-8.21l1.04-6.92c2.51-3.85,3.56-8.48,2.93-13.04l0.42-10.7
		c0,0,3.89-20.63,4.74-31.1c0.54-6.7,0.8-15.87,0.94-21.59c0.07-3.21,0.1-5.34,0.1-5.34l-47.49-6.8c-0.16,2.38-0.54,4.74-1.14,7.05
		c-0.58,2.6-1.48,5.96-2.84,10.15c-3.89,12.02-2.14,21.15-2.14,21.15l-0.15,15.35c0,0-4.59,10.1-3.85,13.67
		c0.45,2.11,0.66,4.26,0.64,6.41c0,0-10.25,22.04-9.5,28.59s-3.73,16.66-3.73,16.66S461.05,638.55,462.08,640.58z"/>
	<path class="st27" d="M491.56,584.13l-14.42-2.49C477.13,581.64,485.02,590.34,491.56,584.13z"/>
	<path class="st5" d="M479.76,567.54c0,0-0.7,5.11,2.4,7.16C482.13,574.7,476.54,573.57,479.76,567.54z"/>
	<path class="st5" d="M481.28,551.23c0,0,11.75,10.46,16.19,9.8C501.91,560.38,481.28,551.23,481.28,551.23z"/>
	<path class="st5" d="M509.37,589.51c0,0,9.13,2.45,9.26,6.16C518.76,599.38,509.37,589.51,509.37,589.51z"/>
	<path class="st27" d="M505.55,635.46c0,0,12.92,2.92,9.17,4.44c-3.21,1.13-6.51,1.99-9.86,2.58
		C504.86,642.48,500.65,642.57,505.55,635.46z"/>
	<g class="st39">
		<path d="M517.27,642.63c0.68-0.39,1.14-1.07,1.26-1.84l0.13,0.24c0,0,1.1,3.02-1.05,4.26l-0.7,0.42c-0.38-0.09-0.8-0.16-1.19-0.27
			C513.95,644.93,515.16,643.87,517.27,642.63z"/>
		<path d="M500.52,641.1c-0.34-0.34-0.3-1.19-0.04-2.28c0.49,0.99,0.7,2.1,0.62,3.21C500.97,641.68,500.78,641.37,500.52,641.1z"/>
		<path d="M504.64,586.27c0.43,1.32,0.67,2.7,0.72,4.09c-0.21-0.97-0.51-1.91-0.9-2.83C504.46,587.53,504.53,587.04,504.64,586.27z"
			/>
		<path d="M475.04,579.33c-0.07-0.4-0.1-0.81-0.07-1.21c0.13,0.8,0.22,1.6,0.27,2.28C475.19,580.04,475.1,579.69,475.04,579.33z"/>
		<path d="M503.45,625.52c-0.22-0.8-0.31-1.64-0.24-2.47c0.37,1,0.55,2.06,0.52,3.12C503.66,625.95,503.57,625.73,503.45,625.52z"/>
		<path d="M499.94,646.23c0.61,2.24,1.03,4.53,1.27,6.83l13.28,2.06c1.28-1.71,2.35-3.56,3.21-5.51c0.17-0.35,0.3-0.67,0.42-0.96
			c0.8,0.4,1.07,1.24-0.08,3.62c-0.85,1.96-1.93,3.81-3.21,5.52l-13.28-2.06c0,0-0.73-6.99-2-8.37
			C498.88,646.69,499.31,646.37,499.94,646.23z"/>
		<path d="M518.3,627.09c0,0-0.4,7.61-1.52,8.01l0,0c-0.5-1.28-0.8-2.49-0.33-2.67c1.12-0.4,1.52-8.01,1.52-8.01
			s2.56-8.97,2.1-11.42s2.08-8.2,2.08-8.2l1.04-6.92c2.51-3.85,3.56-8.49,2.93-13.04l0.41-10.7c0,0,3.89-20.63,4.74-31.1
			c0.54-6.71,0.8-15.87,0.95-21.59c0-1.03,0.04-1.96,0.05-2.73l0.38,0.06c0,0,0,2.13-0.1,5.34c-0.13,5.72-0.4,14.9-0.94,21.59
			c-0.85,10.47-4.74,31.1-4.74,31.1l-0.42,10.7c0.62,4.56-0.42,9.19-2.93,13.04l-1.04,6.92c0,0-2.54,5.76-2.08,8.21
			S518.3,627.09,518.3,627.09z"/>
		<path d="M478.05,650.74c1.14-1.53,1.93-3.3,2.32-5.17c1.31,1.28-0.44,6-1.98,7.83c-1.54,1.83-13.15,2.7-15.22-1.03l0.08-2.1
			C466.12,653.35,476.51,652.56,478.05,650.74z"/>
		<path d="M461.75,637.62c0.56,1.08,1.04,2.21,1.42,3.37l-0.06,1.55c-0.22-0.57-0.55-1.34-1.02-2.25c-0.32-0.88-0.45-1.82-0.38-2.75
			L461.75,637.62z"/>
		<path d="M477.78,639.98c-0.39-0.87-0.72-1.76-0.99-2.67c0,0,1.86,0.51,4.97-2.9c2.28-2.48,2.58-7.33,2.4-10.52
			c0.48,1.9,1.07,9.77-2.05,13.19C480.07,639.32,478.58,639.86,477.78,639.98z"/>
		<path d="M484.48,615.73c-0.28,2.17-0.44,4.35-0.47,6.53c-0.06-0.42-0.13-0.8-0.19-1.03c-0.48-1.89,0.32-8.16,0.32-8.16
			s0.06-4.41,1-5.82c0.94-1.4,3.12-9.49,3.12-9.49s0.1-2.76,1.71-4.13s2.81-6.97,2.81-6.97c0.96-1.37,1.41-3.03,1.28-4.7
			c-0.22-2.77,2.1-5.66,2.1-5.66l4.21-11.78l3.87-8.81l1.79,5.26c0,0,0,0.66,0,1.68l-1.44-4.28l-3.85,8.81l-4.21,11.78
			c0,0-2.32,2.89-2.1,5.66c0.13,1.67-0.33,3.33-1.29,4.7c0,0-1.21,5.61-2.8,6.96s-1.71,4.13-1.71,4.13s-2.2,8.1-3.13,9.49
			C484.56,611.3,484.48,615.73,484.48,615.73z"/>
	</g>
	<path class="st40" d="M483.02,412.3l0.67,4.06l-0.11,1.79l-0.09,1.32l4.58,0.65l0.55-0.94l0,0c1.03-1.69,3.13-5.13,3.8-5.61
		c0.88-0.69,2.83-11.83,0.98-11.22c-1.13,0.39-2.08,1.18-2.65,2.23C490.75,404.6,481.66,405.24,483.02,412.3z"/>
	<path class="st5" d="M483.5,419.48l4.58,0.65l0.55-0.94l0,0c-1.22-1.51-3.34-1.94-5.05-1.03L483.5,419.48z"/>
	<path class="st41" d="M482.25,421.61l6.02,1.6l0.17-0.9l0.43-2.4c-1.32-1.9-3.92-2.37-5.82-1.05c-0.01,0.01-0.02,0.01-0.03,0.02
		l-0.34,1.23L482.25,421.61z"/>
	<path class="st40" d="M580.96,416.53l6.35,3.73l0.63-1.2c0.67-1.27,1.66-3.21,1.94-3.87c0.42-1.06,3.21-2.31,3.21-2.31
		c7.04-6.23-0.8-12.11-0.8-12.11c-3.95-8.77-9.17,2.57-9.17,2.57s-0.89,6.05-0.44,6.48c0.45,0.43,0.39,2.08,0.39,2.08
		c-0.67,1.17-1.24,2.39-1.71,3.65C581.08,416.14,580.96,416.53,580.96,416.53z"/>
	<path class="st5" d="M580.96,416.53l6.35,3.73l0.63-1.2c-0.89-0.8-4.01-3.56-5.1-3.48c-0.51,0.05-1.03,0.05-1.54,0
		C581.08,416.14,580.96,416.53,580.96,416.53z"/>
	<path class="st41" d="M580.22,418.45l7.15,3.87l0.21-1.6l0.14-1.07c0,0-4.09-3.78-5.34-3.69c-0.63,0.07-1.27,0.04-1.9-0.08
		l-0.14,1.31L580.22,418.45z"/>
	<path class="st40" d="M499.66,439.76c0,0,31.63,4.81,25.76,2.64c-4.08-1.51-5.61-4.19-5.86-7.12c-0.07-2.51,0.43-5.01,1.47-7.3
		c0.83-1.97,1.85-3.85,3.06-5.61c0,0-23.77-14.29-19.37-1.96c0.68,1.87,1.07,3.83,1.15,5.81c0.07,1.97-0.22,3.93-0.85,5.79
		C503.98,435.04,502.12,437.72,499.66,439.76z"/>
	<path class="st5" d="M504.74,420.38c0.68,1.87,1.07,3.83,1.15,5.81c2.21,2,4.73,1.98,7.94,2.1c2.48,0.1,5.2,0.8,7.21-0.31
		c0.83-1.97,1.85-3.85,3.06-5.61C524.11,422.37,500.32,408.05,504.74,420.38z"/>
	
		<ellipse transform="matrix(0.1602 -0.9871 0.9871 0.1602 21.6306 857.4353)" class="st40" cx="514.71" cy="416.01" rx="13.14" ry="13.14"/>
	<path class="st5" d="M499.66,439.76c0,0,31.63,4.81,25.76,2.64c-4.08-1.51-5.61-4.19-5.86-7.12c-1.51-1.77-4.65-3.13-6.66-3.87
		c-1.84-0.69-3.85-0.8-5.75-0.31c-0.75,0.19-1.47,0.49-2.13,0.89C503.98,435.03,502.13,437.72,499.66,439.76z"/>
	<path class="st5" d="M482.25,421.61l6.02,1.6l0.17-0.9c-1.26-1.88-3.56-2.77-5.76-2.22L482.25,421.61z"/>
	<path class="st5" d="M580.22,418.45l7.15,3.87l0.21-1.6c-2.31-1.36-4.72-2.54-7.21-3.53L580.22,418.45z"/>
	<path class="st5" d="M484.01,519.3c12.23,2.4,29.65,5.61,32.44,4.88c2.33-0.62,9.7-0.26,16.09,0.21c0.07-3.21,0.1-5.34,0.1-5.34
		l-47.49-6.8C484.98,514.63,484.6,516.99,484.01,519.3z"/>
	<path class="st0" d="M471.89,515.95c0,0,40.24,8.51,44.64,7.36c4.4-1.15,26.66,1.14,26.66,1.14c9.78,7.12,5.98-2.98,5.98-2.98
		s1.08-5.15,0-9.39c-0.69-3.11-1.12-6.27-1.29-9.45c0,0,0.47-6.61-0.68-8.2c-1.15-1.59-2.16-12.68-2.16-12.68s-0.8-7.55-0.64-9.2
		c0.16-1.65-0.09-6.31-0.09-6.31l-1.14-7.78c8.32-0.8,34.08-15.27,34.08-15.27c1.42-5.14,11.27-16.92,11.27-16.92
		c0.17-1.02,0.47-2.01,0.88-2.95c0.74-1.74-9.06-5.61-9.06-5.61s-7.75,8.77-9.38,11.13c-1.63,2.36-7.12,6.69-7.12,6.69
		c-0.81-0.11-1.63-0.03-2.4,0.22h-0.13l0,0c-1.81,0.63-3.51,1.53-5.06,2.65c-2.48-0.15-4.93,0.66-6.83,2.28c0,0-4.5-0.8-5.3-0.1
		c-0.8,0.71-4.63-0.18-4.63-0.18s-3.55-8.32-6.18-6.04c-2.63,2.28-13.4,1.75-13.4,1.75c-1.35-1.96-4.81-3.47-6.95-4.25
		c-1.84-0.7-3.85-0.81-5.75-0.32c-0.82,0.2-1.61,0.55-2.32,1.02l-6.78,6.15c0,0-1.79-2.5-1.55-3.04c0.24-0.54-2.16-1.08-2.16-1.08
		s-3.21-1.11-4.37-1.49s-2.36,0.89-2.47,1c0.55-1.54,0.8-3.17,0.74-4.81c-0.25-2.11,1.47-3.92,1.47-3.92
		c-3.49-9.62-12.52-2.04-12.52-2.04s-1.19,5.15-0.38,7.17c0.81,2.02-1.12,6.15-0.95,7.26c0.18,1.11-0.55,2.96-0.63,5.06
		c-0.08,2.1,0.87,6.11,1.47,7.9c0.59,1.79,5.74,5.97,5.74,5.97s0.09,6.31,2.27,10.04s0.26,16.15,0.26,16.15s-2.58,9.62-5.46,12.61
		C476.66,498.48,471.89,515.95,471.89,515.95z"/>
	<path class="st5" d="M533.69,445.6c0,0,1.35-3.6,2.47-3.89c1.12-0.36,2.21-0.8,3.26-1.31l-0.66-1.39c0,0-4.19,0.98-4.9,2.17
		C533.15,442.38,533.69,445.6,533.69,445.6z"/>
	<path class="st5" d="M556.19,438.39c0.18,1.11,9.97,2.48,9.97,2.48l-4.81-5.18l0,0h-0.12l0,0
		C559.42,436.35,557.73,437.25,556.19,438.39z"/>
	<path class="st5" d="M532.48,475.5c0.11-0.12-25.98,30.34-44.6,11.44C487.92,486.94,518.25,492.25,532.48,475.5z"/>
	<path class="st5" d="M539.27,459.75c-1.66,3.46-3.72,6.7-6.15,9.66c-2.65,3.29-5.82,6.12-9.38,8.38
		C523.73,477.79,538.94,461.78,539.27,459.75z"/>
	<path class="st5" d="M544.81,442.63c0,0-2.9,10.62-9.44,14.02L544.81,442.63z"/>
	<path class="st5" d="M548.57,443.87c0.07-0.2,1.88,8.57-8.77,12.96C539.81,456.83,544.31,455.49,548.57,443.87z"/>
	<path class="st5" d="M483.84,434.15c0.17,0-5.3,3.21-6.8,4.71C477.04,438.88,480.71,433.83,483.84,434.15z"/>
	<path class="st0" d="M517.81,428.06c-0.13,0.7-0.52,1.32-1.09,1.73c-0.39,0.18-0.82,0.26-1.25,0.23c-4.01,0.1-8.19,0.11-11.83-1.6
		c-0.68-0.27-1.28-0.71-1.75-1.27c-0.52-0.9-0.84-1.91-0.94-2.94c-0.45-1.99-1.49-3.77-2.21-5.67c-1.21-3.2-1.53-6.66-0.91-10.02
		c0.14-1.04,0.52-2.03,1.11-2.9c1.12-1.47,3.08-2.01,4.53-3.16c1.45-1.15,2.4-2.96,4.1-3.81c1.51-0.8,3.32-0.6,4.97-0.25
		c3.26,0.68,6.35,1.98,9.12,3.83c0.93,0.62,1.95,1.33,3.05,1.17c0.95-0.27,1.77-0.85,2.33-1.66c0.73,1.83,1.01,3.8,0.8,5.76
		c-0.05,0.29-0.05,0.58,0,0.87c0.13,0.35,0.32,0.66,0.58,0.93c0.95,1.19,1.49,3.03,0.47,4.14c-0.44,0.5-1.11,0.75-1.54,1.24
		c-0.8,0.89-0.58,2.23-0.61,3.41c0.03,0.41-0.09,0.82-0.34,1.15c-0.44,0.37-1.05,0.49-1.6,0.32c-0.55-0.19-1.14-0.27-1.72-0.23
		c-0.62,0.18-1.17,0.57-1.55,1.1C519.51,422.7,518.69,425.25,517.81,428.06z"/>
	<g class="st28">
		<path d="M501.47,426.14c0.47,0.56,1.08,1,1.76,1.27c3.65,1.68,7.82,1.67,11.83,1.6c0.43,0.02,0.86-0.06,1.25-0.23
			c0.57-0.42,0.96-1.04,1.09-1.74c0.89-2.8,1.71-5.35,3.65-7.64c0.38-0.53,0.92-0.92,1.55-1.1c0.58-0.03,1.17,0.04,1.72,0.23
			c0.56,0.17,1.16,0.05,1.6-0.33c0.24-0.33,0.36-0.74,0.34-1.15c0-1.18-0.17-2.52,0.6-3.41c0.43-0.5,1.1-0.75,1.55-1.24
			c0.59-0.74,0.73-1.75,0.35-2.62c0.66,1.14,0.91,2.58,0.06,3.52c-0.45,0.49-1.11,0.75-1.55,1.24c-0.8,0.89-0.58,2.23-0.6,3.41
			c0.03,0.41-0.09,0.82-0.34,1.15c-0.45,0.37-1.05,0.49-1.6,0.32c-0.55-0.19-1.14-0.27-1.72-0.23c-0.62,0.18-1.17,0.57-1.55,1.1
			c-1.94,2.28-2.76,4.81-3.65,7.64c-0.13,0.7-0.52,1.32-1.09,1.73c-0.39,0.18-0.82,0.26-1.25,0.23c-4.01,0.1-8.19,0.11-11.83-1.6
			c-0.68-0.27-1.29-0.7-1.76-1.27c-0.24-0.33-0.42-0.69-0.53-1.08L501.47,426.14z"/>
		<path d="M527.76,407.99c-0.17-0.2-0.3-0.43-0.38-0.68c-0.05-0.28-0.05-0.57,0-0.86c0.18-1.62,0.03-3.25-0.43-4.81l0.07-0.08
			c0.72,1.83,0.98,3.81,0.76,5.76C527.76,407.55,527.76,407.77,527.76,407.99z"/>
	</g>
	<path class="st5" d="M519.85,436.11c0,0-16.5,1.54-17.88-0.99"/>
	<path class="st5" d="M488.21,428.09c0,0-9.12-0.34-11.22,3"/>
	<path class="st1" d="M299.49,349.36v180.36c-32.64-18.83-74.36-7.63-93.19,25c-18.83,32.64-7.63,74.36,25,93.19
		c32.64,18.83,74.36,7.63,93.19-25c6-10.4,9.15-22.21,9.13-34.22V417.7h68.43v-68.35H299.49z"/>
</g>
</svg>
